<ttFont>
    <TTGlyph name=".notdef" xMin="68" yMin="0" xMax="612" yMax="1365">
      <contour>
        <pt x="136" y="68" on="1"/>
        <pt x="544" y="68" on="1"/>
        <pt x="544" y="1297" on="1"/>
        <pt x="136" y="1297" on="1"/>
      </contour>
      <contour>
        <pt x="68" y="0" on="1"/>
        <pt x="68" y="1365" on="1"/>
        <pt x="612" y="1365" on="1"/>
        <pt x="612" y="0" on="1"/>
      </contour>
    </TTGlyph>
    <TTGlyph name="A" xMin="52" yMin="0" xMax="924" yMax="1760">
      <contour>
        <pt x="604" y="529" on="1"/>
        <pt x="486" y="1413" on="1"/>
        <pt x="482" y="1413" on="1"/>
        <pt x="374" y="529" on="1"/>
      </contour>
      <contour>
        <pt x="52" y="0" on="1"/>
        <pt x="303" y="1760" on="1"/>
        <pt x="657" y="1760" on="1"/>
        <pt x="924" y="0" on="1"/>
        <pt x="674" y="0" on="1"/>
        <pt x="632" y="314" on="1"/>
        <pt x="348" y="314" on="1"/>
        <pt x="310" y="0" on="1"/>
      </contour>
    </TTGlyph>
    <TTGlyph name="AE" xMin="52" yMin="0" xMax="1164" yMax="1761">
      <contour>
        <pt x="52" y="0" on="1"/>
        <pt x="366" y="1761" on="1"/>
        <pt x="1152" y="1761" on="1"/>
        <pt x="1152" y="1529" on="1"/>
        <pt x="874" y="1529" on="1"/>
        <pt x="874" y="1017" on="1"/>
        <pt x="1136" y="1017" on="1"/>
        <pt x="1136" y="785" on="1"/>
        <pt x="874" y="785" on="1"/>
        <pt x="874" y="231" on="1"/>
        <pt x="1164" y="231" on="1"/>
        <pt x="1164" y="0" on="1"/>
        <pt x="606" y="0" on="1"/>
        <pt x="606" y="314" on="1"/>
        <pt x="366" y="314" on="1"/>
        <pt x="312" y="0" on="1"/>
      </contour>
      <contour>
        <pt x="396" y="512" on="1"/>
        <pt x="606" y="512" on="1"/>
        <pt x="606" y="1530" on="1"/>
        <pt x="571" y="1529" on="1"/>
      </contour>
    </TTGlyph>
    <TTGlyph name="Aacute" xMin="52" yMin="0" xMax="924" yMax="2246">
      <component glyphName="acute" x="175" y="135" flags="0x1004"/>
      <component glyphName="A" x="0" y="0" flags="0x1004"/>
    </TTGlyph>
    <TTGlyph name="Abreve" xMin="52" yMin="0" xMax="924" yMax="2152">
      <component glyphName="breve" x="-26" y="260" flags="0x1004"/>
      <component glyphName="A" x="0" y="0" flags="0x1004"/>
    </TTGlyph>
    <TTGlyph name="Acircumflex" xMin="52" yMin="0" xMax="924" yMax="2205">
      <component glyphName="circumflex" x="-3" y="260" flags="0x1004"/>
      <component glyphName="A" x="0" y="0" flags="0x1004"/>
    </TTGlyph>
    <TTGlyph name="Adieresis" xMin="52" yMin="0" xMax="924" yMax="2109">
      <component glyphName="dieresis" x="-6" y="980" flags="0x1004"/>
      <component glyphName="A" x="0" y="0" flags="0x1004"/>
    </TTGlyph>
    <TTGlyph name="Agrave" xMin="52" yMin="0" xMax="924" yMax="2247">
      <component glyphName="grave" x="173" y="980" flags="0x1004"/>
      <component glyphName="A" x="0" y="0" flags="0x1004"/>
    </TTGlyph>
    <TTGlyph name="Amacron" xMin="52" yMin="0" xMax="924" yMax="2057">
      <component glyphName="macron" x="134" y="980" flags="0x1004"/>
      <component glyphName="A" x="0" y="0" flags="0x1004"/>
    </TTGlyph>
    <TTGlyph name="Aogonek" xMin="52" yMin="-622" xMax="924" yMax="1760">
      <component glyphName="ogonek" x="57" y="4" flags="0x1004"/>
      <component glyphName="A" x="0" y="0" flags="0x1004"/>
    </TTGlyph>
    <TTGlyph name="Aring" xMin="52" yMin="0" xMax="924" yMax="2334">
      <component glyphName="ring" x="20" y="980" flags="0x1004"/>
      <component glyphName="A" x="0" y="0" flags="0x1004"/>
    </TTGlyph>
    <TTGlyph name="Atilde" xMin="52" yMin="0" xMax="924" yMax="2141">
      <component glyphName="tilde" x="-76" y="980" flags="0x1004"/>
      <component glyphName="A" x="0" y="0" flags="0x1004"/>
    </TTGlyph>
    <TTGlyph name="B" xMin="142" yMin="0" xMax="919" yMax="1760">
      <contour>
        <pt x="885" y="1308" on="1"/>
        <pt x="885" y="1024" on="0"/>
        <pt x="731" y="959" on="1"/>
        <pt x="919" y="896" on="0"/>
        <pt x="919" y="544" on="1"/>
        <pt x="919" y="499" on="1"/>
        <pt x="917" y="234" on="0"/>
        <pt x="736" y="0" on="0"/>
        <pt x="531" y="0" on="1"/>
        <pt x="142" y="0" on="1"/>
        <pt x="142" y="1760" on="1"/>
        <pt x="523" y="1760" on="1"/>
        <pt x="720" y="1760" on="0"/>
        <pt x="884" y="1577" on="0"/>
        <pt x="885" y="1362" on="1"/>
      </contour>
      <contour>
        <pt x="410" y="208" on="1"/>
        <pt x="505" y="208" on="1"/>
        <pt x="585" y="208" on="0"/>
        <pt x="649" y="318" on="0"/>
        <pt x="649" y="460" on="1"/>
        <pt x="649" y="602" on="1"/>
        <pt x="649" y="736" on="0"/>
        <pt x="597" y="847" on="0"/>
        <pt x="523" y="847" on="1"/>
        <pt x="410" y="847" on="1"/>
      </contour>
      <contour>
        <pt x="410" y="1048" on="1"/>
        <pt x="509" y="1048" on="1"/>
        <pt x="578" y="1048" on="0"/>
        <pt x="621" y="1136" on="0"/>
        <pt x="621" y="1273" on="1"/>
        <pt x="621" y="1379" on="1"/>
        <pt x="620" y="1481" on="0"/>
        <pt x="566" y="1550" on="0"/>
        <pt x="500" y="1550" on="1"/>
        <pt x="410" y="1550" on="1"/>
      </contour>
    </TTGlyph>
    <TTGlyph name="C" xMin="110" yMin="-20" xMax="875" yMax="1780">
      <contour>
        <pt x="875" y="225" on="0"/>
        <pt x="693" y="-20" on="0"/>
        <pt x="303" y="-20" on="0"/>
        <pt x="110" y="241" on="0"/>
        <pt x="110" y="486" on="1"/>
        <pt x="110" y="1253" on="1"/>
        <pt x="110" y="1646" on="0"/>
        <pt x="316" y="1744" on="1"/>
        <pt x="392" y="1780" on="0"/>
        <pt x="500" y="1780" on="1"/>
        <pt x="871" y="1780" on="0"/>
        <pt x="871" y="1312" on="1"/>
        <pt x="871" y="1070" on="1"/>
        <pt x="612" y="1070" on="1"/>
        <pt x="612" y="1295" on="1"/>
        <pt x="612" y="1431" on="0"/>
        <pt x="566" y="1548" on="0"/>
        <pt x="432" y="1548" on="0"/>
        <pt x="380" y="1424" on="0"/>
        <pt x="380" y="1296" on="1"/>
        <pt x="380" y="474" on="1"/>
        <pt x="380" y="332" on="0"/>
        <pt x="430" y="210" on="0"/>
        <pt x="562" y="210" on="0"/>
        <pt x="612" y="334" on="0"/>
        <pt x="612" y="477" on="1"/>
        <pt x="612" y="729" on="1"/>
        <pt x="875" y="729" on="1"/>
        <pt x="875" y="480" on="1"/>
      </contour>
    </TTGlyph>
    <TTGlyph name="Cacute" xMin="110" yMin="-20" xMax="875" yMax="2246">
      <component glyphName="C" x="0" y="0" flags="0x1004"/>
      <component glyphName="acute" x="193" y="135" flags="0x1004"/>
    </TTGlyph>
    <TTGlyph name="Ccaron" xMin="110" yMin="-20" xMax="875" yMax="2206">
      <component glyphName="C" x="0" y="0" flags="0x1004"/>
      <component glyphName="caron" x="15" y="260" flags="0x1004"/>
    </TTGlyph>
    <TTGlyph name="Ccedilla" xMin="110" yMin="-638" xMax="875" yMax="1780">
      <component glyphName="cedilla" x="-26" y="0" flags="0x1004"/>
      <component glyphName="C" x="0" y="0" flags="0x1004"/>
    </TTGlyph>
    <TTGlyph name="Ccircumflex" xMin="110" yMin="-20" xMax="875" yMax="2205">
      <component glyphName="C" x="0" y="0" flags="0x1004"/>
      <component glyphName="circumflex" x="15" y="260" flags="0x1004"/>
    </TTGlyph>
    <TTGlyph name="Cdotaccent" xMin="110" yMin="-20" xMax="875" yMax="2102">
      <component glyphName="dotaccent" x="214" y="980" flags="0x1004"/>
      <component glyphName="C" x="0" y="0" flags="0x1004"/>
    </TTGlyph>
    <TTGlyph name="D" xMin="131" yMin="0" xMax="896" yMax="1760">
      <contour>
        <pt x="399" y="208" on="1"/>
        <pt x="487" y="208" on="1"/>
        <pt x="561" y="208" on="0"/>
        <pt x="628" y="304" on="0"/>
        <pt x="628" y="432" on="1"/>
        <pt x="627" y="1301" on="1"/>
        <pt x="627" y="1438" on="0"/>
        <pt x="560" y="1554" on="0"/>
        <pt x="478" y="1554" on="1"/>
        <pt x="399" y="1554" on="1"/>
      </contour>
      <contour>
        <pt x="131" y="0" on="1"/>
        <pt x="131" y="1760" on="1"/>
        <pt x="526" y="1760" on="1"/>
        <pt x="720" y="1760" on="0"/>
        <pt x="895" y="1531" on="0"/>
        <pt x="895" y="1308" on="1"/>
        <pt x="896" y="514" on="1"/>
        <pt x="896" y="248" on="0"/>
        <pt x="720" y="0" on="0"/>
        <pt x="517" y="0" on="1"/>
      </contour>
    </TTGlyph>
    <TTGlyph name="Dcaron" xMin="131" yMin="0" xMax="896" yMax="2206">
      <component glyphName="D" x="0" y="0" flags="0x1004"/>
      <component glyphName="caron" x="12" y="260" flags="0x1004"/>
    </TTGlyph>
    <TTGlyph name="Dcroat" xMin="32" yMin="0" xMax="896" yMax="1760">
      <component glyphName="D" x="0" y="0" flags="0x1004"/>
      <component glyphName="macron" x="-58" y="-76" flags="0x1004"/>
    </TTGlyph>
    <TTGlyph name="E" xMin="132" yMin="0" xMax="734" yMax="1760">
      <contour>
        <pt x="132" y="0" on="1"/>
        <pt x="132" y="1760" on="1"/>
        <pt x="722" y="1760" on="1"/>
        <pt x="722" y="1529" on="1"/>
        <pt x="400" y="1529" on="1"/>
        <pt x="400" y="1017" on="1"/>
        <pt x="706" y="1017" on="1"/>
        <pt x="706" y="791" on="1"/>
        <pt x="400" y="791" on="1"/>
        <pt x="400" y="231" on="1"/>
        <pt x="734" y="231" on="1"/>
        <pt x="734" y="0" on="1"/>
      </contour>
    </TTGlyph>
    <TTGlyph name="Eacute" xMin="132" yMin="0" xMax="734" yMax="2246">
      <component glyphName="E" x="0" y="0" flags="0x1004"/>
      <component glyphName="acute" x="132" y="135" flags="0x1004"/>
    </TTGlyph>
    <TTGlyph name="Ebreve" xMin="132" yMin="0" xMax="734" yMax="2152">
      <component glyphName="breve" x="-69" y="260" flags="0x1004"/>
      <component glyphName="E" x="0" y="0" flags="0x1004"/>
    </TTGlyph>
    <TTGlyph name="Ecaron" xMin="99" yMin="0" xMax="778" yMax="2206">
      <component glyphName="E" x="0" y="0" flags="0x1004"/>
      <component glyphName="caron" x="-46" y="260" flags="0x1004"/>
    </TTGlyph>
    <TTGlyph name="Ecircumflex" xMin="99" yMin="0" xMax="778" yMax="2205">
      <component glyphName="E" x="0" y="0" flags="0x1004"/>
      <component glyphName="circumflex" x="-46" y="260" flags="0x1004"/>
    </TTGlyph>
    <TTGlyph name="Edieresis" xMin="56" yMin="0" xMax="822" yMax="2109">
      <component glyphName="E" x="0" y="0" flags="0x1004"/>
      <component glyphName="dieresis" x="-49" y="980" flags="0x1004"/>
    </TTGlyph>
    <TTGlyph name="Edotaccent" xMin="132" yMin="0" xMax="734" yMax="2102">
      <component glyphName="dotaccent" x="153" y="980" flags="0x1004"/>
      <component glyphName="E" x="0" y="0" flags="0x1004"/>
    </TTGlyph>
    <TTGlyph name="Egrave" xMin="132" yMin="0" xMax="734" yMax="2247">
      <component glyphName="grave" x="130" y="980" flags="0x1004"/>
      <component glyphName="E" x="0" y="0" flags="0x1004"/>
    </TTGlyph>
    <TTGlyph name="Emacron" xMin="132" yMin="0" xMax="734" yMax="2057">
      <component glyphName="macron" x="91" y="980" flags="0x1004"/>
      <component glyphName="E" x="0" y="0" flags="0x1004"/>
    </TTGlyph>
    <TTGlyph name="Eogonek" xMin="132" yMin="-622" xMax="734" yMax="1760">
      <component glyphName="E" x="0" y="0" flags="0x1004"/>
      <component glyphName="ogonek" x="-85" y="4" flags="0x1004"/>
    </TTGlyph>
    <TTGlyph name="Eth" xMin="58" yMin="0" xMax="896" yMax="1760">
      <component glyphName="D" x="0" y="0" flags="0x1004"/>
      <component glyphName="hyphen" x="-31" y="187" flags="0x1004"/>
    </TTGlyph>
    <TTGlyph name="Euro" xMin="23" yMin="-20" xMax="875" yMax="1780">
      <contour>
        <pt x="875" y="225" on="0"/>
        <pt x="693" y="-20" on="0"/>
        <pt x="303" y="-20" on="0"/>
        <pt x="110" y="241" on="0"/>
        <pt x="110" y="486" on="1"/>
        <pt x="110" y="725" on="1"/>
        <pt x="23" y="725" on="1"/>
        <pt x="23" y="869" on="1"/>
        <pt x="110" y="869" on="1"/>
        <pt x="110" y="966" on="1"/>
        <pt x="23" y="966" on="1"/>
        <pt x="23" y="1102" on="1"/>
        <pt x="110" y="1102" on="1"/>
        <pt x="110" y="1253" on="1"/>
        <pt x="110" y="1646" on="0"/>
        <pt x="316" y="1744" on="1"/>
        <pt x="392" y="1780" on="0"/>
        <pt x="500" y="1780" on="1"/>
        <pt x="871" y="1780" on="0"/>
        <pt x="871" y="1312" on="1"/>
        <pt x="871" y="1070" on="1"/>
        <pt x="612" y="1070" on="1"/>
        <pt x="612" y="1295" on="1"/>
        <pt x="612" y="1431" on="0"/>
        <pt x="566" y="1548" on="0"/>
        <pt x="432" y="1548" on="0"/>
        <pt x="380" y="1424" on="0"/>
        <pt x="380" y="1296" on="1"/>
        <pt x="380" y="1102" on="1"/>
        <pt x="548" y="1102" on="1"/>
        <pt x="548" y="966" on="1"/>
        <pt x="380" y="966" on="1"/>
        <pt x="380" y="869" on="1"/>
        <pt x="548" y="869" on="1"/>
        <pt x="548" y="725" on="1"/>
        <pt x="380" y="725" on="1"/>
        <pt x="380" y="474" on="1"/>
        <pt x="380" y="332" on="0"/>
        <pt x="430" y="210" on="0"/>
        <pt x="562" y="210" on="0"/>
        <pt x="612" y="334" on="0"/>
        <pt x="612" y="477" on="1"/>
        <pt x="612" y="729" on="1"/>
        <pt x="875" y="729" on="1"/>
        <pt x="875" y="480" on="1"/>
      </contour>
    </TTGlyph>
    <TTGlyph name="F" xMin="131" yMin="0" xMax="735" yMax="1760">
      <contour>
        <pt x="131" y="0" on="1"/>
        <pt x="131" y="1760" on="1"/>
        <pt x="735" y="1760" on="1"/>
        <pt x="735" y="1527" on="1"/>
        <pt x="399" y="1527" on="1"/>
        <pt x="399" y="1059" on="1"/>
        <pt x="711" y="1059" on="1"/>
        <pt x="711" y="825" on="1"/>
        <pt x="399" y="825" on="1"/>
        <pt x="399" y="0" on="1"/>
      </contour>
    </TTGlyph>
    <TTGlyph name="G" xMin="110" yMin="-18" xMax="880" yMax="1780">
      <contour>
        <pt x="463" y="-18" on="1"/>
        <pt x="297" y="-18" on="0"/>
        <pt x="110" y="243" on="0"/>
        <pt x="110" y="515" on="1"/>
        <pt x="110" y="1280" on="1"/>
        <pt x="110" y="1524" on="0"/>
        <pt x="301" y="1780" on="0"/>
        <pt x="509" y="1780" on="1"/>
        <pt x="768" y="1780" on="0"/>
        <pt x="838" y="1587" on="1"/>
        <pt x="880" y="1471" on="0"/>
        <pt x="880" y="1270" on="1"/>
        <pt x="880" y="1145" on="1"/>
        <pt x="630" y="1145" on="1"/>
        <pt x="630" y="1329" on="1"/>
        <pt x="630" y="1450" on="0"/>
        <pt x="579" y="1548" on="0"/>
        <pt x="438" y="1548" on="0"/>
        <pt x="380" y="1431" on="0"/>
        <pt x="380" y="1282" on="1"/>
        <pt x="380" y="519" on="1"/>
        <pt x="380" y="346" on="0"/>
        <pt x="432" y="210" on="0"/>
        <pt x="583" y="210" on="0"/>
        <pt x="646" y="356" on="0"/>
        <pt x="646" y="529" on="1"/>
        <pt x="646" y="766" on="1"/>
        <pt x="511" y="766" on="1"/>
        <pt x="511" y="961" on="1"/>
        <pt x="880" y="961" on="1"/>
        <pt x="880" y="0" on="1"/>
        <pt x="760" y="0" on="1"/>
        <pt x="719" y="173" on="1"/>
        <pt x="698" y="84" on="0"/>
        <pt x="556" y="-18" on="0"/>
      </contour>
    </TTGlyph>
    <TTGlyph name="Gbreve" xMin="110" yMin="-18" xMax="880" yMax="2152">
      <component glyphName="breve" x="-3" y="260" flags="0x1004"/>
      <component glyphName="G" x="0" y="0" flags="0x1004"/>
    </TTGlyph>
    <TTGlyph name="Gcircumflex" xMin="110" yMin="-18" xMax="880" yMax="2205">
      <component glyphName="G" x="0" y="0" flags="0x1004"/>
      <component glyphName="circumflex" x="20" y="260" flags="0x1004"/>
    </TTGlyph>
    <TTGlyph name="Gcommaaccent" xMin="110" yMin="-732" xMax="880" yMax="1780">
      <component glyphName="uni0326" x="224" y="-170" flags="0x1004"/>
      <component glyphName="G" x="0" y="0" flags="0x1004"/>
    </TTGlyph>
    <TTGlyph name="Gdotaccent" xMin="110" yMin="-18" xMax="880" yMax="2102">
      <component glyphName="dotaccent" x="219" y="980" flags="0x1004"/>
      <component glyphName="G" x="0" y="0" flags="0x1004"/>
    </TTGlyph>
    <TTGlyph name="H" xMin="132" yMin="0" xMax="908" yMax="1760">
      <contour>
        <pt x="132" y="0" on="1"/>
        <pt x="132" y="1760" on="1"/>
        <pt x="400" y="1760" on="1"/>
        <pt x="400" y="1048" on="1"/>
        <pt x="640" y="1048" on="1"/>
        <pt x="640" y="1760" on="1"/>
        <pt x="908" y="1760" on="1"/>
        <pt x="908" y="0" on="1"/>
        <pt x="640" y="0" on="1"/>
        <pt x="640" y="818" on="1"/>
        <pt x="400" y="818" on="1"/>
        <pt x="400" y="0" on="1"/>
      </contour>
    </TTGlyph>
    <TTGlyph name="Hbar" xMin="55" yMin="0" xMax="1005" yMax="1760">
      <contour>
        <pt x="400" y="1378" on="1"/>
        <pt x="400" y="1048" on="1"/>
        <pt x="640" y="1048" on="1"/>
        <pt x="640" y="1378" on="1"/>
      </contour>
      <contour>
        <pt x="55" y="1378" on="1"/>
        <pt x="55" y="1509" on="1"/>
        <pt x="132" y="1509" on="1"/>
        <pt x="132" y="1760" on="1"/>
        <pt x="400" y="1760" on="1"/>
        <pt x="400" y="1509" on="1"/>
        <pt x="640" y="1509" on="1"/>
        <pt x="640" y="1760" on="1"/>
        <pt x="908" y="1760" on="1"/>
        <pt x="908" y="1509" on="1"/>
        <pt x="1005" y="1509" on="1"/>
        <pt x="1005" y="1378" on="1"/>
        <pt x="908" y="1378" on="1"/>
        <pt x="908" y="0" on="1"/>
        <pt x="640" y="0" on="1"/>
        <pt x="640" y="818" on="1"/>
        <pt x="400" y="818" on="1"/>
        <pt x="400" y="0" on="1"/>
        <pt x="132" y="0" on="1"/>
        <pt x="132" y="1378" on="1"/>
      </contour>
    </TTGlyph>
    <TTGlyph name="Hcircumflex" xMin="132" yMin="0" xMax="908" yMax="2205">
      <component glyphName="H" x="0" y="0" flags="0x1004"/>
      <component glyphName="circumflex" x="38" y="260" flags="0x1004"/>
    </TTGlyph>
    <TTGlyph name="I" xMin="142" yMin="0" xMax="410" yMax="1760">
      <contour>
        <pt x="142" y="0" on="1"/>
        <pt x="142" y="1760" on="1"/>
        <pt x="410" y="1760" on="1"/>
        <pt x="410" y="0" on="1"/>
      </contour>
    </TTGlyph>
    <TTGlyph name="IJ" xMin="142" yMin="-20" xMax="1346" yMax="1760">
      <component glyphName="J" x="552" y="0" flags="0x1004"/>
      <component glyphName="I" x="0" y="0" flags="0x1004"/>
    </TTGlyph>
    <TTGlyph name="Iacute" xMin="70" yMin="0" xMax="511" yMax="2246">
      <component glyphName="acute" x="-31" y="135" flags="0x1004"/>
      <component glyphName="I" x="0" y="0" flags="0x1004"/>
    </TTGlyph>
    <TTGlyph name="Ibreve" xMin="-7" yMin="0" xMax="557" yMax="2152">
      <component glyphName="breve" x="-232" y="260" flags="0x1004"/>
      <component glyphName="I" x="0" y="0" flags="0x1004"/>
    </TTGlyph>
    <TTGlyph name="Icircumflex" xMin="-64" yMin="0" xMax="615" yMax="2205">
      <component glyphName="circumflex" x="-209" y="260" flags="0x1004"/>
      <component glyphName="I" x="0" y="0" flags="0x1004"/>
    </TTGlyph>
    <TTGlyph name="Idieresis" xMin="-107" yMin="0" xMax="659" yMax="2109">
      <component glyphName="dieresis" x="-212" y="980" flags="0x1004"/>
      <component glyphName="I" x="0" y="0" flags="0x1004"/>
    </TTGlyph>
    <TTGlyph name="Idotaccent" xMin="142" yMin="0" xMax="414" yMax="2102">
      <component glyphName="dotaccent" x="-10" y="980" flags="0x1004"/>
      <component glyphName="I" x="0" y="0" flags="0x1004"/>
    </TTGlyph>
    <TTGlyph name="Igrave" xMin="71" yMin="0" xMax="484" yMax="2247">
      <component glyphName="grave" x="-33" y="980" flags="0x1004"/>
      <component glyphName="I" x="0" y="0" flags="0x1004"/>
    </TTGlyph>
    <TTGlyph name="Imacron" xMin="18" yMin="0" xMax="525" yMax="2057">
      <component glyphName="macron" x="-72" y="980" flags="0x1004"/>
      <component glyphName="I" x="0" y="0" flags="0x1004"/>
    </TTGlyph>
    <TTGlyph name="Iogonek" xMin="7" yMin="-622" xMax="461" yMax="1760">
      <component glyphName="ogonek" x="-351" y="4" flags="0x1004"/>
      <component glyphName="I" x="0" y="0" flags="0x1004"/>
    </TTGlyph>
    <TTGlyph name="Itilde" xMin="-59" yMin="0" xMax="610" yMax="2141">
      <component glyphName="tilde" x="-282" y="980" flags="0x1004"/>
      <component glyphName="I" x="0" y="0" flags="0x1004"/>
    </TTGlyph>
    <TTGlyph name="J" xMin="68" yMin="-20" xMax="794" yMax="1760">
      <contour>
        <pt x="794" y="215" on="0"/>
        <pt x="604" y="-20" on="0"/>
        <pt x="259" y="-20" on="0"/>
        <pt x="68" y="189" on="0"/>
        <pt x="68" y="389" on="1"/>
        <pt x="68" y="703" on="1"/>
        <pt x="327" y="703" on="1"/>
        <pt x="327" y="402" on="1"/>
        <pt x="327" y="256" on="0"/>
        <pt x="374" y="224" on="1"/>
        <pt x="395" y="210" on="0"/>
        <pt x="426" y="210" on="1"/>
        <pt x="487" y="210" on="0"/>
        <pt x="526" y="310" on="0"/>
        <pt x="526" y="418" on="1"/>
        <pt x="526" y="1760" on="1"/>
        <pt x="794" y="1760" on="1"/>
        <pt x="794" y="431" on="1"/>
      </contour>
    </TTGlyph>
    <TTGlyph name="Jcircumflex" xMin="68" yMin="-20" xMax="917" yMax="2205">
      <component glyphName="J" x="0" y="0" flags="0x1004"/>
      <component glyphName="circumflex" x="93" y="260" flags="0x1004"/>
    </TTGlyph>
    <TTGlyph name="K" xMin="132" yMin="0" xMax="968" yMax="1760">
      <contour>
        <pt x="132" y="0" on="1"/>
        <pt x="132" y="1760" on="1"/>
        <pt x="400" y="1760" on="1"/>
        <pt x="400" y="950" on="1"/>
        <pt x="668" y="1760" on="1"/>
        <pt x="945" y="1760" on="1"/>
        <pt x="653" y="892" on="1"/>
        <pt x="968" y="0" on="1"/>
        <pt x="685" y="0" on="1"/>
        <pt x="402" y="822" on="1"/>
        <pt x="402" y="0" on="1"/>
      </contour>
    </TTGlyph>
    <TTGlyph name="Kcommaaccent" xMin="132" yMin="-732" xMax="968" yMax="1760">
      <component glyphName="uni0326" x="208" y="-170" flags="0x1004"/>
      <component glyphName="K" x="0" y="0" flags="0x1004"/>
    </TTGlyph>
    <TTGlyph name="L" xMin="132" yMin="0" xMax="739" yMax="1760">
      <contour>
        <pt x="132" y="0" on="1"/>
        <pt x="132" y="1760" on="1"/>
        <pt x="400" y="1760" on="1"/>
        <pt x="400" y="228" on="1"/>
        <pt x="739" y="228" on="1"/>
        <pt x="739" y="0" on="1"/>
      </contour>
    </TTGlyph>
    <TTGlyph name="Lacute" xMin="132" yMin="0" xMax="739" yMax="2246">
      <component glyphName="L" x="0" y="0" flags="0x1004"/>
      <component glyphName="acute" x="78" y="135" flags="0x1004"/>
    </TTGlyph>
    <TTGlyph name="Lcaron" xMin="132" yMin="0" xMax="937" yMax="1760">
      <contour>
        <pt x="132" y="0" on="1"/>
        <pt x="132" y="1760" on="1"/>
        <pt x="400" y="1760" on="1"/>
        <pt x="400" y="228" on="1"/>
        <pt x="739" y="228" on="1"/>
        <pt x="739" y="0" on="1"/>
      </contour>
      <contour>
        <pt x="724" y="1173" on="1"/>
        <pt x="780" y="1477" on="1"/>
        <pt x="664" y="1477" on="1"/>
        <pt x="664" y="1741" on="1"/>
        <pt x="937" y="1741" on="1"/>
        <pt x="937" y="1486" on="1"/>
        <pt x="845" y="1173" on="1"/>
      </contour>
    </TTGlyph>
    <TTGlyph name="Lcommaaccent" xMin="132" yMin="-732" xMax="739" yMax="1760">
      <component glyphName="uni0326" x="128" y="-170" flags="0x1004"/>
      <component glyphName="L" x="0" y="0" flags="0x1004"/>
    </TTGlyph>
    <TTGlyph name="Ldot" xMin="132" yMin="0" xMax="767" yMax="1760">
      <component glyphName="periodcentered" x="404" y="238" flags="0x1004"/>
      <component glyphName="L" x="0" y="0" flags="0x1204"/>
    </TTGlyph>
    <TTGlyph name="Lslash" xMin="-1" yMin="0" xMax="739" yMax="1760">
      <contour>
        <pt x="-1" y="732" on="1"/>
        <pt x="-1" y="916" on="1"/>
        <pt x="132" y="965" on="1"/>
        <pt x="132" y="1760" on="1"/>
        <pt x="400" y="1760" on="1"/>
        <pt x="400" y="1065" on="1"/>
        <pt x="615" y="1145" on="1"/>
        <pt x="615" y="961" on="1"/>
        <pt x="400" y="881" on="1"/>
        <pt x="400" y="228" on="1"/>
        <pt x="739" y="228" on="1"/>
        <pt x="739" y="0" on="1"/>
        <pt x="132" y="0" on="1"/>
        <pt x="132" y="781" on="1"/>
      </contour>
    </TTGlyph>
    <TTGlyph name="M" xMin="132" yMin="0" xMax="1285" yMax="1760">
      <contour>
        <pt x="132" y="0" on="1"/>
        <pt x="132" y="1760" on="1"/>
        <pt x="465" y="1760" on="1"/>
        <pt x="715" y="474" on="1"/>
        <pt x="950" y="1760" on="1"/>
        <pt x="1285" y="1760" on="1"/>
        <pt x="1285" y="0" on="1"/>
        <pt x="1046" y="0" on="1"/>
        <pt x="1046" y="656" on="1"/>
        <pt x="1056" y="1258" on="1"/>
        <pt x="819" y="8" on="1"/>
        <pt x="606" y="8" on="1"/>
        <pt x="359" y="1258" on="1"/>
        <pt x="369" y="656" on="1"/>
        <pt x="369" y="0" on="1"/>
      </contour>
    </TTGlyph>
    <TTGlyph name="N" xMin="132" yMin="0" xMax="937" yMax="1760">
      <contour>
        <pt x="132" y="0" on="1"/>
        <pt x="132" y="1760" on="1"/>
        <pt x="342" y="1760" on="1"/>
        <pt x="715" y="704" on="1"/>
        <pt x="696" y="1184" on="1"/>
        <pt x="696" y="1760" on="1"/>
        <pt x="937" y="1760" on="1"/>
        <pt x="937" y="0" on="1"/>
        <pt x="747" y="0" on="1"/>
        <pt x="364" y="1093" on="1"/>
        <pt x="379" y="631" on="1"/>
        <pt x="379" y="0" on="1"/>
      </contour>
    </TTGlyph>
    <TTGlyph name="Nacute" xMin="132" yMin="0" xMax="937" yMax="2246">
      <component glyphName="N" x="0" y="0" flags="0x1004"/>
      <component glyphName="acute" x="228" y="135" flags="0x1004"/>
    </TTGlyph>
    <TTGlyph name="Ncaron" xMin="132" yMin="0" xMax="937" yMax="2206">
      <component glyphName="N" x="0" y="0" flags="0x1004"/>
      <component glyphName="caron" x="50" y="260" flags="0x1004"/>
    </TTGlyph>
    <TTGlyph name="Ncommaaccent" xMin="132" yMin="-732" xMax="937" yMax="1760">
      <component glyphName="uni0326" x="254" y="-170" flags="0x1004"/>
      <component glyphName="N" x="0" y="0" flags="0x1004"/>
    </TTGlyph>
    <TTGlyph name="Ntilde" xMin="132" yMin="0" xMax="937" yMax="2141">
      <component glyphName="tilde" x="-23" y="980" flags="0x1004"/>
      <component glyphName="N" x="0" y="0" flags="0x1004"/>
    </TTGlyph>
    <TTGlyph name="O" xMin="110" yMin="-20" xMax="888" yMax="1781">
      <contour>
        <pt x="380" y="334" on="0"/>
        <pt x="427" y="212" on="0"/>
        <pt x="573" y="212" on="0"/>
        <pt x="619" y="337" on="0"/>
        <pt x="619" y="489" on="1"/>
        <pt x="619" y="1309" on="1"/>
        <pt x="619" y="1434" on="0"/>
        <pt x="572" y="1549" on="0"/>
        <pt x="435" y="1549" on="0"/>
        <pt x="380" y="1434" on="0"/>
        <pt x="380" y="1310" on="1"/>
        <pt x="380" y="489" on="1"/>
      </contour>
      <contour>
        <pt x="888" y="234" on="0"/>
        <pt x="704" y="-20" on="0"/>
        <pt x="299" y="-20" on="0"/>
        <pt x="110" y="235" on="0"/>
        <pt x="110" y="492" on="1"/>
        <pt x="110" y="1297" on="1"/>
        <pt x="110" y="1781" on="0"/>
        <pt x="505" y="1781" on="1"/>
        <pt x="709" y="1781" on="0"/>
        <pt x="888" y="1535" on="0"/>
        <pt x="888" y="1297" on="1"/>
        <pt x="888" y="492" on="1"/>
      </contour>
    </TTGlyph>
    <TTGlyph name="OE" xMin="110" yMin="0" xMax="1153" yMax="1761">
      <contour>
        <pt x="497" y="0" on="1"/>
        <pt x="294" y="0" on="0"/>
        <pt x="110" y="239" on="0"/>
        <pt x="110" y="494" on="1"/>
        <pt x="110" y="1295" on="1"/>
        <pt x="110" y="1529" on="0"/>
        <pt x="294" y="1761" on="0"/>
        <pt x="500" y="1761" on="1"/>
        <pt x="1141" y="1761" on="1"/>
        <pt x="1141" y="1529" on="1"/>
        <pt x="876" y="1529" on="1"/>
        <pt x="876" y="1017" on="1"/>
        <pt x="1125" y="1017" on="1"/>
        <pt x="1125" y="785" on="1"/>
        <pt x="876" y="785" on="1"/>
        <pt x="876" y="231" on="1"/>
        <pt x="1153" y="231" on="1"/>
        <pt x="1153" y="0" on="1"/>
      </contour>
      <contour>
        <pt x="497" y="233" on="1"/>
        <pt x="608" y="233" on="1"/>
        <pt x="608" y="1524" on="1"/>
        <pt x="500" y="1524" on="1"/>
        <pt x="430" y="1524" on="0"/>
        <pt x="378" y="1425" on="0"/>
        <pt x="378" y="1305" on="1"/>
        <pt x="378" y="491" on="1"/>
        <pt x="378" y="339" on="0"/>
        <pt x="422" y="234" on="0"/>
      </contour>
    </TTGlyph>
    <TTGlyph name="Oacute" xMin="110" yMin="-20" xMax="888" yMax="2250">
      <component glyphName="O" x="0" y="0" flags="0x1004"/>
      <component glyphName="acute" x="193" y="139" flags="0x1004"/>
    </TTGlyph>
    <TTGlyph name="Obreve" xMin="110" yMin="-20" xMax="888" yMax="2156">
      <component glyphName="breve" x="-9" y="264" flags="0x1004"/>
      <component glyphName="O" x="0" y="0" flags="0x1004"/>
    </TTGlyph>
    <TTGlyph name="Ocircumflex" xMin="110" yMin="-20" xMax="888" yMax="2209">
      <component glyphName="O" x="0" y="0" flags="0x1004"/>
      <component glyphName="circumflex" x="14" y="264" flags="0x1004"/>
    </TTGlyph>
    <TTGlyph name="Odieresis" xMin="110" yMin="-20" xMax="888" yMax="2113">
      <component glyphName="O" x="0" y="0" flags="0x1004"/>
      <component glyphName="dieresis" x="11" y="984" flags="0x1004"/>
    </TTGlyph>
    <TTGlyph name="Ograve" xMin="110" yMin="-20" xMax="888" yMax="2251">
      <component glyphName="grave" x="190" y="984" flags="0x1004"/>
      <component glyphName="O" x="0" y="0" flags="0x1004"/>
    </TTGlyph>
    <TTGlyph name="Ohungarumlaut" xMin="110" yMin="-20" xMax="929" yMax="2425">
      <component glyphName="O" x="0" y="0" flags="0x1004"/>
      <component glyphName="hungarumlaut" x="-162" y="984" flags="0x1004"/>
    </TTGlyph>
    <TTGlyph name="Omacron" xMin="110" yMin="-20" xMax="888" yMax="2061">
      <component glyphName="O" x="0" y="0" flags="0x1004"/>
      <component glyphName="macron" x="151" y="984" flags="0x1004"/>
    </TTGlyph>
    <TTGlyph name="Oslash" xMin="94" yMin="-206" xMax="929" yMax="1906">
      <contour>
        <pt x="619" y="1328" on="1"/>
        <pt x="617" y="1439" on="0"/>
        <pt x="572" y="1549" on="0"/>
        <pt x="435" y="1549" on="0"/>
        <pt x="380" y="1434" on="0"/>
        <pt x="380" y="1310" on="1"/>
        <pt x="380" y="648" on="1"/>
      </contour>
      <contour>
        <pt x="193" y="-206" on="1"/>
        <pt x="94" y="-166" on="1"/>
        <pt x="195" y="121" on="1"/>
        <pt x="110" y="248" on="0"/>
        <pt x="110" y="492" on="1"/>
        <pt x="110" y="1297" on="1"/>
        <pt x="110" y="1781" on="0"/>
        <pt x="505" y="1781" on="1"/>
        <pt x="663" y="1781" on="0"/>
        <pt x="752" y="1707" on="1"/>
        <pt x="822" y="1906" on="1"/>
        <pt x="929" y="1870" on="1"/>
        <pt x="833" y="1599" on="1"/>
        <pt x="888" y="1483" on="0"/>
        <pt x="888" y="1297" on="1"/>
        <pt x="888" y="492" on="1"/>
        <pt x="888" y="234" on="0"/>
        <pt x="704" y="-20" on="0"/>
        <pt x="502" y="-20" on="1"/>
        <pt x="366" y="-20" on="0"/>
        <pt x="279" y="37" on="1"/>
      </contour>
      <contour>
        <pt x="404" y="273" on="1"/>
        <pt x="428" y="212" on="0"/>
        <pt x="573" y="212" on="0"/>
        <pt x="619" y="337" on="0"/>
        <pt x="619" y="489" on="1"/>
        <pt x="619" y="996" on="1"/>
        <pt x="388" y="343" on="1"/>
        <pt x="394" y="299" on="0"/>
      </contour>
    </TTGlyph>
    <TTGlyph name="Otilde" xMin="110" yMin="-20" xMax="888" yMax="2145">
      <component glyphName="tilde" x="-59" y="984" flags="0x1004"/>
      <component glyphName="O" x="0" y="0" flags="0x1004"/>
    </TTGlyph>
    <TTGlyph name="P" xMin="132" yMin="0" xMax="896" yMax="1760">
      <contour>
        <pt x="132" y="0" on="1"/>
        <pt x="132" y="1760" on="1"/>
        <pt x="536" y="1760" on="1"/>
        <pt x="741" y="1760" on="0"/>
        <pt x="892" y="1511" on="0"/>
        <pt x="896" y="1264" on="1"/>
        <pt x="896" y="1227" on="1"/>
        <pt x="896" y="965" on="0"/>
        <pt x="747" y="694" on="0"/>
        <pt x="545" y="694" on="1"/>
        <pt x="400" y="694" on="1"/>
        <pt x="400" y="0" on="1"/>
      </contour>
      <contour>
        <pt x="400" y="915" on="1"/>
        <pt x="492" y="915" on="1"/>
        <pt x="577" y="915" on="0"/>
        <pt x="628" y="1046" on="0"/>
        <pt x="628" y="1230" on="1"/>
        <pt x="628" y="1264" on="1"/>
        <pt x="627" y="1420" on="0"/>
        <pt x="574" y="1554" on="0"/>
        <pt x="494" y="1554" on="1"/>
        <pt x="400" y="1554" on="1"/>
      </contour>
    </TTGlyph>
    <TTGlyph name="Q" xMin="110" yMin="-292" xMax="888" yMax="1781">
      <contour>
        <pt x="888" y="492" on="1"/>
        <pt x="888" y="109" on="0"/>
        <pt x="684" y="15" on="1"/>
        <pt x="848" y="-177" on="1"/>
        <pt x="716" y="-292" on="1"/>
        <pt x="465" y="-19" on="1"/>
        <pt x="290" y="-8" on="0"/>
        <pt x="110" y="235" on="0"/>
        <pt x="110" y="492" on="1"/>
        <pt x="110" y="1297" on="1"/>
        <pt x="110" y="1781" on="0"/>
        <pt x="505" y="1781" on="1"/>
        <pt x="709" y="1781" on="0"/>
        <pt x="888" y="1535" on="0"/>
        <pt x="888" y="1297" on="1"/>
      </contour>
      <contour>
        <pt x="380" y="334" on="0"/>
        <pt x="427" y="212" on="0"/>
        <pt x="573" y="212" on="0"/>
        <pt x="619" y="337" on="0"/>
        <pt x="619" y="489" on="1"/>
        <pt x="619" y="1309" on="1"/>
        <pt x="619" y="1434" on="0"/>
        <pt x="572" y="1549" on="0"/>
        <pt x="435" y="1549" on="0"/>
        <pt x="380" y="1434" on="0"/>
        <pt x="380" y="1310" on="1"/>
        <pt x="380" y="489" on="1"/>
      </contour>
    </TTGlyph>
    <TTGlyph name="R" xMin="132" yMin="0" xMax="905" yMax="1760">
      <contour>
        <pt x="486" y="827" on="1"/>
        <pt x="400" y="831" on="1"/>
        <pt x="400" y="0" on="1"/>
        <pt x="132" y="0" on="1"/>
        <pt x="132" y="1760" on="1"/>
        <pt x="575" y="1760" on="1"/>
        <pt x="713" y="1760" on="0"/>
        <pt x="849" y="1649" on="0"/>
        <pt x="892" y="1450" on="0"/>
        <pt x="892" y="1129" on="0"/>
        <pt x="824" y="961" on="0"/>
        <pt x="732" y="932" on="1"/>
        <pt x="823" y="916" on="0"/>
        <pt x="895" y="702" on="0"/>
        <pt x="895" y="25" on="0"/>
        <pt x="905" y="0" on="1"/>
        <pt x="637" y="0" on="1"/>
        <pt x="627" y="20" on="0"/>
        <pt x="627" y="631" on="1"/>
        <pt x="627" y="748" on="0"/>
        <pt x="571" y="825" on="0"/>
      </contour>
      <contour>
        <pt x="401" y="1039" on="1"/>
        <pt x="508" y="1039" on="1"/>
        <pt x="559" y="1039" on="0"/>
        <pt x="608" y="1085" on="0"/>
        <pt x="627" y="1197" on="0"/>
        <pt x="627" y="1312" on="1"/>
        <pt x="627" y="1323" on="1"/>
        <pt x="627" y="1466" on="0"/>
        <pt x="579" y="1554" on="0"/>
        <pt x="492" y="1554" on="1"/>
        <pt x="401" y="1554" on="1"/>
      </contour>
    </TTGlyph>
    <TTGlyph name="Racute" xMin="132" yMin="0" xMax="905" yMax="2246">
      <component glyphName="R" x="0" y="0" flags="0x1004"/>
      <component glyphName="acute" x="202" y="135" flags="0x1004"/>
    </TTGlyph>
    <TTGlyph name="Rcaron" xMin="132" yMin="0" xMax="905" yMax="2206">
      <component glyphName="R" x="0" y="0" flags="0x1004"/>
      <component glyphName="caron" x="24" y="260" flags="0x1004"/>
    </TTGlyph>
    <TTGlyph name="Rcommaaccent" xMin="132" yMin="-732" xMax="905" yMax="1760">
      <component glyphName="uni0326" x="228" y="-170" flags="0x1004"/>
      <component glyphName="R" x="0" y="0" flags="0x1004"/>
    </TTGlyph>
    <TTGlyph name="S" xMin="95" yMin="-20" xMax="841" yMax="1781">
      <contour>
        <pt x="97" y="495" on="1"/>
        <pt x="97" y="652" on="1"/>
        <pt x="351" y="652" on="1"/>
        <pt x="351" y="475" on="1"/>
        <pt x="351" y="328" on="0"/>
        <pt x="401" y="209" on="0"/>
        <pt x="539" y="209" on="0"/>
        <pt x="584" y="307" on="0"/>
        <pt x="584" y="529" on="0"/>
        <pt x="504" y="694" on="0"/>
        <pt x="417" y="784" on="1"/>
        <pt x="287" y="918" on="1"/>
        <pt x="196" y="1013" on="0"/>
        <pt x="95" y="1217" on="0"/>
        <pt x="95" y="1351" on="1"/>
        <pt x="95" y="1569" on="0"/>
        <pt x="263" y="1781" on="0"/>
        <pt x="673" y="1781" on="0"/>
        <pt x="818" y="1534" on="0"/>
        <pt x="818" y="1297" on="1"/>
        <pt x="818" y="1188" on="1"/>
        <pt x="571" y="1188" on="1"/>
        <pt x="571" y="1314" on="1"/>
        <pt x="571" y="1442" on="0"/>
        <pt x="527" y="1553" on="0"/>
        <pt x="402" y="1553" on="0"/>
        <pt x="347" y="1469" on="0"/>
        <pt x="347" y="1301" on="0"/>
        <pt x="403" y="1201" on="0"/>
        <pt x="476" y="1123" on="1"/>
        <pt x="621" y="966" on="1"/>
        <pt x="730" y="848" on="0"/>
        <pt x="841" y="606" on="0"/>
        <pt x="841" y="463" on="1"/>
        <pt x="841" y="216" on="0"/>
        <pt x="675" y="-20" on="0"/>
        <pt x="260" y="-20" on="0"/>
        <pt x="97" y="243" on="0"/>
      </contour>
    </TTGlyph>
    <TTGlyph name="Sacute" xMin="95" yMin="-20" xMax="841" yMax="2245">
      <component glyphName="S" x="0" y="0" flags="0x1004"/>
      <component glyphName="acute" x="173" y="134" flags="0x1004"/>
    </TTGlyph>
    <TTGlyph name="Scaron" xMin="95" yMin="-20" xMax="841" yMax="2204">
      <component glyphName="S" x="0" y="0" flags="0x1004"/>
      <component glyphName="caron" x="-5" y="258" flags="0x1004"/>
    </TTGlyph>
    <TTGlyph name="Scedilla" xMin="95" yMin="-638" xMax="841" yMax="1781">
      <component glyphName="cedilla" x="-58" y="0" flags="0x1004"/>
      <component glyphName="S" x="0" y="0" flags="0x1004"/>
    </TTGlyph>
    <TTGlyph name="Scircumflex" xMin="95" yMin="-20" xMax="841" yMax="2203">
      <component glyphName="S" x="0" y="0" flags="0x1004"/>
      <component glyphName="circumflex" x="-5" y="258" flags="0x1004"/>
    </TTGlyph>
    <TTGlyph name="Scommaaccent" xMin="95" yMin="-732" xMax="841" yMax="1781">
      <component glyphName="uni0326" x="176" y="-170" flags="0x1004"/>
      <component glyphName="S" x="0" y="0" flags="0x1004"/>
    </TTGlyph>
    <TTGlyph name="T" xMin="16" yMin="0" xMax="687" yMax="1760">
      <contour>
        <pt x="222" y="0" on="1"/>
        <pt x="222" y="1528" on="1"/>
        <pt x="16" y="1528" on="1"/>
        <pt x="16" y="1760" on="1"/>
        <pt x="687" y="1760" on="1"/>
        <pt x="687" y="1528" on="1"/>
        <pt x="489" y="1528" on="1"/>
        <pt x="489" y="0" on="1"/>
      </contour>
    </TTGlyph>
    <TTGlyph name="Tcaron" xMin="12" yMin="0" xMax="691" yMax="2206">
      <component glyphName="T" x="0" y="0" flags="0x1004"/>
      <component glyphName="caron" x="-133" y="260" flags="0x1004"/>
    </TTGlyph>
    <TTGlyph name="Thorn" xMin="146" yMin="0" xMax="910" yMax="1761">
      <contour>
        <pt x="146" y="0" on="1"/>
        <pt x="146" y="1761" on="1"/>
        <pt x="414" y="1761" on="1"/>
        <pt x="414" y="1497" on="1"/>
        <pt x="550" y="1497" on="1"/>
        <pt x="757" y="1497" on="0"/>
        <pt x="906" y="1236" on="0"/>
        <pt x="910" y="981" on="1"/>
        <pt x="910" y="953" on="1"/>
        <pt x="910" y="538" on="0"/>
        <pt x="730" y="444" on="1"/>
        <pt x="661" y="408" on="0"/>
        <pt x="559" y="408" on="1"/>
        <pt x="414" y="408" on="1"/>
        <pt x="414" y="0" on="1"/>
      </contour>
      <contour>
        <pt x="414" y="630" on="1"/>
        <pt x="506" y="630" on="1"/>
        <pt x="590" y="630" on="0"/>
        <pt x="642" y="770" on="0"/>
        <pt x="642" y="955" on="1"/>
        <pt x="642" y="979" on="1"/>
        <pt x="642" y="1143" on="0"/>
        <pt x="589" y="1290" on="0"/>
        <pt x="508" y="1290" on="1"/>
        <pt x="414" y="1290" on="1"/>
      </contour>
    </TTGlyph>
    <TTGlyph name="U" xMin="122" yMin="-20" xMax="898" yMax="1761">
      <contour>
        <pt x="898" y="209" on="0"/>
        <pt x="714" y="-20" on="0"/>
        <pt x="307" y="-20" on="0"/>
        <pt x="122" y="210" on="0"/>
        <pt x="122" y="452" on="1"/>
        <pt x="122" y="1761" on="1"/>
        <pt x="390" y="1761" on="1"/>
        <pt x="390" y="457" on="1"/>
        <pt x="390" y="318" on="0"/>
        <pt x="416" y="258" on="0"/>
        <pt x="453" y="209" on="0"/>
        <pt x="569" y="209" on="0"/>
        <pt x="619" y="277" on="0"/>
        <pt x="630" y="378" on="0"/>
        <pt x="630" y="457" on="1"/>
        <pt x="630" y="1761" on="1"/>
        <pt x="898" y="1761" on="1"/>
        <pt x="898" y="452" on="1"/>
      </contour>
    </TTGlyph>
    <TTGlyph name="Uacute" xMin="122" yMin="-20" xMax="898" yMax="2244">
      <component glyphName="U" x="0" y="0" flags="0x1004"/>
      <component glyphName="acute" x="208" y="133" flags="0x1004"/>
    </TTGlyph>
    <TTGlyph name="Ubreve" xMin="122" yMin="-20" xMax="898" yMax="2149">
      <component glyphName="breve" x="2" y="257" flags="0x1004"/>
      <component glyphName="U" x="0" y="0" flags="0x1004"/>
    </TTGlyph>
    <TTGlyph name="Ucircumflex" xMin="122" yMin="-20" xMax="898" yMax="2202">
      <component glyphName="U" x="0" y="0" flags="0x1004"/>
      <component glyphName="circumflex" x="30" y="257" flags="0x1004"/>
    </TTGlyph>
    <TTGlyph name="Udieresis" xMin="122" yMin="-20" xMax="898" yMax="2106">
      <component glyphName="U" x="0" y="0" flags="0x1004"/>
      <component glyphName="dieresis" x="27" y="977" flags="0x1004"/>
    </TTGlyph>
    <TTGlyph name="Ugrave" xMin="122" yMin="-20" xMax="898" yMax="2244">
      <component glyphName="grave" x="201" y="977" flags="0x1004"/>
      <component glyphName="U" x="0" y="0" flags="0x1004"/>
    </TTGlyph>
    <TTGlyph name="Uhungarumlaut" xMin="122" yMin="-20" xMax="940" yMax="2418">
      <component glyphName="hungarumlaut" x="-151" y="977" flags="0x1004"/>
      <component glyphName="U" x="0" y="0" flags="0x1004"/>
    </TTGlyph>
    <TTGlyph name="Umacron" xMin="122" yMin="-20" xMax="898" yMax="2054">
      <component glyphName="macron" x="162" y="977" flags="0x1004"/>
      <component glyphName="U" x="0" y="0" flags="0x1004"/>
    </TTGlyph>
    <TTGlyph name="Uogonek" xMin="122" yMin="-622" xMax="898" yMax="1761">
      <component glyphName="U" x="0" y="0" flags="0x1004"/>
      <component glyphName="ogonek" x="-117" y="4" flags="0x1004"/>
    </TTGlyph>
    <TTGlyph name="Uring" xMin="122" yMin="-20" xMax="898" yMax="2331">
      <component glyphName="U" x="0" y="0" flags="0x1004"/>
      <component glyphName="ring" x="53" y="977" flags="0x1004"/>
    </TTGlyph>
    <TTGlyph name="Utilde" xMin="122" yMin="-20" xMax="898" yMax="2138">
      <component glyphName="tilde" x="-48" y="977" flags="0x1004"/>
      <component glyphName="U" x="0" y="0" flags="0x1004"/>
    </TTGlyph>
    <TTGlyph name="V" xMin="56" yMin="0" xMax="911" yMax="1760">
      <contour>
        <pt x="329" y="0" on="1"/>
        <pt x="56" y="1760" on="1"/>
        <pt x="311" y="1760" on="1"/>
        <pt x="426" y="965" on="1"/>
        <pt x="497" y="405" on="1"/>
        <pt x="504" y="405" on="1"/>
        <pt x="565" y="965" on="1"/>
        <pt x="661" y="1760" on="1"/>
        <pt x="911" y="1760" on="1"/>
        <pt x="660" y="0" on="1"/>
      </contour>
    </TTGlyph>
    <TTGlyph name="W" xMin="60" yMin="0" xMax="1329" yMax="1760">
      <contour>
        <pt x="275" y="0" on="1"/>
        <pt x="60" y="1760" on="1"/>
        <pt x="300" y="1760" on="1"/>
        <pt x="429" y="506" on="1"/>
        <pt x="593" y="1760" on="1"/>
        <pt x="809" y="1760" on="1"/>
        <pt x="974" y="506" on="1"/>
        <pt x="1088" y="1760" on="1"/>
        <pt x="1329" y="1760" on="1"/>
        <pt x="1127" y="0" on="1"/>
        <pt x="860" y="0" on="1"/>
        <pt x="704" y="1170" on="1"/>
        <pt x="542" y="0" on="1"/>
      </contour>
    </TTGlyph>
    <TTGlyph name="Wacute" xMin="60" yMin="0" xMax="1329" yMax="2246">
      <component glyphName="W" x="0" y="0" flags="0x1004"/>
      <component glyphName="acute" x="399" y="135" flags="0x1004"/>
    </TTGlyph>
    <TTGlyph name="Wcircumflex" xMin="60" yMin="0" xMax="1329" yMax="2205">
      <component glyphName="W" x="0" y="0" flags="0x1004"/>
      <component glyphName="circumflex" x="220" y="260" flags="0x1004"/>
    </TTGlyph>
    <TTGlyph name="Wdieresis" xMin="60" yMin="0" xMax="1329" yMax="2109">
      <component glyphName="W" x="0" y="0" flags="0x1004"/>
      <component glyphName="dieresis" x="217" y="980" flags="0x1004"/>
    </TTGlyph>
    <TTGlyph name="Wgrave" xMin="60" yMin="0" xMax="1329" yMax="2247">
      <component glyphName="grave" x="390" y="980" flags="0x1004"/>
      <component glyphName="W" x="0" y="0" flags="0x1004"/>
    </TTGlyph>
    <TTGlyph name="X" xMin="35" yMin="0" xMax="850" yMax="1760">
      <contour>
        <pt x="618" y="0" on="1"/>
        <pt x="439" y="541" on="1"/>
        <pt x="294" y="0" on="1"/>
        <pt x="35" y="0" on="1"/>
        <pt x="306" y="944" on="1"/>
        <pt x="36" y="1760" on="1"/>
        <pt x="262" y="1760" on="1"/>
        <pt x="437" y="1237" on="1"/>
        <pt x="578" y="1760" on="1"/>
        <pt x="829" y="1760" on="1"/>
        <pt x="563" y="859" on="1"/>
        <pt x="850" y="0" on="1"/>
      </contour>
    </TTGlyph>
    <TTGlyph name="Y" xMin="9" yMin="0" xMax="853" yMax="1760">
      <contour>
        <pt x="304" y="0" on="1"/>
        <pt x="304" y="703" on="1"/>
        <pt x="9" y="1760" on="1"/>
        <pt x="265" y="1760" on="1"/>
        <pt x="439" y="1102" on="1"/>
        <pt x="443" y="1102" on="1"/>
        <pt x="598" y="1760" on="1"/>
        <pt x="853" y="1760" on="1"/>
        <pt x="572" y="703" on="1"/>
        <pt x="572" y="0" on="1"/>
      </contour>
    </TTGlyph>
    <TTGlyph name="Yacute" xMin="9" yMin="0" xMax="853" yMax="2246">
      <component glyphName="acute" x="128" y="135" flags="0x1004"/>
      <component glyphName="Y" x="0" y="0" flags="0x1004"/>
    </TTGlyph>
    <TTGlyph name="Ycircumflex" xMin="9" yMin="0" xMax="853" yMax="2205">
      <component glyphName="circumflex" x="-50" y="260" flags="0x1004"/>
      <component glyphName="Y" x="0" y="0" flags="0x1004"/>
    </TTGlyph>
    <TTGlyph name="Ydieresis" xMin="9" yMin="0" xMax="853" yMax="2109">
      <component glyphName="dieresis" x="-53" y="980" flags="0x1004"/>
      <component glyphName="Y" x="0" y="0" flags="0x1004"/>
    </TTGlyph>
    <TTGlyph name="Ygrave" xMin="9" yMin="0" xMax="853" yMax="2247">
      <component glyphName="grave" x="126" y="980" flags="0x1004"/>
      <component glyphName="Y" x="0" y="0" flags="0x1004"/>
    </TTGlyph>
    <TTGlyph name="Z" xMin="98" yMin="0" xMax="744" yMax="1760">
      <contour>
        <pt x="98" y="0" on="1"/>
        <pt x="98" y="238" on="1"/>
        <pt x="463" y="1529" on="1"/>
        <pt x="131" y="1529" on="1"/>
        <pt x="131" y="1760" on="1"/>
        <pt x="744" y="1760" on="1"/>
        <pt x="744" y="1543" on="1"/>
        <pt x="379" y="231" on="1"/>
        <pt x="736" y="231" on="1"/>
        <pt x="736" y="0" on="1"/>
      </contour>
    </TTGlyph>
    <TTGlyph name="Zacute" xMin="98" yMin="0" xMax="744" yMax="2246">
      <component glyphName="Z" x="0" y="0" flags="0x1004"/>
      <component glyphName="acute" x="143" y="135" flags="0x1004"/>
    </TTGlyph>
    <TTGlyph name="Zcaron" xMin="98" yMin="0" xMax="789" yMax="2206">
      <component glyphName="Z" x="0" y="0" flags="0x1004"/>
      <component glyphName="caron" x="-35" y="260" flags="0x1004"/>
    </TTGlyph>
    <TTGlyph name="Zdotaccent" xMin="98" yMin="0" xMax="744" yMax="2102">
      <component glyphName="dotaccent" x="164" y="980" flags="0x1004"/>
      <component glyphName="Z" x="0" y="0" flags="0x1004"/>
    </TTGlyph>
    <TTGlyph name="a" xMin="107" yMin="-15" xMax="862" yMax="1518">
      <contour>
        <pt x="591" y="814" on="1"/>
        <pt x="465" y="758" on="0"/>
        <pt x="377" y="658" on="0"/>
        <pt x="377" y="553" on="1"/>
        <pt x="377" y="392" on="1"/>
        <pt x="377" y="287" on="0"/>
        <pt x="421" y="196" on="0"/>
        <pt x="520" y="196" on="0"/>
        <pt x="583" y="263" on="0"/>
        <pt x="591" y="305" on="1"/>
      </contour>
      <contour>
        <pt x="382" y="-15" on="1"/>
        <pt x="235" y="-15" on="0"/>
        <pt x="109" y="196" on="0"/>
        <pt x="107" y="394" on="1"/>
        <pt x="107" y="490" on="1"/>
        <pt x="107" y="682" on="0"/>
        <pt x="211" y="781" on="1"/>
        <pt x="278" y="846" on="0"/>
        <pt x="438" y="907" on="1"/>
        <pt x="467" y="918" on="0"/>
        <pt x="570" y="956" on="0"/>
        <pt x="591" y="964" on="1"/>
        <pt x="591" y="1095" on="1"/>
        <pt x="591" y="1217" on="0"/>
        <pt x="556" y="1304" on="0"/>
        <pt x="431" y="1304" on="0"/>
        <pt x="389" y="1212" on="0"/>
        <pt x="389" y="1103" on="1"/>
        <pt x="389" y="1036" on="1"/>
        <pt x="127" y="1036" on="1"/>
        <pt x="127" y="1081" on="1"/>
        <pt x="127" y="1294" on="0"/>
        <pt x="286" y="1518" on="0"/>
        <pt x="691" y="1518" on="0"/>
        <pt x="862" y="1294" on="0"/>
        <pt x="862" y="1070" on="1"/>
        <pt x="862" y="0" on="1"/>
        <pt x="595" y="0" on="1"/>
        <pt x="595" y="149" on="1"/>
        <pt x="575" y="80" on="0"/>
        <pt x="462" y="-15" on="0"/>
      </contour>
    </TTGlyph>
    <TTGlyph name="aacute" xMin="107" yMin="-15" xMax="862" yMax="1986">
      <component glyphName="acute" x="203" y="-125" flags="0x1004"/>
      <component glyphName="a" x="0" y="0" flags="0x1004"/>
    </TTGlyph>
    <TTGlyph name="abreve" xMin="107" yMin="-15" xMax="862" yMax="1892">
      <component glyphName="breve" x="2" y="0" flags="0x1004"/>
      <component glyphName="a" x="0" y="0" flags="0x1004"/>
    </TTGlyph>
    <TTGlyph name="acircumflex" xMin="107" yMin="-15" xMax="862" yMax="1945">
      <component glyphName="circumflex" x="25" y="0" flags="0x1004"/>
      <component glyphName="a" x="0" y="0" flags="0x1004"/>
    </TTGlyph>
    <TTGlyph name="acute" xMin="101" yMin="1763" xMax="542" yMax="2111">
      <contour>
        <pt x="101" y="1763" on="1"/>
        <pt x="101" y="1919" on="1"/>
        <pt x="542" y="2111" on="1"/>
        <pt x="542" y="1853" on="1"/>
      </contour>
    </TTGlyph>
    <TTGlyph name="adieresis" xMin="107" yMin="-15" xMax="893" yMax="1849">
      <component glyphName="dieresis" x="22" y="720" flags="0x1004"/>
      <component glyphName="a" x="0" y="0" flags="0x1004"/>
    </TTGlyph>
    <TTGlyph name="ae" xMin="107" yMin="-18" xMax="1339" yMax="1518">
      <contour>
        <pt x="1075" y="464" on="1"/>
        <pt x="1074" y="548" on="1"/>
        <pt x="1074" y="569" on="1"/>
        <pt x="1337" y="569" on="1"/>
        <pt x="1337" y="499" on="1"/>
        <pt x="1337" y="296" on="0"/>
        <pt x="1278" y="114" on="0"/>
        <pt x="1240" y="72" on="1"/>
        <pt x="1157" y="-18" on="0"/>
        <pt x="985" y="-18" on="1"/>
        <pt x="888" y="-18" on="0"/>
        <pt x="751" y="60" on="0"/>
        <pt x="718" y="128" on="1"/>
        <pt x="680" y="69" on="0"/>
        <pt x="527" y="-15" on="0"/>
        <pt x="438" y="-15" on="1"/>
        <pt x="276" y="-15" on="0"/>
        <pt x="107" y="205" on="0"/>
        <pt x="107" y="406" on="1"/>
        <pt x="107" y="506" on="1"/>
        <pt x="109" y="646" on="0"/>
        <pt x="181" y="756" on="1"/>
        <pt x="206" y="794" on="0"/>
        <pt x="346" y="874" on="0"/>
        <pt x="425" y="907" on="0"/>
        <pt x="571" y="961" on="0"/>
        <pt x="592" y="969" on="1"/>
        <pt x="592" y="1003" on="0"/>
        <pt x="592" y="1050" on="0"/>
        <pt x="592" y="1175" on="0"/>
        <pt x="556" y="1304" on="0"/>
        <pt x="432" y="1304" on="0"/>
        <pt x="389" y="1217" on="0"/>
        <pt x="389" y="1109" on="1"/>
        <pt x="389" y="1036" on="1"/>
        <pt x="128" y="1036" on="1"/>
        <pt x="127" y="1042" on="0"/>
        <pt x="127" y="1116" on="1"/>
        <pt x="127" y="1294" on="0"/>
        <pt x="286" y="1518" on="0"/>
        <pt x="501" y="1518" on="1"/>
        <pt x="663" y="1518" on="0"/>
        <pt x="730" y="1409" on="1"/>
        <pt x="807" y="1518" on="0"/>
        <pt x="1182" y="1518" on="0"/>
        <pt x="1339" y="1276" on="0"/>
        <pt x="1339" y="1053" on="1"/>
        <pt x="1339" y="752" on="0"/>
        <pt x="1337" y="726" on="1"/>
        <pt x="860" y="726" on="1"/>
        <pt x="860" y="472" on="1"/>
        <pt x="860" y="325" on="0"/>
        <pt x="906" y="196" on="0"/>
        <pt x="1023" y="196" on="0"/>
        <pt x="1043" y="235" on="1"/>
        <pt x="1075" y="296" on="0"/>
      </contour>
      <contour>
        <pt x="377" y="288" on="0"/>
        <pt x="421" y="197" on="0"/>
        <pt x="520" y="197" on="0"/>
        <pt x="583" y="264" on="0"/>
        <pt x="591" y="306" on="1"/>
        <pt x="591" y="803" on="1"/>
        <pt x="524" y="773" on="0"/>
        <pt x="488" y="753" on="1"/>
        <pt x="452" y="734" on="0"/>
        <pt x="424" y="704" on="1"/>
        <pt x="377" y="654" on="0"/>
        <pt x="377" y="544" on="1"/>
        <pt x="377" y="393" on="1"/>
      </contour>
      <contour>
        <pt x="860" y="906" on="1"/>
        <pt x="1074" y="906" on="1"/>
        <pt x="1074" y="1079" on="1"/>
        <pt x="1074" y="1202" on="0"/>
        <pt x="1035" y="1309" on="0"/>
        <pt x="922" y="1309" on="0"/>
        <pt x="903" y="1284" on="1"/>
        <pt x="872" y="1242" on="0"/>
        <pt x="860" y="1140" on="0"/>
        <pt x="860" y="1057" on="1"/>
      </contour>
    </TTGlyph>
    <TTGlyph name="agrave" xMin="107" yMin="-15" xMax="862" yMax="1987">
      <component glyphName="grave" x="201" y="720" flags="0x1004"/>
      <component glyphName="a" x="0" y="0" flags="0x1004"/>
    </TTGlyph>
    <TTGlyph name="amacron" xMin="107" yMin="-15" xMax="862" yMax="1797">
      <component glyphName="macron" x="162" y="720" flags="0x1004"/>
      <component glyphName="a" x="0" y="0" flags="0x1004"/>
    </TTGlyph>
    <TTGlyph name="ampersand" xMin="73" yMin="-20" xMax="1041" yMax="1781">
      <contour>
        <pt x="442" y="706" on="1"/>
        <pt x="300" y="516" on="0"/>
        <pt x="300" y="388" on="1"/>
        <pt x="336" y="252" on="0"/>
        <pt x="439" y="209" on="1"/>
        <pt x="481" y="209" on="0"/>
        <pt x="555" y="277" on="0"/>
        <pt x="597" y="346" on="1"/>
        <pt x="518" y="524" on="0"/>
      </contour>
      <contour>
        <pt x="351" y="930" on="1"/>
        <pt x="208" y="1300" on="0"/>
        <pt x="208" y="1598" on="0"/>
        <pt x="382" y="1781" on="0"/>
        <pt x="688" y="1781" on="0"/>
        <pt x="847" y="1603" on="0"/>
        <pt x="847" y="1306" on="0"/>
        <pt x="724" y="1063" on="0"/>
        <pt x="613" y="922" on="1"/>
        <pt x="656" y="809" on="0"/>
        <pt x="742" y="601" on="1"/>
        <pt x="838" y="762" on="0"/>
        <pt x="932" y="874" on="1"/>
        <pt x="1041" y="690" on="1"/>
        <pt x="963" y="604" on="0"/>
        <pt x="852" y="391" on="1"/>
        <pt x="844" y="376" on="0"/>
        <pt x="840" y="369" on="1"/>
        <pt x="878" y="279" on="0"/>
        <pt x="987" y="27" on="0"/>
        <pt x="998" y="0" on="1"/>
        <pt x="750" y="0" on="1"/>
        <pt x="737" y="32" on="0"/>
        <pt x="693" y="130" on="1"/>
        <pt x="568" y="-20" on="0"/>
        <pt x="243" y="-20" on="0"/>
        <pt x="73" y="187" on="0"/>
        <pt x="73" y="525" on="0"/>
        <pt x="233" y="792" on="0"/>
      </contour>
      <contour>
        <pt x="530" y="1144" on="1"/>
        <pt x="662" y="1315" on="0"/>
        <pt x="662" y="1438" on="1"/>
        <pt x="662" y="1526" on="0"/>
        <pt x="618" y="1600" on="0"/>
        <pt x="561" y="1600" on="1"/>
        <pt x="451" y="1600" on="0"/>
        <pt x="451" y="1441" on="1"/>
        <pt x="451" y="1368" on="0"/>
      </contour>
    </TTGlyph>
    <TTGlyph name="aogonek" xMin="107" yMin="-622" xMax="872" yMax="1518">
      <component glyphName="ogonek" x="60" y="4" flags="0x1004"/>
      <component glyphName="a" x="0" y="0" flags="0x1004"/>
    </TTGlyph>
    <TTGlyph name="approxequal" xMin="105" yMin="326" xMax="1014" yMax="1193">
      <contour>
        <pt x="713" y="326" on="0"/>
        <pt x="424" y="431" on="0"/>
        <pt x="316" y="431" on="0"/>
        <pt x="277" y="338" on="1"/>
        <pt x="105" y="419" on="1"/>
        <pt x="186" y="686" on="0"/>
        <pt x="352" y="686" on="1"/>
        <pt x="409" y="686" on="0"/>
        <pt x="708" y="589" on="0"/>
        <pt x="722" y="589" on="1"/>
        <pt x="794" y="589" on="0"/>
        <pt x="827" y="700" on="1"/>
        <pt x="1014" y="658" on="1"/>
        <pt x="994" y="579" on="0"/>
        <pt x="947" y="492" on="1"/>
        <pt x="856" y="326" on="0"/>
        <pt x="771" y="326" on="1"/>
      </contour>
      <contour>
        <pt x="713" y="819" on="0"/>
        <pt x="424" y="924" on="0"/>
        <pt x="316" y="924" on="0"/>
        <pt x="277" y="831" on="1"/>
        <pt x="105" y="912" on="1"/>
        <pt x="186" y="1179" on="0"/>
        <pt x="352" y="1179" on="1"/>
        <pt x="409" y="1179" on="0"/>
        <pt x="708" y="1082" on="0"/>
        <pt x="722" y="1082" on="1"/>
        <pt x="794" y="1082" on="0"/>
        <pt x="827" y="1193" on="1"/>
        <pt x="1014" y="1151" on="1"/>
        <pt x="994" y="1072" on="0"/>
        <pt x="947" y="985" on="1"/>
        <pt x="856" y="819" on="0"/>
        <pt x="771" y="819" on="1"/>
      </contour>
    </TTGlyph>
    <TTGlyph name="aring" xMin="107" yMin="-15" xMax="862" yMax="2074">
      <component glyphName="ring" x="48" y="720" flags="0x1004"/>
      <component glyphName="a" x="0" y="0" flags="0x1004"/>
    </TTGlyph>
    <TTGlyph name="asciicircum" xMin="114" yMin="576" xMax="915" yMax="1499">
      <contour>
        <pt x="114" y="576" on="1"/>
        <pt x="355" y="1499" on="1"/>
        <pt x="674" y="1499" on="1"/>
        <pt x="915" y="576" on="1"/>
        <pt x="659" y="576" on="1"/>
        <pt x="515" y="1288" on="1"/>
        <pt x="371" y="576" on="1"/>
      </contour>
    </TTGlyph>
    <TTGlyph name="asciitilde" xMin="100" yMin="810" xMax="1009" yMax="1183">
      <contour>
        <pt x="894" y="889" on="0"/>
        <pt x="808" y="810" on="0"/>
        <pt x="708" y="810" on="0"/>
        <pt x="419" y="914" on="0"/>
        <pt x="333" y="914" on="0"/>
        <pt x="294" y="872" on="0"/>
        <pt x="272" y="821" on="1"/>
        <pt x="100" y="903" on="1"/>
        <pt x="180" y="1169" on="0"/>
        <pt x="347" y="1169" on="1"/>
        <pt x="404" y="1169" on="0"/>
        <pt x="705" y="1073" on="0"/>
        <pt x="718" y="1073" on="1"/>
        <pt x="788" y="1073" on="0"/>
        <pt x="823" y="1183" on="1"/>
        <pt x="1009" y="1141" on="1"/>
        <pt x="989" y="1061" on="0"/>
      </contour>
    </TTGlyph>
    <TTGlyph name="asterisk" xMin="91" yMin="889" xMax="869" yMax="1673">
      <contour>
        <pt x="386" y="889" on="1"/>
        <pt x="421" y="1180" on="1"/>
        <pt x="190" y="998" on="1"/>
        <pt x="95" y="1162" on="1"/>
        <pt x="355" y="1285" on="1"/>
        <pt x="91" y="1400" on="1"/>
        <pt x="186" y="1564" on="1"/>
        <pt x="420" y="1391" on="1"/>
        <pt x="386" y="1673" on="1"/>
        <pt x="574" y="1673" on="1"/>
        <pt x="546" y="1395" on="1"/>
        <pt x="774" y="1568" on="1"/>
        <pt x="869" y="1404" on="1"/>
        <pt x="605" y="1285" on="1"/>
        <pt x="869" y="1158" on="1"/>
        <pt x="774" y="995" on="1"/>
        <pt x="546" y="1174" on="1"/>
        <pt x="574" y="889" on="1"/>
      </contour>
    </TTGlyph>
    <TTGlyph name="at" xMin="97" yMin="-59" xMax="1396" yMax="1780">
      <contour>
        <pt x="736" y="-59" on="1"/>
        <pt x="429" y="-59" on="0"/>
        <pt x="97" y="383" on="0"/>
        <pt x="97" y="836" on="1"/>
        <pt x="97" y="1438" on="0"/>
        <pt x="411" y="1664" on="1"/>
        <pt x="573" y="1780" on="0"/>
        <pt x="813" y="1780" on="1"/>
        <pt x="1100" y="1780" on="0"/>
        <pt x="1396" y="1327" on="0"/>
        <pt x="1396" y="910" on="1"/>
        <pt x="1396" y="660" on="0"/>
        <pt x="1258" y="378" on="0"/>
        <pt x="1114" y="378" on="1"/>
        <pt x="1050" y="378" on="0"/>
        <pt x="938" y="495" on="0"/>
        <pt x="915" y="597" on="1"/>
        <pt x="896" y="486" on="0"/>
        <pt x="793" y="361" on="0"/>
        <pt x="719" y="361" on="1"/>
        <pt x="600" y="361" on="0"/>
        <pt x="445" y="579" on="0"/>
        <pt x="445" y="1022" on="0"/>
        <pt x="590" y="1283" on="0"/>
        <pt x="717" y="1283" on="1"/>
        <pt x="776" y="1283" on="0"/>
        <pt x="872" y="1213" on="0"/>
        <pt x="896" y="1161" on="1"/>
        <pt x="927" y="1283" on="1"/>
        <pt x="1056" y="1283" on="1"/>
        <pt x="1056" y="739" on="1"/>
        <pt x="1056" y="640" on="0"/>
        <pt x="1089" y="544" on="0"/>
        <pt x="1166" y="544" on="0"/>
        <pt x="1186" y="580" on="1"/>
        <pt x="1226" y="650" on="0"/>
        <pt x="1227" y="942" on="1"/>
        <pt x="1227" y="1609" on="0"/>
        <pt x="800" y="1609" on="1"/>
        <pt x="543" y="1609" on="0"/>
        <pt x="293" y="1205" on="0"/>
        <pt x="293" y="458" on="0"/>
        <pt x="514" y="110" on="0"/>
        <pt x="739" y="110" on="1"/>
        <pt x="840" y="110" on="0"/>
        <pt x="932" y="138" on="1"/>
        <pt x="959" y="-30" on="1"/>
        <pt x="816" y="-59" on="0"/>
      </contour>
      <contour>
        <pt x="761" y="1100" on="1"/>
        <pt x="618" y="1100" on="0"/>
        <pt x="618" y="804" on="1"/>
        <pt x="618" y="547" on="0"/>
        <pt x="748" y="547" on="1"/>
        <pt x="806" y="547" on="0"/>
        <pt x="888" y="664" on="0"/>
        <pt x="888" y="759" on="1"/>
        <pt x="888" y="1062" on="1"/>
        <pt x="814" y="1100" on="0"/>
      </contour>
    </TTGlyph>
    <TTGlyph name="atilde" xMin="107" yMin="-15" xMax="862" yMax="1881">
      <component glyphName="tilde" x="-48" y="720" flags="0x1004"/>
      <component glyphName="a" x="0" y="0" flags="0x1004"/>
    </TTGlyph>
    <TTGlyph name="b" xMin="132" yMin="-16" xMax="886" yMax="1775">
      <contour>
        <pt x="397" y="140" on="1"/>
        <pt x="397" y="0" on="1"/>
        <pt x="132" y="0" on="1"/>
        <pt x="132" y="1775" on="1"/>
        <pt x="397" y="1775" on="1"/>
        <pt x="397" y="1392" on="1"/>
        <pt x="419" y="1448" on="0"/>
        <pt x="529" y="1518" on="0"/>
        <pt x="593" y="1518" on="1"/>
        <pt x="785" y="1518" on="0"/>
        <pt x="846" y="1346" on="1"/>
        <pt x="885" y="1236" on="0"/>
        <pt x="885" y="1069" on="1"/>
        <pt x="885" y="434" on="1"/>
        <pt x="885" y="432" on="0"/>
        <pt x="885" y="430" on="1"/>
        <pt x="885" y="105" on="0"/>
        <pt x="740" y="18" on="1"/>
        <pt x="686" y="-15" on="0"/>
        <pt x="614" y="-15" on="1"/>
        <pt x="612" y="-15" on="0"/>
        <pt x="609" y="-15" on="1"/>
        <pt x="456" y="-13" on="0"/>
      </contour>
      <contour>
        <pt x="397" y="320" on="0"/>
        <pt x="445" y="197" on="0"/>
        <pt x="580" y="197" on="0"/>
        <pt x="619" y="316" on="0"/>
        <pt x="619" y="459" on="1"/>
        <pt x="619" y="1073" on="1"/>
        <pt x="619" y="1252" on="0"/>
        <pt x="572" y="1288" on="1"/>
        <pt x="551" y="1304" on="0"/>
        <pt x="518" y="1304" on="1"/>
        <pt x="453" y="1304" on="0"/>
        <pt x="397" y="1204" on="0"/>
        <pt x="397" y="1074" on="1"/>
        <pt x="397" y="456" on="1"/>
      </contour>
    </TTGlyph>
    <TTGlyph name="backslash" xMin="96" yMin="0" xMax="744" yMax="1761">
      <contour>
        <pt x="507" y="0" on="1"/>
        <pt x="96" y="1761" on="1"/>
        <pt x="334" y="1761" on="1"/>
        <pt x="744" y="0" on="1"/>
      </contour>
    </TTGlyph>
    <TTGlyph name="bar" xMin="150" yMin="-84" xMax="393" yMax="1863">
      <contour>
        <pt x="150" y="-84" on="1"/>
        <pt x="150" y="1863" on="1"/>
        <pt x="393" y="1863" on="1"/>
        <pt x="393" y="-84" on="1"/>
      </contour>
    </TTGlyph>
    <TTGlyph name="braceleft" xMin="133" yMin="-121" xMax="674" yMax="1781">
      <contour>
        <pt x="614" y="-121" on="1"/>
        <pt x="425" y="-121" on="0"/>
        <pt x="272" y="24" on="0"/>
        <pt x="272" y="217" on="1"/>
        <pt x="272" y="492" on="1"/>
        <pt x="272" y="655" on="0"/>
        <pt x="204" y="710" on="0"/>
        <pt x="133" y="710" on="1"/>
        <pt x="133" y="950" on="1"/>
        <pt x="204" y="950" on="0"/>
        <pt x="254" y="990" on="0"/>
        <pt x="272" y="1066" on="0"/>
        <pt x="272" y="1168" on="1"/>
        <pt x="272" y="1443" on="1"/>
        <pt x="272" y="1636" on="0"/>
        <pt x="425" y="1781" on="0"/>
        <pt x="614" y="1781" on="1"/>
        <pt x="674" y="1781" on="1"/>
        <pt x="674" y="1582" on="1"/>
        <pt x="585" y="1582" on="0"/>
        <pt x="535" y="1525" on="0"/>
        <pt x="535" y="1430" on="1"/>
        <pt x="535" y="1184" on="1"/>
        <pt x="535" y="1053" on="0"/>
        <pt x="510" y="921" on="0"/>
        <pt x="445" y="851" on="0"/>
        <pt x="376" y="830" on="1"/>
        <pt x="445" y="809" on="0"/>
        <pt x="510" y="739" on="0"/>
        <pt x="535" y="607" on="0"/>
        <pt x="535" y="476" on="1"/>
        <pt x="535" y="230" on="1"/>
        <pt x="535" y="135" on="0"/>
        <pt x="585" y="78" on="0"/>
        <pt x="674" y="78" on="1"/>
        <pt x="674" y="-121" on="1"/>
      </contour>
    </TTGlyph>
    <TTGlyph name="braceright" xMin="133" yMin="-121" xMax="674" yMax="1781">
      <contour>
        <pt x="133" y="-121" on="1"/>
        <pt x="133" y="78" on="1"/>
        <pt x="222" y="78" on="0"/>
        <pt x="272" y="135" on="0"/>
        <pt x="272" y="230" on="1"/>
        <pt x="272" y="476" on="1"/>
        <pt x="272" y="607" on="0"/>
        <pt x="297" y="739" on="0"/>
        <pt x="363" y="809" on="0"/>
        <pt x="432" y="830" on="1"/>
        <pt x="363" y="851" on="0"/>
        <pt x="297" y="921" on="0"/>
        <pt x="272" y="1053" on="0"/>
        <pt x="272" y="1184" on="1"/>
        <pt x="272" y="1430" on="1"/>
        <pt x="272" y="1525" on="0"/>
        <pt x="222" y="1582" on="0"/>
        <pt x="133" y="1582" on="1"/>
        <pt x="133" y="1781" on="1"/>
        <pt x="193" y="1781" on="1"/>
        <pt x="382" y="1781" on="0"/>
        <pt x="535" y="1636" on="0"/>
        <pt x="535" y="1443" on="1"/>
        <pt x="535" y="1168" on="1"/>
        <pt x="535" y="1005" on="0"/>
        <pt x="603" y="950" on="0"/>
        <pt x="674" y="950" on="1"/>
        <pt x="674" y="710" on="1"/>
        <pt x="603" y="710" on="0"/>
        <pt x="553" y="670" on="0"/>
        <pt x="535" y="594" on="0"/>
        <pt x="535" y="492" on="1"/>
        <pt x="535" y="217" on="1"/>
        <pt x="535" y="24" on="0"/>
        <pt x="382" y="-121" on="0"/>
        <pt x="193" y="-121" on="1"/>
      </contour>
    </TTGlyph>
    <TTGlyph name="bracketleft" xMin="179" yMin="0" xMax="650" yMax="1761">
      <contour>
        <pt x="179" y="0" on="1"/>
        <pt x="179" y="1761" on="1"/>
        <pt x="650" y="1761" on="1"/>
        <pt x="650" y="1552" on="1"/>
        <pt x="445" y="1552" on="1"/>
        <pt x="445" y="209" on="1"/>
        <pt x="650" y="209" on="1"/>
        <pt x="650" y="0" on="1"/>
      </contour>
    </TTGlyph>
    <TTGlyph name="bracketright" xMin="135" yMin="0" xMax="606" yMax="1761">
      <contour>
        <pt x="135" y="0" on="1"/>
        <pt x="135" y="209" on="1"/>
        <pt x="340" y="209" on="1"/>
        <pt x="340" y="1552" on="1"/>
        <pt x="135" y="1552" on="1"/>
        <pt x="135" y="1761" on="1"/>
        <pt x="606" y="1761" on="1"/>
        <pt x="606" y="0" on="1"/>
      </contour>
    </TTGlyph>
    <TTGlyph name="breve" xMin="225" yMin="1615" xMax="789" yMax="1892">
      <contour>
        <pt x="789" y="1879" on="1"/>
        <pt x="789" y="1615" on="0"/>
        <pt x="225" y="1615" on="0"/>
        <pt x="225" y="1877" on="1"/>
        <pt x="225" y="1892" on="1"/>
        <pt x="375" y="1892" on="1"/>
        <pt x="375" y="1816" on="0"/>
        <pt x="444" y="1762" on="0"/>
        <pt x="570" y="1762" on="0"/>
        <pt x="638" y="1815" on="0"/>
        <pt x="638" y="1892" on="1"/>
        <pt x="789" y="1892" on="1"/>
      </contour>
    </TTGlyph>
    <TTGlyph name="brokenbar" xMin="122" yMin="-84" xMax="408" yMax="1761">
      <contour>
        <pt x="122" y="-84" on="1"/>
        <pt x="122" y="724" on="1"/>
        <pt x="408" y="724" on="1"/>
        <pt x="408" y="-84" on="1"/>
      </contour>
      <contour>
        <pt x="122" y="931" on="1"/>
        <pt x="122" y="1761" on="1"/>
        <pt x="408" y="1761" on="1"/>
        <pt x="408" y="931" on="1"/>
      </contour>
    </TTGlyph>
    <TTGlyph name="bullet" xMin="165" yMin="451" xMax="696" yMax="1031">
      <contour>
        <pt x="557" y="451" on="0"/>
        <pt x="303" y="451" on="0"/>
        <pt x="165" y="605" on="0"/>
        <pt x="165" y="877" on="0"/>
        <pt x="303" y="1031" on="0"/>
        <pt x="557" y="1031" on="0"/>
        <pt x="696" y="877" on="0"/>
        <pt x="696" y="605" on="0"/>
      </contour>
    </TTGlyph>
    <TTGlyph name="c" xMin="110" yMin="-18" xMax="847" yMax="1518">
      <contour>
        <pt x="494" y="-18" on="1"/>
        <pt x="269" y="-18" on="0"/>
        <pt x="110" y="248" on="0"/>
        <pt x="110" y="500" on="1"/>
        <pt x="110" y="986" on="1"/>
        <pt x="110" y="1313" on="0"/>
        <pt x="224" y="1427" on="1"/>
        <pt x="315" y="1518" on="0"/>
        <pt x="683" y="1518" on="0"/>
        <pt x="847" y="1295" on="0"/>
        <pt x="847" y="1085" on="1"/>
        <pt x="847" y="920" on="1"/>
        <pt x="591" y="920" on="1"/>
        <pt x="591" y="1094" on="1"/>
        <pt x="591" y="1231" on="0"/>
        <pt x="542" y="1301" on="0"/>
        <pt x="426" y="1301" on="0"/>
        <pt x="377" y="1197" on="0"/>
        <pt x="377" y="1090" on="1"/>
        <pt x="377" y="414" on="1"/>
        <pt x="377" y="303" on="0"/>
        <pt x="422" y="199" on="0"/>
        <pt x="487" y="199" on="1"/>
        <pt x="576" y="200" on="0"/>
        <pt x="588" y="324" on="1"/>
        <pt x="591" y="353" on="0"/>
        <pt x="591" y="392" on="1"/>
        <pt x="591" y="402" on="0"/>
        <pt x="591" y="413" on="1"/>
        <pt x="591" y="591" on="1"/>
        <pt x="847" y="591" on="1"/>
        <pt x="847" y="439" on="1"/>
        <pt x="847" y="219" on="0"/>
        <pt x="683" y="-18" on="0"/>
      </contour>
    </TTGlyph>
    <TTGlyph name="cacute" xMin="110" yMin="-18" xMax="847" yMax="1986">
      <component glyphName="c" x="0" y="0" flags="0x1004"/>
      <component glyphName="acute" x="195" y="-125" flags="0x1004"/>
    </TTGlyph>
    <TTGlyph name="caron" xMin="145" yMin="1608" xMax="824" yMax="1946">
      <contour>
        <pt x="334" y="1608" on="1"/>
        <pt x="145" y="1946" on="1"/>
        <pt x="399" y="1946" on="1"/>
        <pt x="485" y="1709" on="1"/>
        <pt x="571" y="1946" on="1"/>
        <pt x="824" y="1946" on="1"/>
        <pt x="636" y="1608" on="1"/>
      </contour>
    </TTGlyph>
    <TTGlyph name="ccaron" xMin="110" yMin="-18" xMax="847" yMax="1946">
      <component glyphName="c" x="0" y="0" flags="0x1004"/>
      <component glyphName="caron" x="17" y="0" flags="0x1004"/>
    </TTGlyph>
    <TTGlyph name="ccedilla" xMin="110" yMin="-638" xMax="847" yMax="1518">
      <component glyphName="cedilla" x="-43" y="0" flags="0x1004"/>
      <component glyphName="c" x="0" y="0" flags="0x1004"/>
    </TTGlyph>
    <TTGlyph name="ccircumflex" xMin="110" yMin="-18" xMax="847" yMax="1945">
      <component glyphName="c" x="0" y="0" flags="0x1004"/>
      <component glyphName="circumflex" x="17" y="0" flags="0x1004"/>
    </TTGlyph>
    <TTGlyph name="cdotaccent" xMin="110" yMin="-18" xMax="847" yMax="1842">
      <component glyphName="dotaccent" x="216" y="720" flags="0x1004"/>
      <component glyphName="c" x="0" y="0" flags="0x1004"/>
    </TTGlyph>
    <TTGlyph name="cedilla" xMin="317" yMin="-638" xMax="753" yMax="0">
      <contour>
        <pt x="317" y="-501" on="1"/>
        <pt x="548" y="-501" on="0"/>
        <pt x="548" y="-360" on="1"/>
        <pt x="548" y="-296" on="0"/>
        <pt x="455" y="-211" on="0"/>
        <pt x="388" y="-196" on="1"/>
        <pt x="428" y="0" on="1"/>
        <pt x="510" y="0" on="1"/>
        <pt x="525" y="-141" on="1"/>
        <pt x="753" y="-219" on="0"/>
        <pt x="753" y="-405" on="1"/>
        <pt x="753" y="-496" on="0"/>
        <pt x="598" y="-638" on="0"/>
        <pt x="466" y="-638" on="1"/>
        <pt x="388" y="-638" on="0"/>
        <pt x="317" y="-612" on="1"/>
      </contour>
    </TTGlyph>
    <TTGlyph name="cent" xMin="110" yMin="-251" xMax="847" yMax="1766">
      <contour>
        <pt x="529" y="-17" on="1"/>
        <pt x="529" y="-251" on="1"/>
        <pt x="416" y="-251" on="1"/>
        <pt x="416" y="-13" on="1"/>
        <pt x="254" y="8" on="0"/>
        <pt x="110" y="248" on="0"/>
        <pt x="110" y="500" on="1"/>
        <pt x="110" y="986" on="1"/>
        <pt x="110" y="1313" on="0"/>
        <pt x="224" y="1427" on="1"/>
        <pt x="293" y="1496" on="0"/>
        <pt x="416" y="1513" on="1"/>
        <pt x="416" y="1766" on="1"/>
        <pt x="529" y="1766" on="1"/>
        <pt x="529" y="1517" on="1"/>
        <pt x="690" y="1508" on="0"/>
        <pt x="847" y="1295" on="0"/>
        <pt x="847" y="1085" on="1"/>
        <pt x="847" y="920" on="1"/>
        <pt x="591" y="920" on="1"/>
        <pt x="591" y="1094" on="1"/>
        <pt x="591" y="1231" on="0"/>
        <pt x="542" y="1301" on="0"/>
        <pt x="426" y="1301" on="0"/>
        <pt x="377" y="1197" on="0"/>
        <pt x="377" y="1090" on="1"/>
        <pt x="377" y="414" on="1"/>
        <pt x="377" y="303" on="0"/>
        <pt x="422" y="199" on="0"/>
        <pt x="487" y="199" on="1"/>
        <pt x="576" y="200" on="0"/>
        <pt x="588" y="324" on="1"/>
        <pt x="591" y="353" on="0"/>
        <pt x="591" y="392" on="1"/>
        <pt x="591" y="402" on="0"/>
        <pt x="591" y="413" on="1"/>
        <pt x="591" y="591" on="1"/>
        <pt x="847" y="591" on="1"/>
        <pt x="847" y="439" on="1"/>
        <pt x="847" y="219" on="0"/>
        <pt x="691" y="-7" on="0"/>
      </contour>
    </TTGlyph>
    <TTGlyph name="circumflex" xMin="145" yMin="1608" xMax="824" yMax="1945">
      <contour>
        <pt x="145" y="1608" on="1"/>
        <pt x="334" y="1945" on="1"/>
        <pt x="636" y="1945" on="1"/>
        <pt x="824" y="1608" on="1"/>
        <pt x="571" y="1608" on="1"/>
        <pt x="485" y="1844" on="1"/>
        <pt x="399" y="1608" on="1"/>
      </contour>
    </TTGlyph>
    <TTGlyph name="colon" xMin="136" yMin="270" xMax="419" yMax="1307">
      <contour>
        <pt x="136" y="270" on="1"/>
        <pt x="136" y="539" on="1"/>
        <pt x="419" y="539" on="1"/>
        <pt x="419" y="270" on="1"/>
      </contour>
      <contour>
        <pt x="136" y="1038" on="1"/>
        <pt x="136" y="1307" on="1"/>
        <pt x="419" y="1307" on="1"/>
        <pt x="419" y="1038" on="1"/>
      </contour>
    </TTGlyph>
    <TTGlyph name="comma" xMin="117" yMin="-338" xMax="405" yMax="268">
      <contour>
        <pt x="172" y="-338" on="1"/>
        <pt x="242" y="0" on="1"/>
        <pt x="117" y="0" on="1"/>
        <pt x="117" y="268" on="1"/>
        <pt x="405" y="268" on="1"/>
        <pt x="405" y="9" on="1"/>
        <pt x="303" y="-338" on="1"/>
      </contour>
    </TTGlyph>
    <TTGlyph name="copyright" xMin="76" yMin="204" xMax="1390" yMax="1518">
      <contour>
        <pt x="951" y="529" on="0"/>
        <pt x="850" y="423" on="0"/>
        <pt x="626" y="423" on="0"/>
        <pt x="497" y="543" on="0"/>
        <pt x="497" y="647" on="1"/>
        <pt x="497" y="1048" on="1"/>
        <pt x="497" y="1304" on="0"/>
        <pt x="736" y="1304" on="1"/>
        <pt x="838" y="1304" on="0"/>
        <pt x="947" y="1203" on="0"/>
        <pt x="947" y="1104" on="1"/>
        <pt x="947" y="951" on="1"/>
        <pt x="782" y="951" on="1"/>
        <pt x="782" y="1052" on="1"/>
        <pt x="782" y="1129" on="0"/>
        <pt x="736" y="1129" on="1"/>
        <pt x="710" y="1129" on="0"/>
        <pt x="692" y="1097" on="0"/>
        <pt x="692" y="1065" on="1"/>
        <pt x="692" y="656" on="1"/>
        <pt x="692" y="631" on="0"/>
        <pt x="716" y="591" on="0"/>
        <pt x="736" y="591" on="1"/>
        <pt x="782" y="591" on="0"/>
        <pt x="782" y="656" on="1"/>
        <pt x="782" y="805" on="1"/>
        <pt x="951" y="805" on="1"/>
        <pt x="951" y="642" on="1"/>
      </contour>
      <contour>
        <pt x="592" y="333" on="0"/>
        <pt x="874" y="333" on="0"/>
        <pt x="1104" y="475" on="0"/>
        <pt x="1231" y="717" on="0"/>
        <pt x="1231" y="1005" on="0"/>
        <pt x="1104" y="1247" on="0"/>
        <pt x="874" y="1389" on="0"/>
        <pt x="592" y="1389" on="0"/>
        <pt x="362" y="1247" on="0"/>
        <pt x="235" y="1005" on="0"/>
        <pt x="235" y="717" on="0"/>
        <pt x="362" y="475" on="0"/>
      </contour>
      <contour>
        <pt x="917" y="204" on="0"/>
        <pt x="549" y="204" on="0"/>
        <pt x="248" y="376" on="0"/>
        <pt x="76" y="677" on="0"/>
        <pt x="76" y="1045" on="0"/>
        <pt x="248" y="1346" on="0"/>
        <pt x="549" y="1518" on="0"/>
        <pt x="917" y="1518" on="0"/>
        <pt x="1218" y="1346" on="0"/>
        <pt x="1390" y="1045" on="0"/>
        <pt x="1390" y="677" on="0"/>
        <pt x="1218" y="376" on="0"/>
      </contour>
    </TTGlyph>
    <TTGlyph name="currency" xMin="125" yMin="509" xMax="1034" yMax="1418">
      <contour>
        <pt x="274" y="509" on="1"/>
        <pt x="125" y="659" on="1"/>
        <pt x="216" y="750" on="1"/>
        <pt x="163" y="848" on="0"/>
        <pt x="163" y="1081" on="0"/>
        <pt x="215" y="1178" on="1"/>
        <pt x="125" y="1268" on="1"/>
        <pt x="274" y="1418" on="1"/>
        <pt x="361" y="1330" on="1"/>
        <pt x="458" y="1385" on="0"/>
        <pt x="700" y="1385" on="0"/>
        <pt x="797" y="1331" on="1"/>
        <pt x="884" y="1418" on="1"/>
        <pt x="1034" y="1269" on="1"/>
        <pt x="944" y="1179" on="1"/>
        <pt x="998" y="1082" on="0"/>
        <pt x="998" y="846" on="0"/>
        <pt x="944" y="748" on="1"/>
        <pt x="1034" y="658" on="1"/>
        <pt x="884" y="509" on="1"/>
        <pt x="795" y="597" on="1"/>
        <pt x="703" y="545" on="0"/>
        <pt x="455" y="545" on="0"/>
        <pt x="363" y="598" on="1"/>
      </contour>
      <contour>
        <pt x="486" y="741" on="0"/>
        <pt x="672" y="741" on="0"/>
        <pt x="788" y="871" on="0"/>
        <pt x="788" y="1062" on="0"/>
        <pt x="674" y="1186" on="0"/>
        <pt x="486" y="1186" on="0"/>
        <pt x="371" y="1058" on="0"/>
        <pt x="371" y="869" on="0"/>
      </contour>
    </TTGlyph>
    <TTGlyph name="d" xMin="110" yMin="-15" xMax="866" yMax="1775">
      <contour>
        <pt x="386" y="-15" on="1"/>
        <pt x="265" y="-15" on="0"/>
        <pt x="145" y="121" on="0"/>
        <pt x="110" y="330" on="0"/>
        <pt x="110" y="479" on="1"/>
        <pt x="110" y="1090" on="1"/>
        <pt x="110" y="1278" on="0"/>
        <pt x="248" y="1518" on="0"/>
        <pt x="407" y="1518" on="1"/>
        <pt x="469" y="1518" on="0"/>
        <pt x="572" y="1458" on="0"/>
        <pt x="601" y="1407" on="1"/>
        <pt x="601" y="1775" on="1"/>
        <pt x="866" y="1775" on="1"/>
        <pt x="866" y="0" on="1"/>
        <pt x="601" y="0" on="1"/>
        <pt x="601" y="139" on="1"/>
        <pt x="541" y="-15" on="0"/>
      </contour>
      <contour>
        <pt x="377" y="319" on="0"/>
        <pt x="424" y="196" on="0"/>
        <pt x="553" y="196" on="0"/>
        <pt x="602" y="319" on="0"/>
        <pt x="602" y="463" on="1"/>
        <pt x="602" y="1063" on="1"/>
        <pt x="602" y="1248" on="0"/>
        <pt x="546" y="1287" on="1"/>
        <pt x="522" y="1303" on="0"/>
        <pt x="488" y="1303" on="1"/>
        <pt x="421" y="1303" on="0"/>
        <pt x="377" y="1181" on="0"/>
        <pt x="377" y="1060" on="1"/>
        <pt x="377" y="443" on="1"/>
      </contour>
    </TTGlyph>
    <TTGlyph name="dagger" xMin="91" yMin="0" xMax="818" yMax="1592">
      <contour>
        <pt x="321" y="0" on="1"/>
        <pt x="321" y="965" on="1"/>
        <pt x="91" y="965" on="1"/>
        <pt x="91" y="1182" on="1"/>
        <pt x="321" y="1182" on="1"/>
        <pt x="321" y="1592" on="1"/>
        <pt x="591" y="1592" on="1"/>
        <pt x="591" y="1182" on="1"/>
        <pt x="818" y="1182" on="1"/>
        <pt x="818" y="965" on="1"/>
        <pt x="591" y="965" on="1"/>
        <pt x="591" y="0" on="1"/>
      </contour>
    </TTGlyph>
    <TTGlyph name="daggerdbl" xMin="91" yMin="0" xMax="818" yMax="1592">
      <contour>
        <pt x="321" y="664" on="1"/>
        <pt x="321" y="965" on="1"/>
        <pt x="91" y="965" on="1"/>
        <pt x="91" y="1182" on="1"/>
        <pt x="321" y="1182" on="1"/>
        <pt x="321" y="1592" on="1"/>
        <pt x="591" y="1592" on="1"/>
        <pt x="591" y="1182" on="1"/>
        <pt x="818" y="1182" on="1"/>
        <pt x="818" y="965" on="1"/>
        <pt x="591" y="965" on="1"/>
        <pt x="591" y="664" on="1"/>
        <pt x="818" y="664" on="1"/>
        <pt x="818" y="447" on="1"/>
        <pt x="591" y="447" on="1"/>
        <pt x="591" y="0" on="1"/>
        <pt x="321" y="0" on="1"/>
        <pt x="321" y="447" on="1"/>
        <pt x="91" y="447" on="1"/>
        <pt x="91" y="664" on="1"/>
      </contour>
    </TTGlyph>
    <TTGlyph name="dcaron" xMin="110" yMin="-15" xMax="1360" yMax="1775">
      <component glyphName="d" x="0" y="0" flags="0x1004"/>
      <component glyphName="quoteright" x="882" y="0" flags="0x1004"/>
    </TTGlyph>
    <TTGlyph name="dcroat" xMin="110" yMin="-15" xMax="971" yMax="1775">
      <component glyphName="d" x="0" y="0" flags="0x1004"/>
      <component glyphName="macron" x="374" y="614" flags="0x1004"/>
    </TTGlyph>
    <TTGlyph name="degree" xMin="104" yMin="931" xMax="811" yMax="1607">
      <contour>
        <pt x="393" y="1112" on="0"/>
        <pt x="523" y="1112" on="0"/>
        <pt x="600" y="1202" on="0"/>
        <pt x="600" y="1336" on="0"/>
        <pt x="523" y="1426" on="0"/>
        <pt x="393" y="1426" on="0"/>
        <pt x="316" y="1336" on="0"/>
        <pt x="316" y="1202" on="0"/>
      </contour>
      <contour>
        <pt x="619" y="931" on="0"/>
        <pt x="295" y="931" on="0"/>
        <pt x="104" y="1111" on="0"/>
        <pt x="104" y="1426" on="0"/>
        <pt x="295" y="1607" on="0"/>
        <pt x="619" y="1607" on="0"/>
        <pt x="811" y="1426" on="0"/>
        <pt x="811" y="1112" on="0"/>
      </contour>
    </TTGlyph>
    <TTGlyph name="dieresis" xMin="105" yMin="903" xMax="871" yMax="1129">
      <contour>
        <pt x="105" y="903" on="1"/>
        <pt x="105" y="1129" on="1"/>
        <pt x="387" y="1129" on="1"/>
        <pt x="387" y="903" on="1"/>
      </contour>
      <contour>
        <pt x="589" y="903" on="1"/>
        <pt x="589" y="1129" on="1"/>
        <pt x="871" y="1129" on="1"/>
        <pt x="871" y="903" on="1"/>
      </contour>
    </TTGlyph>
    <TTGlyph name="divide" xMin="94" yMin="237" xMax="710" yMax="1274">
      <contour>
        <pt x="253" y="237" on="1"/>
        <pt x="253" y="535" on="1"/>
        <pt x="551" y="535" on="1"/>
        <pt x="551" y="237" on="1"/>
      </contour>
      <contour>
        <pt x="94" y="638" on="1"/>
        <pt x="94" y="870" on="1"/>
        <pt x="710" y="870" on="1"/>
        <pt x="710" y="638" on="1"/>
      </contour>
      <contour>
        <pt x="253" y="976" on="1"/>
        <pt x="253" y="1274" on="1"/>
        <pt x="551" y="1274" on="1"/>
        <pt x="551" y="976" on="1"/>
      </contour>
    </TTGlyph>
    <TTGlyph name="dollar" xMin="82" yMin="-220" xMax="801" yMax="1760">
      <contour>
        <pt x="801" y="387" on="1"/>
        <pt x="801" y="62" on="0"/>
        <pt x="549" y="12" on="1"/>
        <pt x="549" y="-220" on="1"/>
        <pt x="405" y="-220" on="1"/>
        <pt x="405" y="4" on="1"/>
        <pt x="251" y="14" on="0"/>
        <pt x="87" y="212" on="0"/>
        <pt x="87" y="443" on="1"/>
        <pt x="87" y="540" on="1"/>
        <pt x="336" y="540" on="1"/>
        <pt x="336" y="419" on="1"/>
        <pt x="336" y="219" on="0"/>
        <pt x="438" y="219" on="1"/>
        <pt x="492" y="219" on="0"/>
        <pt x="540" y="290" on="0"/>
        <pt x="540" y="375" on="1"/>
        <pt x="540" y="525" on="0"/>
        <pt x="402" y="653" on="1"/>
        <pt x="398" y="657" on="0"/>
        <pt x="277" y="765" on="0"/>
        <pt x="267" y="775" on="1"/>
        <pt x="82" y="944" on="0"/>
        <pt x="82" y="1172" on="1"/>
        <pt x="82" y="1519" on="0"/>
        <pt x="396" y="1539" on="1"/>
        <pt x="396" y="1760" on="1"/>
        <pt x="540" y="1760" on="1"/>
        <pt x="540" y="1530" on="1"/>
        <pt x="638" y="1508" on="0"/>
        <pt x="694" y="1440" on="1"/>
        <pt x="775" y="1341" on="0"/>
        <pt x="775" y="1111" on="1"/>
        <pt x="775" y="1108" on="0"/>
        <pt x="775" y="1105" on="1"/>
        <pt x="775" y="1023" on="1"/>
        <pt x="538" y="1023" on="1"/>
        <pt x="538" y="1122" on="1"/>
        <pt x="538" y="1224" on="0"/>
        <pt x="492" y="1323" on="0"/>
        <pt x="385" y="1323" on="0"/>
        <pt x="334" y="1261" on="0"/>
        <pt x="334" y="1186" on="1"/>
        <pt x="334" y="1067" on="0"/>
        <pt x="440" y="965" on="1"/>
        <pt x="582" y="836" on="1"/>
        <pt x="801" y="632" on="0"/>
      </contour>
    </TTGlyph>
    <TTGlyph name="dotaccent" xMin="153" yMin="896" xMax="424" yMax="1122">
      <contour>
        <pt x="153" y="896" on="1"/>
        <pt x="153" y="1122" on="1"/>
        <pt x="424" y="1122" on="1"/>
        <pt x="424" y="896" on="1"/>
      </contour>
    </TTGlyph>
    <TTGlyph name="dotlessi" xMin="136" yMin="0" xMax="401" yMax="1500">
      <contour>
        <pt x="136" y="0" on="1"/>
        <pt x="136" y="1500" on="1"/>
        <pt x="401" y="1500" on="1"/>
        <pt x="401" y="0" on="1"/>
      </contour>
    </TTGlyph>
    <TTGlyph name="e" xMin="110" yMin="-18" xMax="854" yMax="1518">
      <contour>
        <pt x="482" y="-18" on="1"/>
        <pt x="229" y="-18" on="0"/>
        <pt x="156" y="175" on="1"/>
        <pt x="110" y="298" on="0"/>
        <pt x="110" y="499" on="1"/>
        <pt x="110" y="1058" on="1"/>
        <pt x="110" y="1518" on="0"/>
        <pt x="493" y="1518" on="1"/>
        <pt x="697" y="1518" on="0"/>
        <pt x="854" y="1276" on="0"/>
        <pt x="854" y="1053" on="1"/>
        <pt x="854" y="732" on="1"/>
        <pt x="377" y="732" on="1"/>
        <pt x="377" y="437" on="1"/>
        <pt x="377" y="281" on="0"/>
        <pt x="431" y="196" on="0"/>
        <pt x="539" y="196" on="0"/>
        <pt x="555" y="221" on="1"/>
        <pt x="582" y="265" on="0"/>
        <pt x="590" y="357" on="0"/>
        <pt x="590" y="437" on="1"/>
        <pt x="590" y="569" on="1"/>
        <pt x="852" y="569" on="1"/>
        <pt x="852" y="489" on="1"/>
        <pt x="852" y="285" on="0"/>
        <pt x="788" y="107" on="0"/>
        <pt x="746" y="67" on="1"/>
        <pt x="658" y="-18" on="0"/>
      </contour>
      <contour>
        <pt x="376" y="887" on="1"/>
        <pt x="590" y="887" on="1"/>
        <pt x="590" y="1079" on="1"/>
        <pt x="590" y="1202" on="0"/>
        <pt x="551" y="1309" on="0"/>
        <pt x="491" y="1309" on="1"/>
        <pt x="490" y="1309" on="0"/>
        <pt x="490" y="1309" on="1"/>
        <pt x="386" y="1309" on="0"/>
        <pt x="378" y="1150" on="1"/>
        <pt x="376" y="1120" on="0"/>
        <pt x="376" y="1072" on="1"/>
      </contour>
    </TTGlyph>
    <TTGlyph name="eacute" xMin="110" yMin="-18" xMax="854" yMax="1986">
      <component glyphName="e" x="0" y="0" flags="0x1004"/>
      <component glyphName="acute" x="180" y="-125" flags="0x1004"/>
    </TTGlyph>
    <TTGlyph name="ebreve" xMin="110" yMin="-18" xMax="854" yMax="1891">
      <component glyphName="breve" x="-22" y="-1" flags="0x1004"/>
      <component glyphName="e" x="0" y="0" flags="0x1004"/>
    </TTGlyph>
    <TTGlyph name="ecaron" xMin="110" yMin="-18" xMax="854" yMax="1945">
      <component glyphName="e" x="0" y="0" flags="0x1004"/>
      <component glyphName="caron" x="1" y="-1" flags="0x1004"/>
    </TTGlyph>
    <TTGlyph name="ecircumflex" xMin="110" yMin="-18" xMax="854" yMax="1944">
      <component glyphName="e" x="0" y="0" flags="0x1004"/>
      <component glyphName="circumflex" x="1" y="-1" flags="0x1004"/>
    </TTGlyph>
    <TTGlyph name="edieresis" xMin="103" yMin="-18" xMax="869" yMax="1848">
      <component glyphName="e" x="0" y="0" flags="0x1004"/>
      <component glyphName="dieresis" x="-2" y="719" flags="0x1004"/>
    </TTGlyph>
    <TTGlyph name="edotaccent" xMin="110" yMin="-18" xMax="854" yMax="1841">
      <component glyphName="dotaccent" x="200" y="719" flags="0x1004"/>
      <component glyphName="e" x="0" y="0" flags="0x1004"/>
    </TTGlyph>
    <TTGlyph name="egrave" xMin="110" yMin="-18" xMax="854" yMax="1986">
      <component glyphName="grave" x="177" y="719" flags="0x1004"/>
      <component glyphName="e" x="0" y="0" flags="0x1004"/>
    </TTGlyph>
    <TTGlyph name="eight" xMin="92" yMin="-21" xMax="858" yMax="1781">
      <contour>
        <pt x="671" y="-21" on="0"/>
        <pt x="287" y="-21" on="0"/>
        <pt x="96" y="202" on="0"/>
        <pt x="93" y="431" on="1"/>
        <pt x="92" y="438" on="0"/>
        <pt x="92" y="693" on="0"/>
        <pt x="172" y="913" on="0"/>
        <pt x="241" y="961" on="1"/>
        <pt x="100" y="1061" on="0"/>
        <pt x="100" y="1341" on="1"/>
        <pt x="100" y="1572" on="0"/>
        <pt x="279" y="1781" on="0"/>
        <pt x="682" y="1781" on="0"/>
        <pt x="856" y="1577" on="0"/>
        <pt x="856" y="1341" on="1"/>
        <pt x="856" y="1058" on="0"/>
        <pt x="716" y="961" on="1"/>
        <pt x="782" y="913" on="0"/>
        <pt x="858" y="691" on="0"/>
        <pt x="858" y="557" on="1"/>
        <pt x="858" y="436" on="1"/>
        <pt x="856" y="203" on="0"/>
      </contour>
      <contour>
        <pt x="361" y="309" on="0"/>
        <pt x="407" y="208" on="0"/>
        <pt x="550" y="208" on="0"/>
        <pt x="590" y="309" on="0"/>
        <pt x="590" y="442" on="1"/>
        <pt x="590" y="586" on="1"/>
        <pt x="590" y="856" on="0"/>
        <pt x="480" y="856" on="1"/>
        <pt x="425" y="856" on="0"/>
        <pt x="360" y="716" on="0"/>
        <pt x="360" y="585" on="1"/>
        <pt x="360" y="438" on="1"/>
      </contour>
      <contour>
        <pt x="418" y="1056" on="1"/>
        <pt x="440" y="1034" on="0"/>
        <pt x="478" y="1034" on="1"/>
        <pt x="478" y="1033" on="0"/>
        <pt x="479" y="1033" on="1"/>
        <pt x="516" y="1033" on="0"/>
        <pt x="538" y="1056" on="1"/>
        <pt x="561" y="1079" on="0"/>
        <pt x="589" y="1205" on="0"/>
        <pt x="589" y="1317" on="1"/>
        <pt x="589" y="1428" on="0"/>
        <pt x="566" y="1539" on="0"/>
        <pt x="522" y="1573" on="0"/>
        <pt x="436" y="1573" on="0"/>
        <pt x="414" y="1554" on="1"/>
        <pt x="368" y="1516" on="0"/>
        <pt x="368" y="1106" on="0"/>
      </contour>
    </TTGlyph>
    <TTGlyph name="emacron" xMin="110" yMin="-18" xMax="854" yMax="1796">
      <component glyphName="macron" x="138" y="719" flags="0x1004"/>
      <component glyphName="e" x="0" y="0" flags="0x1004"/>
    </TTGlyph>
    <TTGlyph name="emdash" xMin="60" yMin="509" xMax="1092" yMax="741">
      <contour>
        <pt x="60" y="509" on="1"/>
        <pt x="60" y="741" on="1"/>
        <pt x="1092" y="741" on="1"/>
        <pt x="1092" y="509" on="1"/>
      </contour>
    </TTGlyph>
    <TTGlyph name="endash" xMin="120" yMin="509" xMax="636" yMax="741">
      <contour>
        <pt x="120" y="509" on="1"/>
        <pt x="120" y="741" on="1"/>
        <pt x="636" y="741" on="1"/>
        <pt x="636" y="509" on="1"/>
      </contour>
    </TTGlyph>
    <TTGlyph name="eogonek" xMin="110" yMin="-622" xMax="854" yMax="1518">
      <component glyphName="e" x="0" y="0" flags="0x1004"/>
      <component glyphName="ogonek" x="-123" y="4" flags="0x1004"/>
    </TTGlyph>
    <TTGlyph name="equal" xMin="104" yMin="549" xMax="618" yMax="1076">
      <contour>
        <pt x="104" y="549" on="1"/>
        <pt x="104" y="738" on="1"/>
        <pt x="618" y="738" on="1"/>
        <pt x="618" y="549" on="1"/>
      </contour>
      <contour>
        <pt x="104" y="892" on="1"/>
        <pt x="104" y="1076" on="1"/>
        <pt x="618" y="1076" on="1"/>
        <pt x="618" y="892" on="1"/>
      </contour>
    </TTGlyph>
    <TTGlyph name="eth" xMin="95" yMin="-21" xMax="952" yMax="1781">
      <contour>
        <pt x="430" y="1098" on="1"/>
        <pt x="546" y="1098" on="0"/>
        <pt x="605" y="1042" on="1"/>
        <pt x="605" y="1093" on="0"/>
        <pt x="574" y="1332" on="0"/>
        <pt x="551" y="1378" on="1"/>
        <pt x="342" y="1262" on="1"/>
        <pt x="277" y="1399" on="1"/>
        <pt x="466" y="1505" on="1"/>
        <pt x="395" y="1586" on="0"/>
        <pt x="269" y="1630" on="1"/>
        <pt x="406" y="1781" on="1"/>
        <pt x="576" y="1755" on="0"/>
        <pt x="687" y="1625" on="1"/>
        <pt x="886" y="1735" on="1"/>
        <pt x="952" y="1598" on="1"/>
        <pt x="773" y="1498" on="1"/>
        <pt x="818" y="1418" on="0"/>
        <pt x="883" y="998" on="0"/>
        <pt x="883" y="857" on="1"/>
        <pt x="883" y="527" on="1"/>
        <pt x="883" y="180" on="0"/>
        <pt x="770" y="70" on="1"/>
        <pt x="676" y="-20" on="0"/>
        <pt x="491" y="-21" on="1"/>
        <pt x="267" y="-21" on="0"/>
        <pt x="95" y="230" on="0"/>
        <pt x="95" y="483" on="1"/>
        <pt x="95" y="586" on="1"/>
        <pt x="95" y="853" on="0"/>
        <pt x="255" y="1098" on="0"/>
      </contour>
      <contour>
        <pt x="417" y="212" on="0"/>
        <pt x="561" y="212" on="0"/>
        <pt x="615" y="323" on="0"/>
        <pt x="615" y="456" on="1"/>
        <pt x="615" y="776" on="1"/>
        <pt x="609" y="819" on="0"/>
        <pt x="538" y="873" on="0"/>
        <pt x="414" y="873" on="0"/>
        <pt x="363" y="757" on="0"/>
        <pt x="363" y="613" on="1"/>
        <pt x="363" y="434" on="1"/>
        <pt x="363" y="307" on="0"/>
      </contour>
    </TTGlyph>
    <TTGlyph name="exclam" xMin="115" yMin="0" xMax="399" yMax="1761">
      <contour>
        <pt x="126" y="0" on="1"/>
        <pt x="126" y="256" on="1"/>
        <pt x="386" y="256" on="1"/>
        <pt x="386" y="0" on="1"/>
      </contour>
      <contour>
        <pt x="204" y="423" on="1"/>
        <pt x="115" y="1761" on="1"/>
        <pt x="399" y="1761" on="1"/>
        <pt x="314" y="423" on="1"/>
      </contour>
    </TTGlyph>
    <TTGlyph name="exclamdown" xMin="132" yMin="-237" xMax="416" yMax="1524">
      <component glyphName="exclam" x="531" y="1524" scale="-1.0" flags="0x1004"/>
    </TTGlyph>
    <TTGlyph name="f" xMin="57" yMin="0" xMax="590" yMax="1784">
      <contour>
        <pt x="173" y="0" on="1"/>
        <pt x="173" y="1250" on="1"/>
        <pt x="57" y="1250" on="1"/>
        <pt x="57" y="1441" on="1"/>
        <pt x="174" y="1441" on="1"/>
        <pt x="174" y="1519" on="1"/>
        <pt x="174" y="1645" on="0"/>
        <pt x="305" y="1784" on="0"/>
        <pt x="523" y="1784" on="0"/>
        <pt x="590" y="1759" on="1"/>
        <pt x="590" y="1593" on="1"/>
        <pt x="560" y="1597" on="0"/>
        <pt x="520" y="1597" on="1"/>
        <pt x="438" y="1597" on="0"/>
        <pt x="438" y="1511" on="1"/>
        <pt x="438" y="1441" on="1"/>
        <pt x="590" y="1441" on="1"/>
        <pt x="590" y="1250" on="1"/>
        <pt x="438" y="1250" on="1"/>
        <pt x="438" y="0" on="1"/>
      </contour>
    </TTGlyph>
    <TTGlyph name="five" xMin="122" yMin="-20" xMax="831" yMax="1760">
      <contour>
        <pt x="471" y="-20" on="1"/>
        <pt x="122" y="-20" on="0"/>
        <pt x="122" y="343" on="1"/>
        <pt x="122" y="564" on="1"/>
        <pt x="373" y="564" on="1"/>
        <pt x="373" y="371" on="1"/>
        <pt x="373" y="249" on="0"/>
        <pt x="420" y="220" on="1"/>
        <pt x="438" y="209" on="0"/>
        <pt x="477" y="209" on="1"/>
        <pt x="479" y="209" on="0"/>
        <pt x="483" y="209" on="1"/>
        <pt x="571" y="209" on="0"/>
        <pt x="571" y="382" on="1"/>
        <pt x="571" y="832" on="1"/>
        <pt x="571" y="928" on="0"/>
        <pt x="531" y="1023" on="0"/>
        <pt x="473" y="1023" on="1"/>
        <pt x="369" y="1023" on="0"/>
        <pt x="369" y="852" on="1"/>
        <pt x="133" y="862" on="1"/>
        <pt x="133" y="1760" on="1"/>
        <pt x="784" y="1760" on="1"/>
        <pt x="784" y="1520" on="1"/>
        <pt x="380" y="1520" on="1"/>
        <pt x="380" y="1163" on="1"/>
        <pt x="399" y="1200" on="0"/>
        <pt x="498" y="1246" on="0"/>
        <pt x="557" y="1246" on="1"/>
        <pt x="711" y="1246" on="0"/>
        <pt x="831" y="975" on="0"/>
        <pt x="831" y="386" on="0"/>
        <pt x="790" y="157" on="0"/>
        <pt x="750" y="97" on="1"/>
        <pt x="673" y="-20" on="0"/>
      </contour>
    </TTGlyph>
    <TTGlyph name="florin" xMin="107" yMin="-17" xMax="656" yMax="1783">
      <contour>
        <pt x="510" y="221" on="1"/>
        <pt x="510" y="-17" on="0"/>
        <pt x="290" y="-17" on="1"/>
        <pt x="193" y="-17" on="0"/>
        <pt x="115" y="8" on="1"/>
        <pt x="115" y="186" on="1"/>
        <pt x="153" y="182" on="0"/>
        <pt x="163" y="182" on="1"/>
        <pt x="222" y="182" on="0"/>
        <pt x="254" y="232" on="0"/>
        <pt x="254" y="305" on="1"/>
        <pt x="254" y="1056" on="1"/>
        <pt x="107" y="1056" on="1"/>
        <pt x="107" y="1258" on="1"/>
        <pt x="254" y="1258" on="1"/>
        <pt x="254" y="1539" on="1"/>
        <pt x="254" y="1783" on="0"/>
        <pt x="469" y="1783" on="1"/>
        <pt x="569" y="1783" on="0"/>
        <pt x="652" y="1752" on="1"/>
        <pt x="652" y="1574" on="1"/>
        <pt x="602" y="1587" on="0"/>
        <pt x="570" y="1587" on="1"/>
        <pt x="510" y="1587" on="0"/>
        <pt x="510" y="1484" on="1"/>
        <pt x="510" y="1258" on="1"/>
        <pt x="656" y="1258" on="1"/>
        <pt x="656" y="1056" on="1"/>
        <pt x="510" y="1056" on="1"/>
      </contour>
    </TTGlyph>
    <TTGlyph name="four" xMin="90" yMin="-1" xMax="899" yMax="1761">
      <contour>
        <pt x="524" y="-1" on="1"/>
        <pt x="524" y="310" on="1"/>
        <pt x="90" y="310" on="1"/>
        <pt x="90" y="507" on="1"/>
        <pt x="477" y="1761" on="1"/>
        <pt x="763" y="1761" on="1"/>
        <pt x="763" y="526" on="1"/>
        <pt x="899" y="526" on="1"/>
        <pt x="899" y="310" on="1"/>
        <pt x="763" y="310" on="1"/>
        <pt x="763" y="-1" on="1"/>
      </contour>
      <contour>
        <pt x="297" y="526" on="1"/>
        <pt x="524" y="526" on="1"/>
        <pt x="524" y="1395" on="1"/>
      </contour>
    </TTGlyph>
    <TTGlyph name="fraction" xMin="57" yMin="0" xMax="746" yMax="1767">
      <contour>
        <pt x="57" y="0" on="1"/>
        <pt x="526" y="1767" on="1"/>
        <pt x="746" y="1767" on="1"/>
        <pt x="276" y="0" on="1"/>
      </contour>
    </TTGlyph>
    <TTGlyph name="g" xMin="100" yMin="-225" xMax="865" yMax="1518">
      <contour>
        <pt x="865" y="185" on="1"/>
        <pt x="865" y="-7" on="0"/>
        <pt x="678" y="-225" on="0"/>
        <pt x="233" y="-225" on="0"/>
        <pt x="100" y="-118" on="1"/>
        <pt x="193" y="49" on="1"/>
        <pt x="312" y="-27" on="0"/>
        <pt x="518" y="-27" on="0"/>
        <pt x="600" y="77" on="0"/>
        <pt x="600" y="165" on="1"/>
        <pt x="600" y="284" on="1"/>
        <pt x="575" y="212" on="0"/>
        <pt x="472" y="153" on="0"/>
        <pt x="392" y="153" on="1"/>
        <pt x="235" y="153" on="0"/>
        <pt x="114" y="387" on="0"/>
        <pt x="114" y="582" on="1"/>
        <pt x="114" y="1065" on="1"/>
        <pt x="114" y="1518" on="0"/>
        <pt x="398" y="1518" on="1"/>
        <pt x="400" y="1518" on="0"/>
        <pt x="402" y="1518" on="1"/>
        <pt x="558" y="1518" on="0"/>
        <pt x="600" y="1367" on="1"/>
        <pt x="600" y="1500" on="1"/>
        <pt x="865" y="1500" on="1"/>
      </contour>
      <contour>
        <pt x="381" y="471" on="0"/>
        <pt x="428" y="354" on="0"/>
        <pt x="551" y="354" on="0"/>
        <pt x="600" y="459" on="0"/>
        <pt x="600" y="596" on="1"/>
        <pt x="600" y="1087" on="1"/>
        <pt x="600" y="1192" on="0"/>
        <pt x="549" y="1304" on="0"/>
        <pt x="419" y="1304" on="0"/>
        <pt x="381" y="1189" on="0"/>
        <pt x="381" y="1088" on="1"/>
        <pt x="381" y="594" on="1"/>
      </contour>
    </TTGlyph>
    <TTGlyph name="gbreve" xMin="100" yMin="-225" xMax="865" yMax="1892">
      <component glyphName="breve" x="12" y="0" flags="0x1004"/>
      <component glyphName="g" x="0" y="0" flags="0x1004"/>
    </TTGlyph>
    <TTGlyph name="gcircumflex" xMin="100" yMin="-225" xMax="865" yMax="1945">
      <component glyphName="g" x="0" y="0" flags="0x1004"/>
      <component glyphName="circumflex" x="35" y="0" flags="0x1004"/>
    </TTGlyph>
    <TTGlyph name="gcommaaccent" xMin="100" yMin="-225" xMax="865" yMax="2210">
      <component glyphName="uni0326" x="739" y="1648" scale="-1.0" flags="0x1004"/>
      <component glyphName="g" x="0" y="0" flags="0x1004"/>
    </TTGlyph>
    <TTGlyph name="gdotaccent" xMin="100" yMin="-225" xMax="865" yMax="1842">
      <component glyphName="dotaccent" x="234" y="720" flags="0x1004"/>
      <component glyphName="g" x="0" y="0" flags="0x1004"/>
    </TTGlyph>
    <TTGlyph name="germandbls" xMin="135" yMin="0" xMax="956" yMax="1781">
      <contour>
        <pt x="135" y="0" on="1"/>
        <pt x="135" y="1417" on="1"/>
        <pt x="135" y="1605" on="0"/>
        <pt x="305" y="1781" on="0"/>
        <pt x="713" y="1781" on="0"/>
        <pt x="896" y="1616" on="0"/>
        <pt x="896" y="1417" on="1"/>
        <pt x="896" y="1220" on="1"/>
        <pt x="896" y="1102" on="0"/>
        <pt x="824" y="973" on="0"/>
        <pt x="737" y="945" on="1"/>
        <pt x="860" y="916" on="0"/>
        <pt x="956" y="731" on="0"/>
        <pt x="956" y="553" on="1"/>
        <pt x="956" y="476" on="1"/>
        <pt x="956" y="288" on="0"/>
        <pt x="924" y="204" on="1"/>
        <pt x="890" y="120" on="0"/>
        <pt x="850" y="81" on="1"/>
        <pt x="764" y="0" on="0"/>
        <pt x="593" y="0" on="1"/>
        <pt x="489" y="0" on="1"/>
        <pt x="489" y="212" on="1"/>
        <pt x="611" y="212" on="0"/>
        <pt x="695" y="285" on="0"/>
        <pt x="695" y="395" on="1"/>
        <pt x="695" y="656" on="1"/>
        <pt x="695" y="756" on="0"/>
        <pt x="610" y="832" on="0"/>
        <pt x="498" y="832" on="1"/>
        <pt x="498" y="1032" on="1"/>
        <pt x="575" y="1032" on="0"/>
        <pt x="635" y="1097" on="0"/>
        <pt x="635" y="1170" on="1"/>
        <pt x="635" y="1438" on="1"/>
        <pt x="635" y="1507" on="0"/>
        <pt x="582" y="1562" on="0"/>
        <pt x="457" y="1562" on="0"/>
        <pt x="400" y="1505" on="0"/>
        <pt x="400" y="1438" on="1"/>
        <pt x="400" y="0" on="1"/>
      </contour>
    </TTGlyph>
    <TTGlyph name="grave" xMin="104" yMin="908" xMax="517" yMax="1267">
      <contour>
        <pt x="517" y="908" on="1"/>
        <pt x="104" y="1002" on="1"/>
        <pt x="104" y="1267" on="1"/>
        <pt x="517" y="1064" on="1"/>
      </contour>
    </TTGlyph>
    <TTGlyph name="greater" xMin="90" yMin="238" xMax="664" yMax="1264">
      <contour>
        <pt x="90" y="238" on="1"/>
        <pt x="90" y="513" on="1"/>
        <pt x="486" y="749" on="1"/>
        <pt x="90" y="992" on="1"/>
        <pt x="90" y="1264" on="1"/>
        <pt x="664" y="898" on="1"/>
        <pt x="664" y="605" on="1"/>
      </contour>
    </TTGlyph>
    <TTGlyph name="greaterequal" xMin="107" yMin="0" xMax="681" yMax="1312">
      <contour>
        <pt x="107" y="286" on="1"/>
        <pt x="107" y="558" on="1"/>
        <pt x="503" y="801" on="1"/>
        <pt x="107" y="1037" on="1"/>
        <pt x="107" y="1312" on="1"/>
        <pt x="681" y="947" on="1"/>
        <pt x="681" y="655" on="1"/>
      </contour>
      <contour>
        <pt x="118" y="0" on="1"/>
        <pt x="118" y="179" on="1"/>
        <pt x="649" y="179" on="1"/>
        <pt x="649" y="0" on="1"/>
      </contour>
    </TTGlyph>
    <TTGlyph name="guillemotleft" xMin="88" yMin="327" xMax="1133" yMax="1158">
      <contour>
        <pt x="579" y="327" on="1"/>
        <pt x="88" y="612" on="1"/>
        <pt x="88" y="887" on="1"/>
        <pt x="579" y="1158" on="1"/>
        <pt x="579" y="890" on="1"/>
        <pt x="267" y="749" on="1"/>
        <pt x="579" y="599" on="1"/>
      </contour>
      <contour>
        <pt x="1133" y="327" on="1"/>
        <pt x="642" y="612" on="1"/>
        <pt x="642" y="887" on="1"/>
        <pt x="1133" y="1158" on="1"/>
        <pt x="1133" y="890" on="1"/>
        <pt x="821" y="749" on="1"/>
        <pt x="1133" y="599" on="1"/>
      </contour>
    </TTGlyph>
    <TTGlyph name="guillemotright" xMin="151" yMin="327" xMax="1195" yMax="1158">
      <contour>
        <pt x="151" y="327" on="1"/>
        <pt x="151" y="599" on="1"/>
        <pt x="463" y="749" on="1"/>
        <pt x="151" y="890" on="1"/>
        <pt x="151" y="1158" on="1"/>
        <pt x="641" y="887" on="1"/>
        <pt x="641" y="612" on="1"/>
      </contour>
      <contour>
        <pt x="704" y="327" on="1"/>
        <pt x="704" y="599" on="1"/>
        <pt x="1016" y="749" on="1"/>
        <pt x="704" y="890" on="1"/>
        <pt x="704" y="1158" on="1"/>
        <pt x="1195" y="887" on="1"/>
        <pt x="1195" y="612" on="1"/>
      </contour>
    </TTGlyph>
    <TTGlyph name="guilsinglleft" xMin="57" yMin="327" xMax="548" yMax="1158">
      <contour>
        <pt x="548" y="327" on="1"/>
        <pt x="57" y="612" on="1"/>
        <pt x="57" y="887" on="1"/>
        <pt x="548" y="1158" on="1"/>
        <pt x="548" y="890" on="1"/>
        <pt x="236" y="749" on="1"/>
        <pt x="548" y="599" on="1"/>
      </contour>
    </TTGlyph>
    <TTGlyph name="guilsinglright" xMin="139" yMin="327" xMax="630" yMax="1158">
      <contour>
        <pt x="139" y="327" on="1"/>
        <pt x="139" y="599" on="1"/>
        <pt x="451" y="749" on="1"/>
        <pt x="139" y="890" on="1"/>
        <pt x="139" y="1158" on="1"/>
        <pt x="630" y="887" on="1"/>
        <pt x="630" y="612" on="1"/>
      </contour>
    </TTGlyph>
    <TTGlyph name="h" xMin="132" yMin="0" xMax="894" yMax="1775">
      <contour>
        <pt x="132" y="0" on="1"/>
        <pt x="132" y="1775" on="1"/>
        <pt x="397" y="1775" on="1"/>
        <pt x="397" y="1328" on="1"/>
        <pt x="418" y="1409" on="0"/>
        <pt x="542" y="1518" on="0"/>
        <pt x="630" y="1518" on="1"/>
        <pt x="760" y="1518" on="0"/>
        <pt x="894" y="1345" on="0"/>
        <pt x="894" y="1181" on="1"/>
        <pt x="894" y="0" on="1"/>
        <pt x="630" y="0" on="1"/>
        <pt x="630" y="1156" on="1"/>
        <pt x="630" y="1301" on="0"/>
        <pt x="524" y="1301" on="1"/>
        <pt x="463" y="1301" on="0"/>
        <pt x="397" y="1201" on="0"/>
        <pt x="397" y="1115" on="1"/>
        <pt x="397" y="0" on="1"/>
      </contour>
    </TTGlyph>
    <TTGlyph name="hbar" xMin="0" yMin="0" xMax="894" yMax="1775">
      <contour>
        <pt x="132" y="1702" on="1"/>
        <pt x="132" y="1775" on="1"/>
        <pt x="397" y="1775" on="1"/>
        <pt x="397" y="1702" on="1"/>
        <pt x="663" y="1702" on="1"/>
        <pt x="663" y="1593" on="1"/>
        <pt x="397" y="1593" on="1"/>
        <pt x="397" y="1328" on="1"/>
        <pt x="418" y="1409" on="0"/>
        <pt x="542" y="1518" on="0"/>
        <pt x="630" y="1518" on="1"/>
        <pt x="760" y="1518" on="0"/>
        <pt x="894" y="1345" on="0"/>
        <pt x="894" y="1181" on="1"/>
        <pt x="894" y="0" on="1"/>
        <pt x="630" y="0" on="1"/>
        <pt x="630" y="1156" on="1"/>
        <pt x="630" y="1301" on="0"/>
        <pt x="524" y="1301" on="1"/>
        <pt x="463" y="1301" on="0"/>
        <pt x="397" y="1201" on="0"/>
        <pt x="397" y="1115" on="1"/>
        <pt x="397" y="0" on="1"/>
        <pt x="132" y="0" on="1"/>
        <pt x="132" y="1593" on="1"/>
        <pt x="0" y="1593" on="1"/>
        <pt x="0" y="1702" on="1"/>
      </contour>
    </TTGlyph>
    <TTGlyph name="hcircumflex" xMin="132" yMin="0" xMax="894" yMax="2189">
      <component glyphName="h" x="0" y="0" flags="0x1004"/>
      <component glyphName="circumflex" x="23" y="244" flags="0x1004"/>
    </TTGlyph>
    <TTGlyph name="hungarumlaut" xMin="336" yMin="948" xMax="1091" yMax="1441">
      <contour>
        <pt x="449" y="953" on="1"/>
        <pt x="336" y="1000" on="1"/>
        <pt x="487" y="1441" on="1"/>
        <pt x="694" y="1344" on="1"/>
      </contour>
      <contour>
        <pt x="784" y="948" on="1"/>
        <pt x="673" y="1000" on="1"/>
        <pt x="880" y="1441" on="1"/>
        <pt x="1091" y="1340" on="1"/>
      </contour>
    </TTGlyph>
    <TTGlyph name="hyphen" xMin="89" yMin="661" xMax="567" yMax="836">
      <contour>
        <pt x="89" y="661" on="1"/>
        <pt x="89" y="836" on="1"/>
        <pt x="567" y="836" on="1"/>
        <pt x="567" y="661" on="1"/>
      </contour>
    </TTGlyph>
    <TTGlyph name="i" xMin="133" yMin="0" xMax="401" yMax="1868">
      <contour>
        <pt x="136" y="0" on="1"/>
        <pt x="136" y="1500" on="1"/>
        <pt x="401" y="1500" on="1"/>
        <pt x="401" y="0" on="1"/>
      </contour>
      <contour>
        <pt x="133" y="1638" on="1"/>
        <pt x="133" y="1868" on="1"/>
        <pt x="400" y="1868" on="1"/>
        <pt x="400" y="1638" on="1"/>
      </contour>
    </TTGlyph>
    <TTGlyph name="iacute" xMin="59" yMin="0" xMax="500" yMax="1986">
      <component glyphName="dotlessi" x="0" y="0" flags="0x1004"/>
      <component glyphName="acute" x="-42" y="-125" flags="0x1004"/>
    </TTGlyph>
    <TTGlyph name="ibreve" xMin="-19" yMin="0" xMax="545" yMax="1892">
      <component glyphName="breve" x="-244" y="0" flags="0x1004"/>
      <component glyphName="dotlessi" x="0" y="0" flags="0x1004"/>
    </TTGlyph>
    <TTGlyph name="icircumflex" xMin="-76" yMin="0" xMax="603" yMax="1945">
      <component glyphName="dotlessi" x="0" y="0" flags="0x1004"/>
      <component glyphName="circumflex" x="-221" y="0" flags="0x1004"/>
    </TTGlyph>
    <TTGlyph name="idieresis" xMin="-119" yMin="0" xMax="647" yMax="1849">
      <component glyphName="dotlessi" x="0" y="0" flags="0x1004"/>
      <component glyphName="dieresis" x="-224" y="720" flags="0x1004"/>
    </TTGlyph>
    <TTGlyph name="igrave" xMin="59" yMin="0" xMax="472" yMax="1987">
      <component glyphName="grave" x="-45" y="720" flags="0x1004"/>
      <component glyphName="dotlessi" x="0" y="0" flags="0x1004"/>
    </TTGlyph>
    <TTGlyph name="ij" xMin="133" yMin="-197" xMax="968" yMax="1868">
      <component glyphName="j" x="534" y="0" flags="0x1004"/>
      <component glyphName="i" x="0" y="0" flags="0x1004"/>
    </TTGlyph>
    <TTGlyph name="imacron" xMin="6" yMin="0" xMax="513" yMax="1797">
      <component glyphName="macron" x="-84" y="720" flags="0x1004"/>
      <component glyphName="dotlessi" x="0" y="0" flags="0x1004"/>
    </TTGlyph>
    <TTGlyph name="infinity" xMin="108" yMin="439" xMax="1182" yMax="1041">
      <contour>
        <pt x="912" y="439" on="1"/>
        <pt x="753" y="439" on="0"/>
        <pt x="639" y="585" on="1"/>
        <pt x="591" y="531" on="0"/>
        <pt x="447" y="452" on="0"/>
        <pt x="370" y="452" on="1"/>
        <pt x="242" y="452" on="0"/>
        <pt x="108" y="606" on="0"/>
        <pt x="108" y="878" on="0"/>
        <pt x="244" y="1028" on="0"/>
        <pt x="511" y="1028" on="0"/>
        <pt x="639" y="885" on="1"/>
        <pt x="765" y="1041" on="0"/>
        <pt x="1042" y="1041" on="0"/>
        <pt x="1182" y="883" on="0"/>
        <pt x="1182" y="602" on="0"/>
        <pt x="1043" y="439" on="0"/>
      </contour>
      <contour>
        <pt x="577" y="740" on="1"/>
        <pt x="506" y="810" on="0"/>
        <pt x="344" y="810" on="0"/>
        <pt x="344" y="669" on="0"/>
        <pt x="503" y="669" on="0"/>
      </contour>
      <contour>
        <pt x="701" y="740" on="1"/>
        <pt x="772" y="669" on="0"/>
        <pt x="948" y="669" on="0"/>
        <pt x="948" y="811" on="0"/>
        <pt x="778" y="811" on="0"/>
      </contour>
    </TTGlyph>
    <TTGlyph name="integral" xMin="115" yMin="-17" xMax="652" yMax="1783">
      <contour>
        <pt x="510" y="221" on="1"/>
        <pt x="510" y="-17" on="0"/>
        <pt x="290" y="-17" on="1"/>
        <pt x="193" y="-17" on="0"/>
        <pt x="115" y="8" on="1"/>
        <pt x="115" y="186" on="1"/>
        <pt x="153" y="182" on="0"/>
        <pt x="163" y="182" on="1"/>
        <pt x="222" y="182" on="0"/>
        <pt x="254" y="232" on="0"/>
        <pt x="254" y="305" on="1"/>
        <pt x="254" y="1539" on="1"/>
        <pt x="254" y="1783" on="0"/>
        <pt x="469" y="1783" on="1"/>
        <pt x="569" y="1783" on="0"/>
        <pt x="652" y="1752" on="1"/>
        <pt x="652" y="1574" on="1"/>
        <pt x="602" y="1587" on="0"/>
        <pt x="570" y="1587" on="1"/>
        <pt x="510" y="1587" on="0"/>
        <pt x="510" y="1484" on="1"/>
      </contour>
    </TTGlyph>
    <TTGlyph name="iogonek" xMin="4" yMin="-622" xMax="458" yMax="1842">
      <component glyphName="dotaccent" x="-22" y="720" flags="0x1004"/>
      <component glyphName="ogonek" x="-354" y="4" flags="0x1004"/>
      <component glyphName="dotlessi" x="0" y="0" flags="0x1004"/>
    </TTGlyph>
    <TTGlyph name="itilde" xMin="-71" yMin="0" xMax="598" yMax="1881">
      <component glyphName="tilde" x="-294" y="720" flags="0x1004"/>
      <component glyphName="dotlessi" x="0" y="0" flags="0x1004"/>
    </TTGlyph>
    <TTGlyph name="j" xMin="61" yMin="-197" xMax="434" yMax="1868">
      <contour>
        <pt x="222" y="-196" on="1"/>
        <pt x="204" y="-197" on="0"/>
        <pt x="84" y="-197" on="0"/>
        <pt x="61" y="-180" on="1"/>
        <pt x="61" y="3" on="1"/>
        <pt x="78" y="-1" on="0"/>
        <pt x="106" y="2" on="1"/>
        <pt x="169" y="5" on="0"/>
        <pt x="169" y="69" on="1"/>
        <pt x="169" y="1500" on="1"/>
        <pt x="434" y="1500" on="1"/>
        <pt x="434" y="79" on="1"/>
        <pt x="434" y="-58" on="0"/>
        <pt x="323" y="-194" on="0"/>
      </contour>
      <contour>
        <pt x="165" y="1638" on="1"/>
        <pt x="165" y="1868" on="1"/>
        <pt x="432" y="1868" on="1"/>
        <pt x="432" y="1638" on="1"/>
      </contour>
    </TTGlyph>
    <TTGlyph name="jcircumflex" xMin="-32" yMin="-167" xMax="647" yMax="1945">
      <component glyphName="uni0237" x="0" y="0" flags="0x1004"/>
      <component glyphName="circumflex" x="-177" y="0" flags="0x1004"/>
    </TTGlyph>
    <TTGlyph name="k" xMin="132" yMin="0" xMax="939" yMax="1775">
      <contour>
        <pt x="132" y="0" on="1"/>
        <pt x="132" y="1775" on="1"/>
        <pt x="397" y="1775" on="1"/>
        <pt x="397" y="818" on="1"/>
        <pt x="653" y="1500" on="1"/>
        <pt x="922" y="1500" on="1"/>
        <pt x="633" y="762" on="1"/>
        <pt x="939" y="0" on="1"/>
        <pt x="669" y="0" on="1"/>
        <pt x="397" y="713" on="1"/>
        <pt x="397" y="0" on="1"/>
      </contour>
    </TTGlyph>
    <TTGlyph name="kcommaaccent" xMin="132" yMin="-732" xMax="939" yMax="1775">
      <component glyphName="uni0326" x="188" y="-170" flags="0x1004"/>
      <component glyphName="k" x="0" y="0" flags="0x1004"/>
    </TTGlyph>
    <TTGlyph name="kgreenlandic" xMin="132" yMin="0" xMax="939" yMax="1500">
      <contour>
        <pt x="132" y="0" on="1"/>
        <pt x="132" y="1499" on="1"/>
        <pt x="397" y="1499" on="1"/>
        <pt x="397" y="818" on="1"/>
        <pt x="653" y="1500" on="1"/>
        <pt x="922" y="1500" on="1"/>
        <pt x="633" y="762" on="1"/>
        <pt x="939" y="0" on="1"/>
        <pt x="669" y="0" on="1"/>
        <pt x="397" y="713" on="1"/>
        <pt x="397" y="0" on="1"/>
      </contour>
    </TTGlyph>
    <TTGlyph name="l" xMin="135" yMin="0" xMax="399" yMax="1775">
      <contour>
        <pt x="135" y="0" on="1"/>
        <pt x="135" y="1775" on="1"/>
        <pt x="399" y="1775" on="1"/>
        <pt x="399" y="0" on="1"/>
      </contour>
    </TTGlyph>
    <TTGlyph name="lacute" xMin="61" yMin="0" xMax="502" yMax="2246">
      <component glyphName="l" x="0" y="0" flags="0x1004"/>
      <component glyphName="acute" x="-40" y="135" flags="0x1004"/>
    </TTGlyph>
    <TTGlyph name="lcaron" xMin="107" yMin="-732" xMax="399" yMax="1775">
      <component glyphName="uni0326" x="-14" y="-170" flags="0x1004"/>
      <component glyphName="l" x="0" y="0" flags="0x1004"/>
    </TTGlyph>
    <TTGlyph name="lcommaaccent" xMin="107" yMin="-732" xMax="399" yMax="1775">
      <component glyphName="uni0326" x="-14" y="-170" flags="0x1004"/>
      <component glyphName="l" x="0" y="0" flags="0x1004"/>
    </TTGlyph>
    <TTGlyph name="ldot" xMin="135" yMin="0" xMax="897" yMax="1775">
      <component glyphName="periodcentered" x="534" y="0" flags="0x1004"/>
      <component glyphName="l" x="0" y="0" flags="0x1004"/>
    </TTGlyph>
    <TTGlyph name="less" xMin="65" yMin="238" xMax="638" yMax="1264">
      <contour>
        <pt x="638" y="238" on="1"/>
        <pt x="65" y="607" on="1"/>
        <pt x="65" y="899" on="1"/>
        <pt x="638" y="1264" on="1"/>
        <pt x="638" y="989" on="1"/>
        <pt x="242" y="753" on="1"/>
        <pt x="638" y="510" on="1"/>
      </contour>
    </TTGlyph>
    <TTGlyph name="lessequal" xMin="82" yMin="0" xMax="656" yMax="1312">
      <contour>
        <pt x="656" y="286" on="1"/>
        <pt x="82" y="655" on="1"/>
        <pt x="82" y="947" on="1"/>
        <pt x="656" y="1312" on="1"/>
        <pt x="656" y="1037" on="1"/>
        <pt x="259" y="801" on="1"/>
        <pt x="656" y="558" on="1"/>
      </contour>
      <contour>
        <pt x="112" y="0" on="1"/>
        <pt x="112" y="179" on="1"/>
        <pt x="642" y="179" on="1"/>
        <pt x="642" y="0" on="1"/>
      </contour>
    </TTGlyph>
    <TTGlyph name="logicalnot" xMin="97" yMin="439" xMax="826" yMax="979">
      <contour>
        <pt x="602" y="439" on="1"/>
        <pt x="602" y="743" on="1"/>
        <pt x="97" y="743" on="1"/>
        <pt x="97" y="979" on="1"/>
        <pt x="826" y="979" on="1"/>
        <pt x="826" y="439" on="1"/>
      </contour>
    </TTGlyph>
    <TTGlyph name="lozenge" xMin="34" yMin="0" xMax="887" yMax="1436">
      <contour>
        <pt x="443" y="179" on="1"/>
        <pt x="475" y="179" on="1"/>
        <pt x="609" y="713" on="1"/>
        <pt x="475" y="1247" on="1"/>
        <pt x="443" y="1247" on="1"/>
        <pt x="309" y="713" on="1"/>
      </contour>
      <contour>
        <pt x="277" y="0" on="1"/>
        <pt x="34" y="713" on="1"/>
        <pt x="277" y="1436" on="1"/>
        <pt x="648" y="1436" on="1"/>
        <pt x="887" y="713" on="1"/>
        <pt x="648" y="0" on="1"/>
      </contour>
    </TTGlyph>
    <TTGlyph name="lslash" xMin="49" yMin="0" xMax="591" yMax="1775">
      <contour>
        <pt x="176" y="975" on="1"/>
        <pt x="176" y="1775" on="1"/>
        <pt x="440" y="1775" on="1"/>
        <pt x="440" y="1088" on="1"/>
        <pt x="591" y="1153" on="1"/>
        <pt x="591" y="960" on="1"/>
        <pt x="440" y="895" on="1"/>
        <pt x="440" y="0" on="1"/>
        <pt x="176" y="0" on="1"/>
        <pt x="176" y="782" on="1"/>
        <pt x="49" y="728" on="1"/>
        <pt x="49" y="921" on="1"/>
      </contour>
    </TTGlyph>
    <TTGlyph name="m" xMin="132" yMin="0" xMax="1382" yMax="1518">
      <contour>
        <pt x="1118" y="0" on="1"/>
        <pt x="1118" y="1152" on="1"/>
        <pt x="1118" y="1301" on="0"/>
        <pt x="1017" y="1301" on="1"/>
        <pt x="956" y="1301" on="0"/>
        <pt x="890" y="1217" on="0"/>
        <pt x="890" y="1138" on="1"/>
        <pt x="890" y="0" on="1"/>
        <pt x="625" y="0" on="1"/>
        <pt x="625" y="1154" on="1"/>
        <pt x="625" y="1301" on="0"/>
        <pt x="527" y="1301" on="1"/>
        <pt x="462" y="1301" on="0"/>
        <pt x="397" y="1202" on="0"/>
        <pt x="397" y="1124" on="1"/>
        <pt x="397" y="0" on="1"/>
        <pt x="132" y="0" on="1"/>
        <pt x="132" y="1500" on="1"/>
        <pt x="397" y="1500" on="1"/>
        <pt x="397" y="1337" on="1"/>
        <pt x="420" y="1421" on="0"/>
        <pt x="540" y="1518" on="0"/>
        <pt x="637" y="1518" on="1"/>
        <pt x="803" y="1518" on="0"/>
        <pt x="859" y="1367" on="1"/>
        <pt x="940" y="1518" on="0"/>
        <pt x="1114" y="1518" on="1"/>
        <pt x="1255" y="1518" on="0"/>
        <pt x="1382" y="1330" on="0"/>
        <pt x="1382" y="1149" on="1"/>
        <pt x="1382" y="0" on="1"/>
      </contour>
    </TTGlyph>
    <TTGlyph name="macron" xMin="90" yMin="926" xMax="597" yMax="1077">
      <contour>
        <pt x="90" y="926" on="1"/>
        <pt x="90" y="1077" on="1"/>
        <pt x="597" y="1077" on="1"/>
        <pt x="597" y="926" on="1"/>
      </contour>
    </TTGlyph>
    <TTGlyph name="minus" xMin="60" yMin="509" xMax="576" yMax="741">
      <contour>
        <pt x="60" y="509" on="1"/>
        <pt x="60" y="741" on="1"/>
        <pt x="576" y="741" on="1"/>
        <pt x="576" y="509" on="1"/>
      </contour>
    </TTGlyph>
    <TTGlyph name="multiply" xMin="44" yMin="314" xMax="666" yMax="936">
      <contour>
        <pt x="208" y="314" on="1"/>
        <pt x="44" y="478" on="1"/>
        <pt x="191" y="625" on="1"/>
        <pt x="44" y="772" on="1"/>
        <pt x="208" y="936" on="1"/>
        <pt x="355" y="789" on="1"/>
        <pt x="502" y="936" on="1"/>
        <pt x="666" y="772" on="1"/>
        <pt x="519" y="625" on="1"/>
        <pt x="666" y="478" on="1"/>
        <pt x="502" y="314" on="1"/>
        <pt x="355" y="461" on="1"/>
      </contour>
    </TTGlyph>
    <TTGlyph name="n" xMin="132" yMin="0" xMax="898" yMax="1518">
      <contour>
        <pt x="638" y="1518" on="1"/>
        <pt x="898" y="1518" on="0"/>
        <pt x="898" y="1181" on="1"/>
        <pt x="898" y="0" on="1"/>
        <pt x="633" y="0" on="1"/>
        <pt x="633" y="1165" on="1"/>
        <pt x="633" y="1230" on="0"/>
        <pt x="574" y="1304" on="0"/>
        <pt x="462" y="1304" on="0"/>
        <pt x="397" y="1208" on="0"/>
        <pt x="397" y="1127" on="1"/>
        <pt x="397" y="0" on="1"/>
        <pt x="132" y="0" on="1"/>
        <pt x="132" y="1500" on="1"/>
        <pt x="397" y="1500" on="1"/>
        <pt x="397" y="1328" on="1"/>
        <pt x="417" y="1408" on="0"/>
        <pt x="549" y="1518" on="0"/>
      </contour>
    </TTGlyph>
    <TTGlyph name="nacute" xMin="132" yMin="0" xMax="898" yMax="1986">
      <component glyphName="n" x="0" y="0" flags="0x1004"/>
      <component glyphName="acute" x="203" y="-125" flags="0x1004"/>
    </TTGlyph>
    <TTGlyph name="ncaron" xMin="132" yMin="0" xMax="898" yMax="1946">
      <component glyphName="n" x="0" y="0" flags="0x1004"/>
      <component glyphName="caron" x="25" y="0" flags="0x1004"/>
    </TTGlyph>
    <TTGlyph name="ncommaaccent" xMin="132" yMin="-732" xMax="898" yMax="1518">
      <component glyphName="uni0326" x="229" y="-170" flags="0x1004"/>
      <component glyphName="n" x="0" y="0" flags="0x1004"/>
    </TTGlyph>
    <TTGlyph name="nine" xMin="67" yMin="-20" xMax="823" yMax="1781">
      <contour>
        <pt x="823" y="231" on="0"/>
        <pt x="645" y="-20" on="0"/>
        <pt x="269" y="-20" on="0"/>
        <pt x="95" y="186" on="0"/>
        <pt x="94" y="423" on="1"/>
        <pt x="94" y="519" on="1"/>
        <pt x="347" y="519" on="1"/>
        <pt x="347" y="482" on="1"/>
        <pt x="348" y="319" on="0"/>
        <pt x="391" y="210" on="0"/>
        <pt x="511" y="210" on="0"/>
        <pt x="539" y="259" on="0"/>
        <pt x="557" y="306" on="0"/>
        <pt x="557" y="438" on="1"/>
        <pt x="557" y="701" on="1"/>
        <pt x="502" y="664" on="0"/>
        <pt x="394" y="664" on="1"/>
        <pt x="216" y="664" on="0"/>
        <pt x="67" y="922" on="0"/>
        <pt x="67" y="1184" on="1"/>
        <pt x="67" y="1248" on="1"/>
        <pt x="67" y="1576" on="0"/>
        <pt x="180" y="1689" on="1"/>
        <pt x="272" y="1781" on="0"/>
        <pt x="613" y="1781" on="0"/>
        <pt x="774" y="1650" on="0"/>
        <pt x="823" y="1418" on="0"/>
        <pt x="823" y="1233" on="1"/>
        <pt x="823" y="530" on="1"/>
      </contour>
      <contour>
        <pt x="444" y="884" on="1"/>
        <pt x="543" y="884" on="0"/>
        <pt x="557" y="970" on="1"/>
        <pt x="557" y="1304" on="1"/>
        <pt x="557" y="1434" on="0"/>
        <pt x="510" y="1548" on="0"/>
        <pt x="377" y="1548" on="0"/>
        <pt x="329" y="1432" on="0"/>
        <pt x="329" y="1301" on="1"/>
        <pt x="329" y="1144" on="1"/>
        <pt x="329" y="998" on="0"/>
        <pt x="376" y="884" on="0"/>
      </contour>
    </TTGlyph>
    <TTGlyph name="notequal" xMin="103" yMin="0" xMax="782" yMax="1765">
      <contour>
        <pt x="154" y="0" on="1"/>
        <pt x="255" y="559" on="1"/>
        <pt x="103" y="559" on="1"/>
        <pt x="103" y="791" on="1"/>
        <pt x="297" y="791" on="1"/>
        <pt x="325" y="942" on="1"/>
        <pt x="103" y="942" on="1"/>
        <pt x="103" y="1166" on="1"/>
        <pt x="365" y="1166" on="1"/>
        <pt x="474" y="1765" on="1"/>
        <pt x="723" y="1765" on="1"/>
        <pt x="611" y="1166" on="1"/>
        <pt x="782" y="1166" on="1"/>
        <pt x="782" y="942" on="1"/>
        <pt x="569" y="942" on="1"/>
        <pt x="540" y="791" on="1"/>
        <pt x="782" y="791" on="1"/>
        <pt x="782" y="559" on="1"/>
        <pt x="497" y="559" on="1"/>
        <pt x="392" y="0" on="1"/>
      </contour>
    </TTGlyph>
    <TTGlyph name="ntilde" xMin="132" yMin="0" xMax="898" yMax="1881">
      <component glyphName="tilde" x="-48" y="720" flags="0x1004"/>
      <component glyphName="n" x="0" y="0" flags="0x1004"/>
    </TTGlyph>
    <TTGlyph name="numbersign" xMin="140" yMin="0" xMax="1134" yMax="1762">
      <contour>
        <pt x="153" y="0" on="1"/>
        <pt x="266" y="579" on="1"/>
        <pt x="140" y="579" on="1"/>
        <pt x="140" y="753" on="1"/>
        <pt x="300" y="753" on="1"/>
        <pt x="355" y="1031" on="1"/>
        <pt x="207" y="1031" on="1"/>
        <pt x="207" y="1204" on="1"/>
        <pt x="389" y="1204" on="1"/>
        <pt x="501" y="1762" on="1"/>
        <pt x="718" y="1762" on="1"/>
        <pt x="605" y="1204" on="1"/>
        <pt x="793" y="1204" on="1"/>
        <pt x="905" y="1762" on="1"/>
        <pt x="1122" y="1762" on="1"/>
        <pt x="1011" y="1204" on="1"/>
        <pt x="1134" y="1204" on="1"/>
        <pt x="1134" y="1031" on="1"/>
        <pt x="977" y="1031" on="1"/>
        <pt x="922" y="753" on="1"/>
        <pt x="1067" y="753" on="1"/>
        <pt x="1067" y="579" on="1"/>
        <pt x="887" y="579" on="1"/>
        <pt x="773" y="0" on="1"/>
        <pt x="557" y="0" on="1"/>
        <pt x="670" y="579" on="1"/>
        <pt x="482" y="579" on="1"/>
        <pt x="369" y="0" on="1"/>
      </contour>
      <contour>
        <pt x="516" y="752" on="1"/>
        <pt x="705" y="752" on="1"/>
        <pt x="760" y="1028" on="1"/>
        <pt x="571" y="1028" on="1"/>
      </contour>
    </TTGlyph>
    <TTGlyph name="o" xMin="110" yMin="-18" xMax="860" yMax="1518">
      <contour>
        <pt x="486" y="196" on="1"/>
        <pt x="548" y="196" on="0"/>
        <pt x="593" y="305" on="0"/>
        <pt x="593" y="413" on="1"/>
        <pt x="593" y="1084" on="1"/>
        <pt x="593" y="1194" on="0"/>
        <pt x="547" y="1304" on="0"/>
        <pt x="423" y="1304" on="0"/>
        <pt x="377" y="1195" on="0"/>
        <pt x="377" y="1084" on="1"/>
        <pt x="377" y="413" on="1"/>
        <pt x="377" y="248" on="0"/>
        <pt x="431" y="211" on="1"/>
        <pt x="453" y="196" on="0"/>
      </contour>
      <contour>
        <pt x="486" y="-18" on="1"/>
        <pt x="274" y="-18" on="0"/>
        <pt x="110" y="236" on="0"/>
        <pt x="110" y="476" on="1"/>
        <pt x="110" y="1037" on="1"/>
        <pt x="110" y="1518" on="0"/>
        <pt x="860" y="1518" on="0"/>
        <pt x="860" y="1037" on="1"/>
        <pt x="860" y="476" on="1"/>
        <pt x="860" y="101" on="0"/>
        <pt x="667" y="15" on="1"/>
        <pt x="593" y="-18" on="0"/>
      </contour>
    </TTGlyph>
    <TTGlyph name="oacute" xMin="110" yMin="-18" xMax="860" yMax="1986">
      <component glyphName="o" x="0" y="0" flags="0x1004"/>
      <component glyphName="acute" x="179" y="-125" flags="0x1004"/>
    </TTGlyph>
    <TTGlyph name="obreve" xMin="110" yMin="-18" xMax="860" yMax="1892">
      <component glyphName="breve" x="-23" y="0" flags="0x1004"/>
      <component glyphName="o" x="0" y="0" flags="0x1004"/>
    </TTGlyph>
    <TTGlyph name="ocircumflex" xMin="110" yMin="-18" xMax="860" yMax="1945">
      <component glyphName="o" x="0" y="0" flags="0x1004"/>
      <component glyphName="circumflex" x="0" y="0" flags="0x1004"/>
    </TTGlyph>
    <TTGlyph name="odieresis" xMin="102" yMin="-18" xMax="868" yMax="1849">
      <component glyphName="o" x="0" y="0" flags="0x1004"/>
      <component glyphName="dieresis" x="-3" y="720" flags="0x1004"/>
    </TTGlyph>
    <TTGlyph name="oe" xMin="110" yMin="-18" xMax="1347" yMax="1518">
      <contour>
        <pt x="492" y="-18" on="1"/>
        <pt x="284" y="-18" on="0"/>
        <pt x="110" y="232" on="0"/>
        <pt x="110" y="478" on="1"/>
        <pt x="110" y="1037" on="1"/>
        <pt x="110" y="1261" on="0"/>
        <pt x="295" y="1518" on="0"/>
        <pt x="492" y="1518" on="1"/>
        <pt x="640" y="1518" on="0"/>
        <pt x="737" y="1410" on="1"/>
        <pt x="829" y="1518" on="0"/>
        <pt x="985" y="1518" on="1"/>
        <pt x="1190" y="1518" on="0"/>
        <pt x="1347" y="1276" on="0"/>
        <pt x="1347" y="1053" on="1"/>
        <pt x="1347" y="752" on="0"/>
        <pt x="1345" y="726" on="1"/>
        <pt x="868" y="726" on="1"/>
        <pt x="868" y="437" on="1"/>
        <pt x="868" y="280" on="0"/>
        <pt x="924" y="196" on="0"/>
        <pt x="1031" y="196" on="0"/>
        <pt x="1051" y="235" on="1"/>
        <pt x="1082" y="294" on="0"/>
        <pt x="1082" y="566" on="0"/>
        <pt x="1081" y="569" on="1"/>
        <pt x="1345" y="569" on="1"/>
        <pt x="1345" y="499" on="1"/>
        <pt x="1345" y="293" on="0"/>
        <pt x="1280" y="112" on="0"/>
        <pt x="1238" y="70" on="1"/>
        <pt x="1150" y="-18" on="0"/>
        <pt x="824" y="-18" on="0"/>
        <pt x="737" y="85" on="1"/>
        <pt x="642" y="-18" on="0"/>
      </contour>
      <contour>
        <pt x="380" y="306" on="0"/>
        <pt x="428" y="196" on="0"/>
        <pt x="554" y="196" on="0"/>
        <pt x="602" y="307" on="0"/>
        <pt x="602" y="413" on="1"/>
        <pt x="602" y="1084" on="1"/>
        <pt x="602" y="1193" on="0"/>
        <pt x="553" y="1304" on="0"/>
        <pt x="428" y="1304" on="0"/>
        <pt x="380" y="1194" on="0"/>
        <pt x="380" y="1084" on="1"/>
        <pt x="380" y="413" on="1"/>
      </contour>
      <contour>
        <pt x="868" y="1059" on="1"/>
        <pt x="869" y="906" on="1"/>
        <pt x="1082" y="906" on="1"/>
        <pt x="1082" y="1079" on="1"/>
        <pt x="1082" y="1202" on="0"/>
        <pt x="1043" y="1309" on="0"/>
        <pt x="983" y="1309" on="1"/>
        <pt x="878" y="1309" on="0"/>
        <pt x="870" y="1138" on="1"/>
        <pt x="868" y="1106" on="0"/>
      </contour>
    </TTGlyph>
    <TTGlyph name="ogonek" xMin="358" yMin="-626" xMax="812" yMax="0">
      <contour>
        <pt x="643" y="-626" on="1"/>
        <pt x="506" y="-626" on="0"/>
        <pt x="358" y="-495" on="0"/>
        <pt x="358" y="-280" on="0"/>
        <pt x="496" y="-71" on="0"/>
        <pt x="624" y="0" on="1"/>
        <pt x="731" y="0" on="1"/>
        <pt x="551" y="-189" on="0"/>
        <pt x="551" y="-339" on="1"/>
        <pt x="551" y="-403" on="0"/>
        <pt x="632" y="-468" on="0"/>
        <pt x="747" y="-468" on="0"/>
        <pt x="812" y="-453" on="1"/>
        <pt x="812" y="-591" on="1"/>
        <pt x="792" y="-602" on="0"/>
        <pt x="690" y="-626" on="0"/>
      </contour>
    </TTGlyph>
    <TTGlyph name="ograve" xMin="110" yMin="-18" xMax="860" yMax="1987">
      <component glyphName="grave" x="176" y="720" flags="0x1004"/>
      <component glyphName="o" x="0" y="0" flags="0x1004"/>
    </TTGlyph>
    <TTGlyph name="ohungarumlaut" xMin="110" yMin="-18" xMax="915" yMax="2161">
      <component glyphName="o" x="0" y="0" flags="0x1004"/>
      <component glyphName="hungarumlaut" x="-176" y="720" flags="0x1004"/>
    </TTGlyph>
    <TTGlyph name="omacron" xMin="110" yMin="-18" xMax="860" yMax="1797">
      <component glyphName="o" x="0" y="0" flags="0x1004"/>
      <component glyphName="macron" x="137" y="720" flags="0x1004"/>
    </TTGlyph>
    <TTGlyph name="one" xMin="40" yMin="0" xMax="526" yMax="1761">
      <contour>
        <pt x="258" y="0" on="1"/>
        <pt x="258" y="1428" on="1"/>
        <pt x="224" y="1387" on="0"/>
        <pt x="100" y="1342" on="0"/>
        <pt x="40" y="1342" on="1"/>
        <pt x="40" y="1541" on="1"/>
        <pt x="125" y="1553" on="0"/>
        <pt x="278" y="1667" on="0"/>
        <pt x="318" y="1761" on="1"/>
        <pt x="526" y="1761" on="1"/>
        <pt x="526" y="0" on="1"/>
      </contour>
    </TTGlyph>
    <TTGlyph name="onehalf" xMin="90" yMin="0" xMax="1533" yMax="1767">
      <contour>
        <pt x="1296" y="1002" on="1"/>
        <pt x="1225" y="1002" on="0"/>
        <pt x="1225" y="834" on="1"/>
        <pt x="1225" y="689" on="1"/>
        <pt x="1055" y="689" on="1"/>
        <pt x="1054" y="759" on="1"/>
        <pt x="1054" y="918" on="0"/>
        <pt x="1094" y="1054" on="0"/>
        <pt x="1122" y="1084" on="1"/>
        <pt x="1181" y="1148" on="0"/>
        <pt x="1421" y="1148" on="0"/>
        <pt x="1533" y="974" on="0"/>
        <pt x="1533" y="751" on="0"/>
        <pt x="1487" y="594" on="0"/>
        <pt x="1414" y="467" on="0"/>
        <pt x="1376" y="408" on="1"/>
        <pt x="1277" y="256" on="0"/>
        <pt x="1245" y="138" on="1"/>
        <pt x="1521" y="138" on="1"/>
        <pt x="1521" y="0" on="1"/>
        <pt x="1057" y="0" on="1"/>
        <pt x="1057" y="58" on="1"/>
        <pt x="1057" y="163" on="0"/>
        <pt x="1245" y="541" on="0"/>
        <pt x="1313" y="624" on="1"/>
        <pt x="1365" y="706" on="0"/>
        <pt x="1365" y="932" on="0"/>
        <pt x="1330" y="1002" on="0"/>
      </contour>
      <contour>
        <pt x="232" y="551" on="1"/>
        <pt x="232" y="1466" on="1"/>
        <pt x="176" y="1419" on="0"/>
        <pt x="90" y="1419" on="1"/>
        <pt x="90" y="1538" on="1"/>
        <pt x="147" y="1543" on="0"/>
        <pt x="266" y="1624" on="0"/>
        <pt x="280" y="1680" on="1"/>
        <pt x="412" y="1680" on="1"/>
        <pt x="412" y="551" on="1"/>
      </contour>
      <contour>
        <pt x="423" y="0" on="1"/>
        <pt x="923" y="1767" on="1"/>
        <pt x="1112" y="1767" on="1"/>
        <pt x="612" y="0" on="1"/>
      </contour>
    </TTGlyph>
    <TTGlyph name="onequarter" xMin="90" yMin="0" xMax="1419" yMax="1767">
      <contour>
        <pt x="1191" y="0" on="1"/>
        <pt x="1191" y="192" on="1"/>
        <pt x="902" y="192" on="1"/>
        <pt x="902" y="306" on="1"/>
        <pt x="1127" y="1065" on="1"/>
        <pt x="1350" y="1065" on="1"/>
        <pt x="1350" y="324" on="1"/>
        <pt x="1419" y="324" on="1"/>
        <pt x="1419" y="192" on="1"/>
        <pt x="1350" y="192" on="1"/>
        <pt x="1350" y="0" on="1"/>
      </contour>
      <contour>
        <pt x="232" y="551" on="1"/>
        <pt x="232" y="1466" on="1"/>
        <pt x="176" y="1419" on="0"/>
        <pt x="90" y="1419" on="1"/>
        <pt x="90" y="1538" on="1"/>
        <pt x="147" y="1543" on="0"/>
        <pt x="266" y="1624" on="0"/>
        <pt x="280" y="1680" on="1"/>
        <pt x="412" y="1680" on="1"/>
        <pt x="412" y="551" on="1"/>
      </contour>
      <contour>
        <pt x="423" y="0" on="1"/>
        <pt x="923" y="1767" on="1"/>
        <pt x="1112" y="1767" on="1"/>
        <pt x="612" y="0" on="1"/>
      </contour>
      <contour>
        <pt x="1050" y="324" on="1"/>
        <pt x="1191" y="324" on="1"/>
        <pt x="1191" y="864" on="1"/>
      </contour>
    </TTGlyph>
    <TTGlyph name="ordfeminine" xMin="166" yMin="385" xMax="767" yMax="1607">
      <contour>
        <pt x="386" y="385" on="1"/>
        <pt x="269" y="385" on="0"/>
        <pt x="168" y="552" on="0"/>
        <pt x="166" y="709" on="1"/>
        <pt x="166" y="788" on="1"/>
        <pt x="166" y="901" on="0"/>
        <pt x="222" y="996" on="1"/>
        <pt x="240" y="1027" on="0"/>
        <pt x="359" y="1095" on="0"/>
        <pt x="422" y="1121" on="0"/>
        <pt x="553" y="1170" on="1"/>
        <pt x="553" y="1212" on="1"/>
        <pt x="553" y="1338" on="0"/>
        <pt x="545" y="1372" on="1"/>
        <pt x="530" y="1437" on="0"/>
        <pt x="425" y="1437" on="0"/>
        <pt x="391" y="1367" on="0"/>
        <pt x="391" y="1281" on="1"/>
        <pt x="391" y="1223" on="1"/>
        <pt x="183" y="1223" on="1"/>
        <pt x="182" y="1228" on="0"/>
        <pt x="182" y="1259" on="1"/>
        <pt x="182" y="1434" on="0"/>
        <pt x="313" y="1607" on="0"/>
        <pt x="632" y="1607" on="0"/>
        <pt x="767" y="1429" on="0"/>
        <pt x="767" y="1250" on="1"/>
        <pt x="767" y="397" on="1"/>
        <pt x="555" y="397" on="1"/>
        <pt x="555" y="507" on="1"/>
        <pt x="543" y="463" on="0"/>
        <pt x="448" y="385" on="0"/>
      </contour>
      <contour>
        <pt x="381" y="626" on="0"/>
        <pt x="416" y="553" on="0"/>
        <pt x="496" y="553" on="0"/>
        <pt x="545" y="606" on="0"/>
        <pt x="552" y="640" on="1"/>
        <pt x="552" y="1037" on="1"/>
        <pt x="449" y="993" on="0"/>
        <pt x="381" y="917" on="0"/>
        <pt x="381" y="831" on="1"/>
        <pt x="381" y="710" on="1"/>
      </contour>
    </TTGlyph>
    <TTGlyph name="ordmasculine" xMin="159" yMin="381" xMax="766" yMax="1606">
      <contour>
        <pt x="466" y="551" on="1"/>
        <pt x="551" y="551" on="0"/>
        <pt x="551" y="725" on="1"/>
        <pt x="551" y="1260" on="1"/>
        <pt x="551" y="1347" on="0"/>
        <pt x="513" y="1435" on="0"/>
        <pt x="413" y="1435" on="0"/>
        <pt x="375" y="1348" on="0"/>
        <pt x="375" y="1260" on="1"/>
        <pt x="375" y="725" on="1"/>
        <pt x="375" y="551" on="0"/>
      </contour>
      <contour>
        <pt x="464" y="381" on="1"/>
        <pt x="298" y="381" on="0"/>
        <pt x="159" y="580" on="0"/>
        <pt x="159" y="776" on="1"/>
        <pt x="159" y="1222" on="1"/>
        <pt x="159" y="1606" on="0"/>
        <pt x="464" y="1606" on="1"/>
        <pt x="637" y="1606" on="0"/>
        <pt x="766" y="1398" on="0"/>
        <pt x="766" y="1222" on="1"/>
        <pt x="766" y="776" on="1"/>
        <pt x="766" y="479" on="0"/>
        <pt x="608" y="408" on="1"/>
        <pt x="548" y="381" on="0"/>
      </contour>
    </TTGlyph>
    <TTGlyph name="oslash" xMin="110" yMin="-173" xMax="860" yMax="1672">
      <contour>
        <pt x="573" y="1242" on="1"/>
        <pt x="533" y="1293" on="0"/>
        <pt x="486" y="1304" on="1"/>
        <pt x="423" y="1304" on="0"/>
        <pt x="377" y="1195" on="0"/>
        <pt x="377" y="1084" on="1"/>
        <pt x="377" y="544" on="1"/>
      </contour>
      <contour>
        <pt x="240" y="55" on="1"/>
        <pt x="110" y="165" on="0"/>
        <pt x="110" y="476" on="1"/>
        <pt x="110" y="1037" on="1"/>
        <pt x="110" y="1518" on="0"/>
        <pt x="486" y="1518" on="1"/>
        <pt x="575" y="1518" on="0"/>
        <pt x="642" y="1491" on="1"/>
        <pt x="693" y="1672" on="1"/>
        <pt x="794" y="1644" on="1"/>
        <pt x="735" y="1433" on="1"/>
        <pt x="860" y="1316" on="0"/>
        <pt x="860" y="1037" on="1"/>
        <pt x="860" y="476" on="1"/>
        <pt x="860" y="101" on="0"/>
        <pt x="667" y="15" on="1"/>
        <pt x="593" y="-18" on="0"/>
        <pt x="399" y="-18" on="0"/>
        <pt x="334" y="4" on="1"/>
        <pt x="284" y="-173" on="1"/>
        <pt x="184" y="-145" on="1"/>
      </contour>
      <contour>
        <pt x="402" y="247" on="1"/>
        <pt x="426" y="196" on="0"/>
        <pt x="548" y="196" on="0"/>
        <pt x="593" y="305" on="0"/>
        <pt x="593" y="413" on="1"/>
        <pt x="593" y="928" on="1"/>
      </contour>
    </TTGlyph>
    <TTGlyph name="otilde" xMin="110" yMin="-18" xMax="860" yMax="1881">
      <component glyphName="tilde" x="-73" y="720" flags="0x1004"/>
      <component glyphName="o" x="0" y="0" flags="0x1004"/>
    </TTGlyph>
    <TTGlyph name="p" xMin="132" yMin="-285" xMax="888" yMax="1515">
      <contour>
        <pt x="132" y="-285" on="1"/>
        <pt x="132" y="1500" on="1"/>
        <pt x="397" y="1500" on="1"/>
        <pt x="397" y="1365" on="1"/>
        <pt x="425" y="1436" on="0"/>
        <pt x="547" y="1515" on="0"/>
        <pt x="680" y="1515" on="0"/>
        <pt x="730" y="1491" on="1"/>
        <pt x="823" y="1446" on="0"/>
        <pt x="888" y="1219" on="0"/>
        <pt x="888" y="1048" on="1"/>
        <pt x="888" y="501" on="1"/>
        <pt x="888" y="237" on="0"/>
        <pt x="786" y="30" on="0"/>
        <pt x="700" y="0" on="1"/>
        <pt x="650" y="-18" on="0"/>
        <pt x="529" y="-18" on="0"/>
        <pt x="428" y="44" on="0"/>
        <pt x="397" y="91" on="1"/>
        <pt x="397" y="-285" on="1"/>
      </contour>
      <contour>
        <pt x="397" y="314" on="0"/>
        <pt x="445" y="197" on="0"/>
        <pt x="577" y="197" on="0"/>
        <pt x="621" y="318" on="0"/>
        <pt x="621" y="450" on="1"/>
        <pt x="621" y="1072" on="1"/>
        <pt x="621" y="1252" on="0"/>
        <pt x="572" y="1288" on="1"/>
        <pt x="550" y="1304" on="0"/>
        <pt x="516" y="1304" on="1"/>
        <pt x="456" y="1304" on="0"/>
        <pt x="397" y="1205" on="0"/>
        <pt x="397" y="1073" on="1"/>
        <pt x="397" y="439" on="1"/>
      </contour>
    </TTGlyph>
    <TTGlyph name="paragraph" xMin="109" yMin="0" xMax="973" yMax="1761">
      <contour>
        <pt x="442" y="0" on="1"/>
        <pt x="442" y="1087" on="1"/>
        <pt x="272" y="1106" on="0"/>
        <pt x="109" y="1274" on="0"/>
        <pt x="109" y="1437" on="1"/>
        <pt x="109" y="1664" on="0"/>
        <pt x="304" y="1724" on="1"/>
        <pt x="424" y="1761" on="0"/>
        <pt x="641" y="1761" on="1"/>
        <pt x="973" y="1761" on="1"/>
        <pt x="973" y="0" on="1"/>
        <pt x="779" y="0" on="1"/>
        <pt x="779" y="1527" on="1"/>
        <pt x="636" y="1527" on="1"/>
        <pt x="636" y="0" on="1"/>
      </contour>
    </TTGlyph>
    <TTGlyph name="parenleft" xMin="129" yMin="-136" xMax="534" yMax="1823">
      <contour>
        <pt x="534" y="-136" on="1"/>
        <pt x="417" y="-136" on="0"/>
        <pt x="271" y="-98" on="0"/>
        <pt x="170" y="3" on="0"/>
        <pt x="129" y="176" on="0"/>
        <pt x="129" y="313" on="1"/>
        <pt x="129" y="1374" on="1"/>
        <pt x="129" y="1511" on="0"/>
        <pt x="170" y="1684" on="0"/>
        <pt x="271" y="1785" on="0"/>
        <pt x="417" y="1823" on="0"/>
        <pt x="534" y="1823" on="1"/>
        <pt x="534" y="1623" on="1"/>
        <pt x="445" y="1623" on="0"/>
        <pt x="395" y="1530" on="0"/>
        <pt x="395" y="1378" on="1"/>
        <pt x="395" y="309" on="1"/>
        <pt x="395" y="157" on="0"/>
        <pt x="445" y="64" on="0"/>
        <pt x="534" y="64" on="1"/>
      </contour>
    </TTGlyph>
    <TTGlyph name="parenright" xMin="86" yMin="-136" xMax="490" yMax="1823">
      <contour>
        <pt x="86" y="-136" on="1"/>
        <pt x="86" y="64" on="1"/>
        <pt x="175" y="64" on="0"/>
        <pt x="225" y="157" on="0"/>
        <pt x="225" y="309" on="1"/>
        <pt x="225" y="1378" on="1"/>
        <pt x="225" y="1530" on="0"/>
        <pt x="175" y="1623" on="0"/>
        <pt x="86" y="1623" on="1"/>
        <pt x="86" y="1823" on="1"/>
        <pt x="203" y="1823" on="0"/>
        <pt x="349" y="1785" on="0"/>
        <pt x="449" y="1684" on="0"/>
        <pt x="490" y="1511" on="0"/>
        <pt x="490" y="1374" on="1"/>
        <pt x="490" y="313" on="1"/>
        <pt x="490" y="176" on="0"/>
        <pt x="449" y="3" on="0"/>
        <pt x="349" y="-98" on="0"/>
        <pt x="203" y="-136" on="0"/>
      </contour>
    </TTGlyph>
    <TTGlyph name="partialdiff" xMin="163" yMin="-26" xMax="931" yMax="1655">
      <contour>
        <pt x="721" y="1304" on="1"/>
        <pt x="721" y="1480" on="0"/>
        <pt x="548" y="1480" on="1"/>
        <pt x="489" y="1480" on="0"/>
        <pt x="373" y="1456" on="1"/>
        <pt x="339" y="1617" on="1"/>
        <pt x="472" y="1655" on="0"/>
        <pt x="679" y="1655" on="0"/>
        <pt x="834" y="1589" on="0"/>
        <pt x="931" y="1430" on="0"/>
        <pt x="931" y="1295" on="1"/>
        <pt x="931" y="1232" on="0"/>
        <pt x="920" y="1159" on="1"/>
        <pt x="780" y="246" on="1"/>
        <pt x="751" y="54" on="0"/>
        <pt x="559" y="-9" on="1"/>
        <pt x="506" y="-26" on="0"/>
        <pt x="450" y="-26" on="1"/>
        <pt x="333" y="-26" on="0"/>
        <pt x="163" y="136" on="0"/>
        <pt x="163" y="284" on="1"/>
        <pt x="163" y="313" on="0"/>
        <pt x="174" y="391" on="0"/>
        <pt x="192" y="548" on="0"/>
        <pt x="200" y="609" on="0"/>
        <pt x="216" y="720" on="0"/>
        <pt x="230" y="778" on="0"/>
        <pt x="253" y="869" on="0"/>
        <pt x="278" y="919" on="0"/>
        <pt x="312" y="984" on="0"/>
        <pt x="353" y="1019" on="0"/>
        <pt x="426" y="1068" on="0"/>
        <pt x="583" y="1068" on="0"/>
        <pt x="685" y="1034" on="1"/>
        <pt x="719" y="1265" on="1"/>
        <pt x="721" y="1285" on="0"/>
      </contour>
      <contour>
        <pt x="647" y="879" on="1"/>
        <pt x="594" y="901" on="0"/>
        <pt x="554" y="901" on="1"/>
        <pt x="473" y="901" on="0"/>
        <pt x="450" y="745" on="1"/>
        <pt x="392" y="357" on="1"/>
        <pt x="386" y="299" on="0"/>
        <pt x="386" y="263" on="1"/>
        <pt x="386" y="175" on="0"/>
        <pt x="459" y="175" on="1"/>
        <pt x="547" y="175" on="0"/>
        <pt x="560" y="301" on="1"/>
      </contour>
    </TTGlyph>
    <TTGlyph name="percent" xMin="130" yMin="-21" xMax="2080" yMax="1781">
      <contour>
        <pt x="405" y="768" on="0"/>
        <pt x="531" y="768" on="0"/>
        <pt x="580" y="847" on="0"/>
        <pt x="580" y="939" on="1"/>
        <pt x="580" y="1431" on="1"/>
        <pt x="580" y="1521" on="0"/>
        <pt x="534" y="1594" on="0"/>
        <pt x="403" y="1594" on="0"/>
        <pt x="356" y="1521" on="0"/>
        <pt x="356" y="1431" on="1"/>
        <pt x="356" y="939" on="1"/>
        <pt x="356" y="847" on="0"/>
      </contour>
      <contour>
        <pt x="645" y="580" on="0"/>
        <pt x="291" y="580" on="0"/>
        <pt x="130" y="785" on="0"/>
        <pt x="130" y="1005" on="1"/>
        <pt x="130" y="1363" on="1"/>
        <pt x="130" y="1586" on="0"/>
        <pt x="285" y="1781" on="0"/>
        <pt x="651" y="1781" on="0"/>
        <pt x="806" y="1586" on="0"/>
        <pt x="806" y="1363" on="1"/>
        <pt x="806" y="1005" on="1"/>
        <pt x="806" y="785" on="0"/>
      </contour>
      <contour>
        <pt x="1629" y="246" on="0"/>
        <pt x="1678" y="167" on="0"/>
        <pt x="1805" y="167" on="0"/>
        <pt x="1854" y="247" on="0"/>
        <pt x="1854" y="338" on="1"/>
        <pt x="1854" y="830" on="1"/>
        <pt x="1854" y="920" on="0"/>
        <pt x="1807" y="993" on="0"/>
        <pt x="1676" y="993" on="0"/>
        <pt x="1629" y="920" on="0"/>
        <pt x="1629" y="830" on="1"/>
        <pt x="1629" y="338" on="1"/>
      </contour>
      <contour>
        <pt x="2080" y="184" on="0"/>
        <pt x="1919" y="-21" on="0"/>
        <pt x="1564" y="-21" on="0"/>
        <pt x="1403" y="184" on="0"/>
        <pt x="1403" y="404" on="1"/>
        <pt x="1403" y="762" on="1"/>
        <pt x="1403" y="985" on="0"/>
        <pt x="1558" y="1180" on="0"/>
        <pt x="1924" y="1180" on="0"/>
        <pt x="2080" y="985" on="0"/>
        <pt x="2080" y="762" on="1"/>
        <pt x="2080" y="404" on="1"/>
      </contour>
      <contour>
        <pt x="662" y="0" on="1"/>
        <pt x="1347" y="1761" on="1"/>
        <pt x="1551" y="1761" on="1"/>
        <pt x="875" y="0" on="1"/>
      </contour>
    </TTGlyph>
    <TTGlyph name="period" xMin="149" yMin="0" xMax="374" yMax="246">
      <contour>
        <pt x="149" y="0" on="1"/>
        <pt x="149" y="246" on="1"/>
        <pt x="374" y="246" on="1"/>
        <pt x="374" y="0" on="1"/>
      </contour>
    </TTGlyph>
    <TTGlyph name="periodcentered" xMin="132" yMin="750" xMax="363" yMax="995">
      <contour>
        <pt x="132" y="750" on="1"/>
        <pt x="132" y="995" on="1"/>
        <pt x="363" y="995" on="1"/>
        <pt x="363" y="750" on="1"/>
      </contour>
    </TTGlyph>
    <TTGlyph name="perthousand" xMin="130" yMin="-21" xMax="2978" yMax="1781">
      <contour>
        <pt x="405" y="768" on="0"/>
        <pt x="531" y="768" on="0"/>
        <pt x="580" y="847" on="0"/>
        <pt x="580" y="939" on="1"/>
        <pt x="580" y="1431" on="1"/>
        <pt x="580" y="1521" on="0"/>
        <pt x="534" y="1594" on="0"/>
        <pt x="403" y="1594" on="0"/>
        <pt x="356" y="1521" on="0"/>
        <pt x="356" y="1431" on="1"/>
        <pt x="356" y="939" on="1"/>
        <pt x="356" y="847" on="0"/>
      </contour>
      <contour>
        <pt x="645" y="580" on="0"/>
        <pt x="291" y="580" on="0"/>
        <pt x="130" y="785" on="0"/>
        <pt x="130" y="1005" on="1"/>
        <pt x="130" y="1363" on="1"/>
        <pt x="130" y="1586" on="0"/>
        <pt x="285" y="1781" on="0"/>
        <pt x="651" y="1781" on="0"/>
        <pt x="806" y="1586" on="0"/>
        <pt x="806" y="1363" on="1"/>
        <pt x="806" y="1005" on="1"/>
        <pt x="806" y="785" on="0"/>
      </contour>
      <contour>
        <pt x="1689" y="167" on="0"/>
        <pt x="1815" y="167" on="0"/>
        <pt x="1864" y="246" on="0"/>
        <pt x="1864" y="338" on="1"/>
        <pt x="1864" y="830" on="1"/>
        <pt x="1864" y="920" on="0"/>
        <pt x="1818" y="993" on="0"/>
        <pt x="1687" y="993" on="0"/>
        <pt x="1640" y="920" on="0"/>
        <pt x="1640" y="830" on="1"/>
        <pt x="1640" y="338" on="1"/>
        <pt x="1640" y="246" on="0"/>
      </contour>
      <contour>
        <pt x="1929" y="-21" on="0"/>
        <pt x="1575" y="-21" on="0"/>
        <pt x="1414" y="184" on="0"/>
        <pt x="1414" y="404" on="1"/>
        <pt x="1414" y="762" on="1"/>
        <pt x="1414" y="985" on="0"/>
        <pt x="1569" y="1180" on="0"/>
        <pt x="1935" y="1180" on="0"/>
        <pt x="2090" y="985" on="0"/>
        <pt x="2090" y="762" on="1"/>
        <pt x="2090" y="404" on="1"/>
        <pt x="2090" y="184" on="0"/>
      </contour>
      <contour>
        <pt x="2527" y="247" on="0"/>
        <pt x="2576" y="167" on="0"/>
        <pt x="2703" y="167" on="0"/>
        <pt x="2752" y="247" on="0"/>
        <pt x="2752" y="338" on="1"/>
        <pt x="2752" y="830" on="1"/>
        <pt x="2752" y="920" on="0"/>
        <pt x="2705" y="993" on="0"/>
        <pt x="2574" y="993" on="0"/>
        <pt x="2527" y="920" on="0"/>
        <pt x="2527" y="830" on="1"/>
        <pt x="2527" y="338" on="1"/>
      </contour>
      <contour>
        <pt x="2978" y="184" on="0"/>
        <pt x="2817" y="-21" on="0"/>
        <pt x="2462" y="-21" on="0"/>
        <pt x="2301" y="184" on="0"/>
        <pt x="2301" y="404" on="1"/>
        <pt x="2301" y="762" on="1"/>
        <pt x="2301" y="985" on="0"/>
        <pt x="2456" y="1180" on="0"/>
        <pt x="2822" y="1180" on="0"/>
        <pt x="2978" y="985" on="0"/>
        <pt x="2978" y="762" on="1"/>
        <pt x="2978" y="404" on="1"/>
      </contour>
      <contour>
        <pt x="662" y="0" on="1"/>
        <pt x="1347" y="1761" on="1"/>
        <pt x="1551" y="1761" on="1"/>
        <pt x="875" y="0" on="1"/>
      </contour>
    </TTGlyph>
    <TTGlyph name="plus" xMin="94" yMin="421" xMax="713" yMax="1062">
      <contour>
        <pt x="312" y="421" on="1"/>
        <pt x="312" y="654" on="1"/>
        <pt x="94" y="654" on="1"/>
        <pt x="94" y="831" on="1"/>
        <pt x="312" y="831" on="1"/>
        <pt x="312" y="1062" on="1"/>
        <pt x="494" y="1062" on="1"/>
        <pt x="494" y="831" on="1"/>
        <pt x="713" y="831" on="1"/>
        <pt x="713" y="654" on="1"/>
        <pt x="494" y="654" on="1"/>
        <pt x="494" y="421" on="1"/>
      </contour>
    </TTGlyph>
    <TTGlyph name="plusminus" xMin="118" yMin="112" xMax="738" yMax="1116">
      <contour>
        <pt x="336" y="475" on="1"/>
        <pt x="336" y="708" on="1"/>
        <pt x="118" y="708" on="1"/>
        <pt x="118" y="885" on="1"/>
        <pt x="336" y="885" on="1"/>
        <pt x="336" y="1116" on="1"/>
        <pt x="518" y="1116" on="1"/>
        <pt x="518" y="885" on="1"/>
        <pt x="738" y="885" on="1"/>
        <pt x="738" y="708" on="1"/>
        <pt x="518" y="708" on="1"/>
        <pt x="518" y="475" on="1"/>
      </contour>
      <contour>
        <pt x="156" y="112" on="1"/>
        <pt x="156" y="295" on="1"/>
        <pt x="672" y="295" on="1"/>
        <pt x="672" y="112" on="1"/>
      </contour>
    </TTGlyph>
    <TTGlyph name="product" xMin="136" yMin="0" xMax="896" yMax="1761">
      <contour>
        <pt x="136" y="0" on="1"/>
        <pt x="136" y="1761" on="1"/>
        <pt x="896" y="1761" on="1"/>
        <pt x="896" y="0" on="1"/>
        <pt x="634" y="0" on="1"/>
        <pt x="634" y="1543" on="1"/>
        <pt x="399" y="1543" on="1"/>
        <pt x="399" y="0" on="1"/>
      </contour>
    </TTGlyph>
    <TTGlyph name="q" xMin="110" yMin="-285" xMax="862" yMax="1515">
      <contour>
        <pt x="110" y="1048" on="1"/>
        <pt x="110" y="1515" on="0"/>
        <pt x="383" y="1515" on="1"/>
        <pt x="541" y="1515" on="0"/>
        <pt x="597" y="1386" on="1"/>
        <pt x="597" y="1500" on="1"/>
        <pt x="862" y="1500" on="1"/>
        <pt x="862" y="-285" on="1"/>
        <pt x="597" y="-285" on="1"/>
        <pt x="597" y="102" on="1"/>
        <pt x="576" y="52" on="0"/>
        <pt x="472" y="-18" on="0"/>
        <pt x="338" y="-18" on="0"/>
        <pt x="284" y="7" on="1"/>
        <pt x="184" y="54" on="0"/>
        <pt x="110" y="296" on="0"/>
        <pt x="110" y="481" on="1"/>
      </contour>
      <contour>
        <pt x="478" y="196" on="1"/>
        <pt x="542" y="196" on="0"/>
        <pt x="597" y="299" on="0"/>
        <pt x="597" y="429" on="1"/>
        <pt x="597" y="1063" on="1"/>
        <pt x="597" y="1189" on="0"/>
        <pt x="545" y="1303" on="0"/>
        <pt x="415" y="1303" on="0"/>
        <pt x="376" y="1181" on="0"/>
        <pt x="376" y="1058" on="1"/>
        <pt x="376" y="436" on="1"/>
        <pt x="376" y="250" on="0"/>
        <pt x="422" y="213" on="1"/>
        <pt x="444" y="196" on="0"/>
      </contour>
    </TTGlyph>
    <TTGlyph name="question" xMin="120" yMin="1" xMax="816" yMax="1781">
      <contour>
        <pt x="251" y="494" on="1"/>
        <pt x="251" y="810" on="1"/>
        <pt x="343" y="834" on="0"/>
        <pt x="419" y="877" on="0"/>
        <pt x="462" y="906" on="0"/>
        <pt x="514" y="980" on="0"/>
        <pt x="547" y="1119" on="0"/>
        <pt x="547" y="1284" on="1"/>
        <pt x="547" y="1350" on="1"/>
        <pt x="547" y="1476" on="0"/>
        <pt x="533" y="1513" on="0"/>
        <pt x="509" y="1549" on="0"/>
        <pt x="476" y="1549" on="1"/>
        <pt x="397" y="1549" on="0"/>
        <pt x="387" y="1474" on="1"/>
        <pt x="381" y="1426" on="0"/>
        <pt x="381" y="1336" on="1"/>
        <pt x="381" y="1160" on="1"/>
        <pt x="120" y="1160" on="1"/>
        <pt x="120" y="1376" on="1"/>
        <pt x="120" y="1781" on="0"/>
        <pt x="465" y="1781" on="1"/>
        <pt x="653" y="1781" on="0"/>
        <pt x="730" y="1685" on="1"/>
        <pt x="781" y="1622" on="0"/>
        <pt x="815" y="1428" on="0"/>
        <pt x="815" y="1300" on="1"/>
        <pt x="815" y="1274" on="0"/>
        <pt x="815" y="1272" on="1"/>
        <pt x="815" y="1261" on="0"/>
        <pt x="815" y="1250" on="1"/>
        <pt x="815" y="1241" on="0"/>
        <pt x="815" y="1232" on="1"/>
        <pt x="815" y="1162" on="0"/>
        <pt x="808" y="1094" on="1"/>
        <pt x="789" y="914" on="0"/>
        <pt x="718" y="823" on="1"/>
        <pt x="645" y="730" on="0"/>
        <pt x="487" y="684" on="1"/>
        <pt x="487" y="494" on="1"/>
      </contour>
      <contour>
        <pt x="257" y="1" on="1"/>
        <pt x="257" y="299" on="1"/>
        <pt x="489" y="299" on="1"/>
        <pt x="489" y="1" on="1"/>
      </contour>
    </TTGlyph>
    <TTGlyph name="questiondown" xMin="160" yMin="-283" xMax="856" yMax="1497">
      <component glyphName="question" x="976" y="1498" scale="-1.0" flags="0x1004"/>
    </TTGlyph>
    <TTGlyph name="quotedbl" xMin="170" yMin="1125" xMax="780" yMax="1761">
      <contour>
        <pt x="241" y="1125" on="1"/>
        <pt x="170" y="1761" on="1"/>
        <pt x="415" y="1761" on="1"/>
        <pt x="349" y="1125" on="1"/>
      </contour>
      <contour>
        <pt x="606" y="1125" on="1"/>
        <pt x="536" y="1761" on="1"/>
        <pt x="780" y="1761" on="1"/>
        <pt x="714" y="1125" on="1"/>
      </contour>
    </TTGlyph>
    <TTGlyph name="quotedblbase" xMin="151" yMin="-373" xMax="947" yMax="261">
      <contour>
        <pt x="208" y="-373" on="1"/>
        <pt x="286" y="0" on="1"/>
        <pt x="151" y="0" on="1"/>
        <pt x="151" y="261" on="1"/>
        <pt x="481" y="261" on="1"/>
        <pt x="481" y="8" on="1"/>
        <pt x="372" y="-373" on="1"/>
      </contour>
      <contour>
        <pt x="674" y="-373" on="1"/>
        <pt x="752" y="0" on="1"/>
        <pt x="617" y="0" on="1"/>
        <pt x="617" y="261" on="1"/>
        <pt x="947" y="261" on="1"/>
        <pt x="947" y="8" on="1"/>
        <pt x="838" y="-373" on="1"/>
      </contour>
    </TTGlyph>
    <TTGlyph name="quotedblleft" xMin="140" yMin="1141" xMax="937" yMax="1775">
      <contour>
        <pt x="140" y="1141" on="1"/>
        <pt x="140" y="1394" on="1"/>
        <pt x="250" y="1775" on="1"/>
        <pt x="414" y="1775" on="1"/>
        <pt x="336" y="1403" on="1"/>
        <pt x="471" y="1403" on="1"/>
        <pt x="471" y="1141" on="1"/>
      </contour>
      <contour>
        <pt x="606" y="1141" on="1"/>
        <pt x="606" y="1394" on="1"/>
        <pt x="716" y="1775" on="1"/>
        <pt x="880" y="1775" on="1"/>
        <pt x="802" y="1403" on="1"/>
        <pt x="937" y="1403" on="1"/>
        <pt x="937" y="1141" on="1"/>
      </contour>
    </TTGlyph>
    <TTGlyph name="quotedblright" xMin="155" yMin="1141" xMax="952" yMax="1775">
      <contour>
        <pt x="212" y="1141" on="1"/>
        <pt x="290" y="1513" on="1"/>
        <pt x="155" y="1513" on="1"/>
        <pt x="155" y="1775" on="1"/>
        <pt x="486" y="1775" on="1"/>
        <pt x="486" y="1522" on="1"/>
        <pt x="376" y="1141" on="1"/>
      </contour>
      <contour>
        <pt x="678" y="1141" on="1"/>
        <pt x="756" y="1513" on="1"/>
        <pt x="621" y="1513" on="1"/>
        <pt x="621" y="1775" on="1"/>
        <pt x="952" y="1775" on="1"/>
        <pt x="952" y="1522" on="1"/>
        <pt x="842" y="1141" on="1"/>
      </contour>
    </TTGlyph>
    <TTGlyph name="quoteleft" xMin="119" yMin="1065" xMax="468" yMax="1775">
      <contour>
        <pt x="119" y="1065" on="1"/>
        <pt x="119" y="1336" on="1"/>
        <pt x="255" y="1775" on="1"/>
        <pt x="408" y="1775" on="1"/>
        <pt x="315" y="1345" on="1"/>
        <pt x="468" y="1345" on="1"/>
        <pt x="468" y="1065" on="1"/>
      </contour>
    </TTGlyph>
    <TTGlyph name="quoteright" xMin="129" yMin="1065" xMax="478" yMax="1775">
      <contour>
        <pt x="188" y="1065" on="1"/>
        <pt x="282" y="1494" on="1"/>
        <pt x="129" y="1494" on="1"/>
        <pt x="129" y="1775" on="1"/>
        <pt x="478" y="1775" on="1"/>
        <pt x="478" y="1503" on="1"/>
        <pt x="342" y="1065" on="1"/>
      </contour>
    </TTGlyph>
    <TTGlyph name="quotesinglbase" xMin="80" yMin="-324" xMax="411" yMax="258">
      <contour>
        <pt x="138" y="-324" on="1"/>
        <pt x="216" y="0" on="1"/>
        <pt x="80" y="0" on="1"/>
        <pt x="80" y="258" on="1"/>
        <pt x="411" y="258" on="1"/>
        <pt x="411" y="9" on="1"/>
        <pt x="302" y="-324" on="1"/>
      </contour>
    </TTGlyph>
    <TTGlyph name="quotesingle" xMin="100" yMin="1125" xMax="338" yMax="1761">
      <contour>
        <pt x="160" y="1125" on="1"/>
        <pt x="100" y="1761" on="1"/>
        <pt x="338" y="1761" on="1"/>
        <pt x="273" y="1125" on="1"/>
      </contour>
    </TTGlyph>
    <TTGlyph name="r" xMin="132" yMin="0" xMax="658" yMax="1518">
      <contour>
        <pt x="654" y="1518" on="1"/>
        <pt x="658" y="1518" on="0"/>
        <pt x="658" y="1350" on="1"/>
        <pt x="657" y="1294" on="1"/>
        <pt x="577" y="1294" on="0"/>
        <pt x="423" y="1240" on="0"/>
        <pt x="399" y="1190" on="1"/>
        <pt x="399" y="0" on="1"/>
        <pt x="132" y="0" on="1"/>
        <pt x="132" y="1500" on="1"/>
        <pt x="399" y="1500" on="1"/>
        <pt x="399" y="1333" on="1"/>
        <pt x="425" y="1421" on="0"/>
        <pt x="556" y="1518" on="0"/>
      </contour>
    </TTGlyph>
    <TTGlyph name="racute" xMin="132" yMin="0" xMax="658" yMax="1986">
      <component glyphName="r" x="0" y="0" flags="0x1004"/>
      <component glyphName="acute" x="85" y="-125" flags="0x1004"/>
    </TTGlyph>
    <TTGlyph name="radical" xMin="99" yMin="0" xMax="1172" yMax="1500">
      <contour>
        <pt x="288" y="0" on="1"/>
        <pt x="99" y="741" on="1"/>
        <pt x="358" y="741" on="1"/>
        <pt x="432" y="288" on="1"/>
        <pt x="660" y="1500" on="1"/>
        <pt x="1172" y="1500" on="1"/>
        <pt x="1172" y="1300" on="1"/>
        <pt x="876" y="1300" on="1"/>
        <pt x="612" y="0" on="1"/>
      </contour>
    </TTGlyph>
    <TTGlyph name="rcaron" xMin="52" yMin="0" xMax="731" yMax="1946">
      <component glyphName="r" x="0" y="0" flags="0x1004"/>
      <component glyphName="caron" x="-93" y="0" flags="0x1004"/>
    </TTGlyph>
    <TTGlyph name="rcommaaccent" xMin="132" yMin="-732" xMax="658" yMax="1518">
      <component glyphName="uni0326" x="41" y="-170" flags="0x1004"/>
      <component glyphName="r" x="0" y="0" flags="0x1004"/>
    </TTGlyph>
    <TTGlyph name="registered" xMin="94" yMin="205" xMax="1408" yMax="1519">
      <contour>
        <pt x="529" y="430" on="1"/>
        <pt x="529" y="1282" on="1"/>
        <pt x="818" y="1282" on="1"/>
        <pt x="919" y="1282" on="0"/>
        <pt x="989" y="1164" on="0"/>
        <pt x="989" y="971" on="0"/>
        <pt x="948" y="890" on="0"/>
        <pt x="896" y="873" on="1"/>
        <pt x="975" y="858" on="0"/>
        <pt x="975" y="751" on="1"/>
        <pt x="975" y="430" on="1"/>
        <pt x="791" y="430" on="1"/>
        <pt x="791" y="762" on="1"/>
        <pt x="791" y="797" on="0"/>
        <pt x="760" y="818" on="0"/>
        <pt x="719" y="818" on="1"/>
        <pt x="719" y="430" on="1"/>
      </contour>
      <contour>
        <pt x="610" y="334" on="0"/>
        <pt x="892" y="334" on="0"/>
        <pt x="1122" y="476" on="0"/>
        <pt x="1249" y="718" on="0"/>
        <pt x="1249" y="1006" on="0"/>
        <pt x="1122" y="1248" on="0"/>
        <pt x="892" y="1390" on="0"/>
        <pt x="610" y="1390" on="0"/>
        <pt x="380" y="1248" on="0"/>
        <pt x="253" y="1006" on="0"/>
        <pt x="253" y="718" on="0"/>
        <pt x="380" y="476" on="0"/>
      </contour>
      <contour>
        <pt x="935" y="205" on="0"/>
        <pt x="567" y="205" on="0"/>
        <pt x="266" y="377" on="0"/>
        <pt x="94" y="678" on="0"/>
        <pt x="94" y="1046" on="0"/>
        <pt x="266" y="1347" on="0"/>
        <pt x="567" y="1519" on="0"/>
        <pt x="935" y="1519" on="0"/>
        <pt x="1236" y="1347" on="0"/>
        <pt x="1408" y="1046" on="0"/>
        <pt x="1408" y="678" on="0"/>
        <pt x="1236" y="377" on="0"/>
      </contour>
      <contour>
        <pt x="720" y="965" on="1"/>
        <pt x="768" y="965" on="1"/>
        <pt x="805" y="965" on="0"/>
        <pt x="805" y="1095" on="0"/>
        <pt x="774" y="1124" on="0"/>
        <pt x="720" y="1124" on="1"/>
      </contour>
    </TTGlyph>
    <TTGlyph name="ring" xMin="228" yMin="906" xMax="694" yMax="1354">
      <contour>
        <pt x="406" y="1000" on="0"/>
        <pt x="518" y="1000" on="0"/>
        <pt x="581" y="1078" on="0"/>
        <pt x="581" y="1184" on="0"/>
        <pt x="518" y="1261" on="0"/>
        <pt x="406" y="1261" on="0"/>
        <pt x="343" y="1184" on="0"/>
        <pt x="343" y="1078" on="0"/>
      </contour>
      <contour>
        <pt x="694" y="1032" on="0"/>
        <pt x="569" y="906" on="0"/>
        <pt x="354" y="906" on="0"/>
        <pt x="228" y="1032" on="0"/>
        <pt x="228" y="1228" on="0"/>
        <pt x="354" y="1354" on="0"/>
        <pt x="569" y="1354" on="0"/>
        <pt x="694" y="1228" on="0"/>
      </contour>
    </TTGlyph>
    <TTGlyph name="s" xMin="82" yMin="-19" xMax="801" yMax="1518">
      <contour>
        <pt x="82" y="1150" on="1"/>
        <pt x="82" y="1518" on="0"/>
        <pt x="436" y="1518" on="1"/>
        <pt x="612" y="1518" on="0"/>
        <pt x="775" y="1317" on="0"/>
        <pt x="775" y="1083" on="1"/>
        <pt x="775" y="1001" on="1"/>
        <pt x="538" y="1001" on="1"/>
        <pt x="538" y="1100" on="1"/>
        <pt x="538" y="1202" on="0"/>
        <pt x="492" y="1301" on="0"/>
        <pt x="385" y="1301" on="0"/>
        <pt x="334" y="1239" on="0"/>
        <pt x="334" y="1164" on="1"/>
        <pt x="334" y="1045" on="0"/>
        <pt x="440" y="943" on="1"/>
        <pt x="582" y="814" on="1"/>
        <pt x="801" y="610" on="0"/>
        <pt x="801" y="365" on="1"/>
        <pt x="801" y="173" on="0"/>
        <pt x="627" y="-19" on="0"/>
        <pt x="261" y="-19" on="0"/>
        <pt x="87" y="190" on="0"/>
        <pt x="87" y="421" on="1"/>
        <pt x="87" y="518" on="1"/>
        <pt x="336" y="518" on="1"/>
        <pt x="336" y="397" on="1"/>
        <pt x="336" y="197" on="0"/>
        <pt x="438" y="197" on="1"/>
        <pt x="492" y="197" on="0"/>
        <pt x="540" y="268" on="0"/>
        <pt x="540" y="353" on="1"/>
        <pt x="540" y="503" on="0"/>
        <pt x="402" y="631" on="1"/>
        <pt x="398" y="635" on="0"/>
        <pt x="277" y="743" on="0"/>
        <pt x="267" y="753" on="1"/>
        <pt x="82" y="922" on="0"/>
      </contour>
    </TTGlyph>
    <TTGlyph name="sacute" xMin="82" yMin="-19" xMax="801" yMax="1986">
      <component glyphName="s" x="0" y="0" flags="0x1004"/>
      <component glyphName="acute" x="146" y="-125" flags="0x1004"/>
    </TTGlyph>
    <TTGlyph name="scaron" xMin="82" yMin="-19" xMax="801" yMax="1946">
      <component glyphName="s" x="0" y="0" flags="0x1004"/>
      <component glyphName="caron" x="-33" y="0" flags="0x1004"/>
    </TTGlyph>
    <TTGlyph name="scedilla" xMin="82" yMin="-638" xMax="801" yMax="1518">
      <component glyphName="cedilla" x="-86" y="0" flags="0x1004"/>
      <component glyphName="s" x="0" y="0" flags="0x1004"/>
    </TTGlyph>
    <TTGlyph name="scircumflex" xMin="82" yMin="-19" xMax="801" yMax="1945">
      <component glyphName="s" x="0" y="0" flags="0x1004"/>
      <component glyphName="circumflex" x="-33" y="0" flags="0x1004"/>
    </TTGlyph>
    <TTGlyph name="scommaaccent" xMin="82" yMin="-732" xMax="801" yMax="1518">
      <component glyphName="uni0326" x="148" y="-170" flags="0x1004"/>
      <component glyphName="s" x="0" y="0" flags="0x1004"/>
    </TTGlyph>
    <TTGlyph name="section" xMin="107" yMin="-20" xMax="855" yMax="1781">
      <contour>
        <pt x="492" y="220" on="1"/>
        <pt x="566" y="220" on="0"/>
        <pt x="566" y="287" on="1"/>
        <pt x="566" y="333" on="0"/>
        <pt x="541" y="372" on="0"/>
        <pt x="525" y="395" on="0"/>
        <pt x="492" y="425" on="0"/>
        <pt x="469" y="445" on="0"/>
        <pt x="426" y="478" on="0"/>
        <pt x="400" y="496" on="0"/>
        <pt x="349" y="533" on="0"/>
        <pt x="249" y="604" on="0"/>
        <pt x="125" y="745" on="0"/>
        <pt x="125" y="841" on="1"/>
        <pt x="125" y="1030" on="0"/>
        <pt x="248" y="1143" on="1"/>
        <pt x="188" y="1198" on="0"/>
        <pt x="125" y="1352" on="0"/>
        <pt x="125" y="1433" on="1"/>
        <pt x="125" y="1598" on="0"/>
        <pt x="333" y="1781" on="0"/>
        <pt x="671" y="1781" on="0"/>
        <pt x="853" y="1588" on="0"/>
        <pt x="853" y="1372" on="1"/>
        <pt x="580" y="1372" on="1"/>
        <pt x="580" y="1469" on="0"/>
        <pt x="544" y="1542" on="0"/>
        <pt x="497" y="1542" on="1"/>
        <pt x="412" y="1542" on="0"/>
        <pt x="412" y="1451" on="1"/>
        <pt x="412" y="1373" on="0"/>
        <pt x="630" y="1227" on="1"/>
        <pt x="633" y="1226" on="0"/>
        <pt x="635" y="1224" on="0"/>
        <pt x="639" y="1222" on="0"/>
        <pt x="697" y="1185" on="0"/>
        <pt x="785" y="1096" on="0"/>
        <pt x="852" y="957" on="0"/>
        <pt x="852" y="809" on="0"/>
        <pt x="766" y="659" on="0"/>
        <pt x="700" y="598" on="1"/>
        <pt x="779" y="525" on="0"/>
        <pt x="855" y="389" on="0"/>
        <pt x="855" y="293" on="1"/>
        <pt x="855" y="143" on="0"/>
        <pt x="660" y="-20" on="0"/>
        <pt x="298" y="-20" on="0"/>
        <pt x="107" y="172" on="0"/>
        <pt x="107" y="391" on="1"/>
        <pt x="406" y="391" on="1"/>
        <pt x="406" y="289" on="0"/>
        <pt x="452" y="220" on="0"/>
      </contour>
      <contour>
        <pt x="541" y="735" on="1"/>
        <pt x="586" y="810" on="0"/>
        <pt x="586" y="856" on="1"/>
        <pt x="586" y="950" on="0"/>
        <pt x="426" y="1017" on="1"/>
        <pt x="381" y="952" on="0"/>
        <pt x="381" y="847" on="0"/>
        <pt x="476" y="761" on="0"/>
      </contour>
    </TTGlyph>
    <TTGlyph name="semicolon" xMin="126" yMin="-107" xMax="435" yMax="1250">
      <contour>
        <pt x="184" y="-107" on="1"/>
        <pt x="262" y="255" on="1"/>
        <pt x="132" y="255" on="1"/>
        <pt x="132" y="533" on="1"/>
        <pt x="435" y="533" on="1"/>
        <pt x="435" y="264" on="1"/>
        <pt x="326" y="-107" on="1"/>
      </contour>
      <contour>
        <pt x="126" y="944" on="1"/>
        <pt x="126" y="1250" on="1"/>
        <pt x="427" y="1250" on="1"/>
        <pt x="427" y="944" on="1"/>
      </contour>
    </TTGlyph>
    <TTGlyph name="seven" xMin="104" yMin="1" xMax="881" yMax="1761">
      <contour>
        <pt x="500" y="1" on="1"/>
        <pt x="208" y="1" on="1"/>
        <pt x="232" y="343" on="0"/>
        <pt x="391" y="913" on="0"/>
        <pt x="518" y="1281" on="0"/>
        <pt x="571" y="1432" on="0"/>
        <pt x="602" y="1517" on="0"/>
        <pt x="604" y="1526" on="1"/>
        <pt x="104" y="1526" on="1"/>
        <pt x="104" y="1761" on="1"/>
        <pt x="881" y="1761" on="1"/>
        <pt x="881" y="1566" on="1"/>
        <pt x="876" y="1519" on="0"/>
        <pt x="822" y="1370" on="0"/>
        <pt x="778" y="1255" on="1"/>
        <pt x="539" y="631" on="0"/>
      </contour>
    </TTGlyph>
    <TTGlyph name="six" xMin="102" yMin="-21" xMax="881" yMax="1781">
      <contour>
        <pt x="370" y="1019" on="1"/>
        <pt x="433" y="1103" on="0"/>
        <pt x="745" y="1103" on="0"/>
        <pt x="881" y="853" on="0"/>
        <pt x="881" y="580" on="1"/>
        <pt x="881" y="483" on="1"/>
        <pt x="881" y="229" on="0"/>
        <pt x="721" y="-21" on="0"/>
        <pt x="499" y="-21" on="1"/>
        <pt x="225" y="-20" on="0"/>
        <pt x="148" y="188" on="1"/>
        <pt x="102" y="313" on="0"/>
        <pt x="102" y="527" on="1"/>
        <pt x="102" y="1250" on="1"/>
        <pt x="102" y="1632" on="0"/>
        <pt x="278" y="1732" on="1"/>
        <pt x="364" y="1780" on="0"/>
        <pt x="502" y="1781" on="1"/>
        <pt x="681" y="1781" on="0"/>
        <pt x="844" y="1578" on="0"/>
        <pt x="845" y="1336" on="1"/>
        <pt x="845" y="1245" on="1"/>
        <pt x="595" y="1245" on="1"/>
        <pt x="595" y="1281" on="1"/>
        <pt x="595" y="1440" on="0"/>
        <pt x="559" y="1548" on="0"/>
        <pt x="415" y="1548" on="0"/>
        <pt x="370" y="1432" on="0"/>
        <pt x="370" y="1270" on="1"/>
      </contour>
      <contour>
        <pt x="427" y="212" on="0"/>
        <pt x="571" y="212" on="0"/>
        <pt x="622" y="306" on="0"/>
        <pt x="622" y="434" on="1"/>
        <pt x="622" y="601" on="1"/>
        <pt x="622" y="749" on="0"/>
        <pt x="571" y="871" on="0"/>
        <pt x="449" y="871" on="0"/>
        <pt x="376" y="816" on="0"/>
        <pt x="370" y="777" on="1"/>
        <pt x="370" y="459" on="1"/>
        <pt x="370" y="328" on="0"/>
      </contour>
    </TTGlyph>
    <TTGlyph name="slash" xMin="86" yMin="0" xMax="748" yMax="1769">
      <contour>
        <pt x="86" y="0" on="1"/>
        <pt x="513" y="1769" on="1"/>
        <pt x="748" y="1769" on="1"/>
        <pt x="320" y="0" on="1"/>
      </contour>
    </TTGlyph>
    <TTGlyph name="sterling" xMin="82" yMin="0" xMax="963" yMax="1781">
      <contour>
        <pt x="719" y="1393" on="1"/>
        <pt x="719" y="1394" on="0"/>
        <pt x="719" y="1395" on="1"/>
        <pt x="719" y="1567" on="0"/>
        <pt x="578" y="1567" on="1"/>
        <pt x="418" y="1567" on="0"/>
        <pt x="417" y="1414" on="1"/>
        <pt x="417" y="1382" on="0"/>
        <pt x="508" y="1062" on="0"/>
        <pt x="532" y="973" on="1"/>
        <pt x="865" y="973" on="1"/>
        <pt x="865" y="783" on="1"/>
        <pt x="582" y="783" on="1"/>
        <pt x="599" y="698" on="0"/>
        <pt x="599" y="622" on="1"/>
        <pt x="599" y="472" on="0"/>
        <pt x="502" y="269" on="0"/>
        <pt x="415" y="226" on="1"/>
        <pt x="954" y="226" on="1"/>
        <pt x="954" y="0" on="1"/>
        <pt x="82" y="0" on="1"/>
        <pt x="82" y="205" on="1"/>
        <pt x="208" y="260" on="0"/>
        <pt x="337" y="465" on="0"/>
        <pt x="337" y="631" on="1"/>
        <pt x="337" y="708" on="0"/>
        <pt x="322" y="783" on="1"/>
        <pt x="92" y="783" on="1"/>
        <pt x="92" y="973" on="1"/>
        <pt x="281" y="973" on="1"/>
        <pt x="166" y="1339" on="0"/>
        <pt x="166" y="1389" on="1"/>
        <pt x="166" y="1579" on="0"/>
        <pt x="378" y="1781" on="0"/>
        <pt x="592" y="1781" on="1"/>
        <pt x="963" y="1781" on="0"/>
        <pt x="963" y="1381" on="1"/>
        <pt x="963" y="1246" on="1"/>
        <pt x="719" y="1246" on="1"/>
      </contour>
    </TTGlyph>
    <TTGlyph name="summation" xMin="114" yMin="0" xMax="711" yMax="1761">
      <contour>
        <pt x="114" y="0" on="1"/>
        <pt x="114" y="221" on="1"/>
        <pt x="389" y="881" on="1"/>
        <pt x="114" y="1555" on="1"/>
        <pt x="114" y="1761" on="1"/>
        <pt x="711" y="1761" on="1"/>
        <pt x="711" y="1551" on="1"/>
        <pt x="387" y="1551" on="1"/>
        <pt x="646" y="880" on="1"/>
        <pt x="387" y="225" on="1"/>
        <pt x="711" y="225" on="1"/>
        <pt x="711" y="0" on="1"/>
      </contour>
    </TTGlyph>
    <TTGlyph name="t" xMin="47" yMin="-10" xMax="585" yMax="1761">
      <contour>
        <pt x="405" y="-10" on="1"/>
        <pt x="265" y="-10" on="0"/>
        <pt x="169" y="97" on="0"/>
        <pt x="169" y="229" on="1"/>
        <pt x="169" y="1277" on="1"/>
        <pt x="47" y="1277" on="1"/>
        <pt x="47" y="1469" on="1"/>
        <pt x="169" y="1469" on="1"/>
        <pt x="169" y="1761" on="1"/>
        <pt x="434" y="1761" on="1"/>
        <pt x="434" y="1469" on="1"/>
        <pt x="580" y="1469" on="1"/>
        <pt x="580" y="1277" on="1"/>
        <pt x="434" y="1277" on="1"/>
        <pt x="434" y="275" on="1"/>
        <pt x="434" y="222" on="0"/>
        <pt x="489" y="192" on="0"/>
        <pt x="585" y="192" on="1"/>
        <pt x="585" y="-10" on="1"/>
      </contour>
    </TTGlyph>
    <TTGlyph name="tcaron" xMin="47" yMin="-10" xMax="1066" yMax="1764">
      <component glyphName="t" x="0" y="0" flags="0x1004"/>
      <component glyphName="quoteright" x="588" y="-11" flags="0x1004"/>
    </TTGlyph>
    <TTGlyph name="thorn" xMin="133" yMin="-285" xMax="885" yMax="1775">
      <contour>
        <pt x="133" y="-285" on="1"/>
        <pt x="133" y="1775" on="1"/>
        <pt x="399" y="1775" on="1"/>
        <pt x="399" y="1365" on="1"/>
        <pt x="427" y="1436" on="0"/>
        <pt x="546" y="1515" on="0"/>
        <pt x="678" y="1515" on="0"/>
        <pt x="728" y="1491" on="1"/>
        <pt x="819" y="1447" on="0"/>
        <pt x="885" y="1223" on="0"/>
        <pt x="885" y="1048" on="1"/>
        <pt x="885" y="501" on="1"/>
        <pt x="885" y="190" on="0"/>
        <pt x="734" y="-18" on="0"/>
        <pt x="586" y="-18" on="1"/>
        <pt x="528" y="-18" on="0"/>
        <pt x="430" y="44" on="0"/>
        <pt x="399" y="91" on="1"/>
        <pt x="399" y="-285" on="1"/>
      </contour>
      <contour>
        <pt x="515" y="198" on="1"/>
        <pt x="578" y="198" on="0"/>
        <pt x="620" y="318" on="0"/>
        <pt x="620" y="451" on="1"/>
        <pt x="620" y="1069" on="1"/>
        <pt x="620" y="1191" on="0"/>
        <pt x="597" y="1253" on="0"/>
        <pt x="564" y="1301" on="0"/>
        <pt x="520" y="1301" on="1"/>
        <pt x="476" y="1300" on="0"/>
        <pt x="452" y="1282" on="1"/>
        <pt x="399" y="1243" on="0"/>
        <pt x="399" y="1076" on="1"/>
        <pt x="399" y="1073" on="0"/>
        <pt x="399" y="1070" on="1"/>
        <pt x="399" y="440" on="1"/>
        <pt x="399" y="252" on="0"/>
        <pt x="456" y="214" on="1"/>
        <pt x="479" y="198" on="0"/>
      </contour>
    </TTGlyph>
    <TTGlyph name="three" xMin="105" yMin="-20" xMax="867" yMax="1780">
      <contour>
        <pt x="867" y="239" on="0"/>
        <pt x="681" y="-20" on="0"/>
        <pt x="270" y="-20" on="0"/>
        <pt x="105" y="217" on="0"/>
        <pt x="105" y="474" on="1"/>
        <pt x="105" y="589" on="1"/>
        <pt x="356" y="589" on="1"/>
        <pt x="356" y="467" on="1"/>
        <pt x="356" y="322" on="0"/>
        <pt x="401" y="210" on="0"/>
        <pt x="553" y="210" on="0"/>
        <pt x="604" y="345" on="0"/>
        <pt x="604" y="684" on="0"/>
        <pt x="538" y="828" on="0"/>
        <pt x="442" y="828" on="1"/>
        <pt x="366" y="828" on="1"/>
        <pt x="366" y="1032" on="1"/>
        <pt x="440" y="1032" on="1"/>
        <pt x="534" y="1032" on="0"/>
        <pt x="604" y="1159" on="0"/>
        <pt x="604" y="1449" on="0"/>
        <pt x="545" y="1549" on="0"/>
        <pt x="417" y="1549" on="0"/>
        <pt x="366" y="1444" on="0"/>
        <pt x="366" y="1314" on="1"/>
        <pt x="366" y="1261" on="1"/>
        <pt x="107" y="1261" on="1"/>
        <pt x="107" y="1316" on="1"/>
        <pt x="107" y="1557" on="0"/>
        <pt x="277" y="1780" on="0"/>
        <pt x="676" y="1780" on="0"/>
        <pt x="864" y="1550" on="0"/>
        <pt x="864" y="1316" on="1"/>
        <pt x="864" y="1171" on="0"/>
        <pt x="774" y="974" on="0"/>
        <pt x="683" y="941" on="1"/>
        <pt x="783" y="894" on="0"/>
        <pt x="867" y="676" on="0"/>
        <pt x="867" y="503" on="1"/>
      </contour>
    </TTGlyph>
    <TTGlyph name="threequarters" xMin="83" yMin="0" xMax="1439" yMax="1767">
      <contour>
        <pt x="250" y="1404" on="1"/>
        <pt x="249" y="1378" on="1"/>
        <pt x="88" y="1378" on="1"/>
        <pt x="88" y="1408" on="1"/>
        <pt x="88" y="1554" on="0"/>
        <pt x="200" y="1691" on="0"/>
        <pt x="323" y="1691" on="1"/>
        <pt x="561" y="1691" on="0"/>
        <pt x="561" y="1408" on="1"/>
        <pt x="561" y="1221" on="0"/>
        <pt x="456" y="1183" on="1"/>
        <pt x="516" y="1155" on="0"/>
        <pt x="564" y="1023" on="0"/>
        <pt x="564" y="756" on="0"/>
        <pt x="445" y="598" on="0"/>
        <pt x="193" y="598" on="0"/>
        <pt x="83" y="746" on="0"/>
        <pt x="83" y="899" on="1"/>
        <pt x="83" y="969" on="1"/>
        <pt x="243" y="969" on="1"/>
        <pt x="243" y="899" on="1"/>
        <pt x="243" y="807" on="0"/>
        <pt x="273" y="737" on="0"/>
        <pt x="370" y="737" on="0"/>
        <pt x="401" y="818" on="0"/>
        <pt x="401" y="1021" on="0"/>
        <pt x="354" y="1115" on="0"/>
        <pt x="290" y="1115" on="1"/>
        <pt x="268" y="1115" on="0"/>
        <pt x="265" y="1114" on="1"/>
        <pt x="265" y="1250" on="1"/>
        <pt x="286" y="1250" on="1"/>
        <pt x="328" y="1251" on="0"/>
        <pt x="352" y="1263" on="1"/>
        <pt x="402" y="1288" on="0"/>
        <pt x="402" y="1387" on="1"/>
        <pt x="402" y="1488" on="0"/>
        <pt x="381" y="1521" on="1"/>
        <pt x="361" y="1553" on="0"/>
        <pt x="282" y="1553" on="0"/>
        <pt x="250" y="1486" on="0"/>
      </contour>
      <contour>
        <pt x="1211" y="0" on="1"/>
        <pt x="1211" y="192" on="1"/>
        <pt x="922" y="192" on="1"/>
        <pt x="922" y="306" on="1"/>
        <pt x="1147" y="1065" on="1"/>
        <pt x="1370" y="1065" on="1"/>
        <pt x="1370" y="324" on="1"/>
        <pt x="1439" y="324" on="1"/>
        <pt x="1439" y="192" on="1"/>
        <pt x="1370" y="192" on="1"/>
        <pt x="1370" y="0" on="1"/>
      </contour>
      <contour>
        <pt x="474" y="0" on="1"/>
        <pt x="974" y="1767" on="1"/>
        <pt x="1163" y="1767" on="1"/>
        <pt x="663" y="0" on="1"/>
      </contour>
      <contour>
        <pt x="1070" y="324" on="1"/>
        <pt x="1211" y="324" on="1"/>
        <pt x="1211" y="864" on="1"/>
      </contour>
    </TTGlyph>
    <TTGlyph name="tilde" xMin="223" yMin="906" xMax="892" yMax="1161">
      <contour>
        <pt x="862" y="983" on="0"/>
        <pt x="781" y="906" on="0"/>
        <pt x="666" y="906" on="0"/>
        <pt x="468" y="988" on="0"/>
        <pt x="411" y="988" on="0"/>
        <pt x="380" y="981" on="0"/>
        <pt x="353" y="927" on="1"/>
        <pt x="223" y="979" on="1"/>
        <pt x="251" y="1077" on="0"/>
        <pt x="346" y="1161" on="0"/>
        <pt x="459" y="1161" on="0"/>
        <pt x="669" y="1087" on="0"/>
        <pt x="690" y="1087" on="1"/>
        <pt x="694" y="1087" on="1"/>
        <pt x="711" y="1090" on="0"/>
        <pt x="736" y="1117" on="0"/>
        <pt x="750" y="1158" on="1"/>
        <pt x="892" y="1130" on="1"/>
        <pt x="883" y="1082" on="1"/>
      </contour>
    </TTGlyph>
    <TTGlyph name="trademark" xMin="82" yMin="507" xMax="1561" yMax="1761">
      <contour>
        <pt x="694" y="507" on="1"/>
        <pt x="694" y="1761" on="1"/>
        <pt x="981" y="1761" on="1"/>
        <pt x="1129" y="883" on="1"/>
        <pt x="1273" y="1761" on="1"/>
        <pt x="1561" y="1761" on="1"/>
        <pt x="1561" y="507" on="1"/>
        <pt x="1373" y="507" on="1"/>
        <pt x="1373" y="996" on="1"/>
        <pt x="1380" y="1469" on="1"/>
        <pt x="1223" y="507" on="1"/>
        <pt x="1038" y="507" on="1"/>
        <pt x="873" y="1469" on="1"/>
        <pt x="880" y="996" on="1"/>
        <pt x="880" y="507" on="1"/>
      </contour>
      <contour>
        <pt x="231" y="507" on="1"/>
        <pt x="231" y="1592" on="1"/>
        <pt x="82" y="1592" on="1"/>
        <pt x="82" y="1761" on="1"/>
        <pt x="572" y="1761" on="1"/>
        <pt x="572" y="1592" on="1"/>
        <pt x="429" y="1592" on="1"/>
        <pt x="429" y="507" on="1"/>
      </contour>
    </TTGlyph>
    <TTGlyph name="two" xMin="141" yMin="0" xMax="854" yMax="1780">
      <contour>
        <pt x="160" y="0" on="1"/>
        <pt x="160" y="104" on="1"/>
        <pt x="160" y="242" on="0"/>
        <pt x="251" y="509" on="0"/>
        <pt x="348" y="679" on="1"/>
        <pt x="352" y="685" on="0"/>
        <pt x="490" y="923" on="0"/>
        <pt x="522" y="968" on="1"/>
        <pt x="600" y="1096" on="0"/>
        <pt x="600" y="1549" on="0"/>
        <pt x="504" y="1549" on="1"/>
        <pt x="424" y="1549" on="0"/>
        <pt x="405" y="1423" on="1"/>
        <pt x="397" y="1369" on="0"/>
        <pt x="397" y="1288" on="1"/>
        <pt x="397" y="1065" on="1"/>
        <pt x="141" y="1065" on="1"/>
        <pt x="141" y="1173" on="1"/>
        <pt x="141" y="1500" on="0"/>
        <pt x="264" y="1730" on="0"/>
        <pt x="372" y="1762" on="1"/>
        <pt x="432" y="1780" on="0"/>
        <pt x="602" y="1780" on="0"/>
        <pt x="670" y="1742" on="1"/>
        <pt x="736" y="1704" on="0"/>
        <pt x="776" y="1636" on="1"/>
        <pt x="854" y="1503" on="0"/>
        <pt x="854" y="1076" on="0"/>
        <pt x="688" y="754" on="0"/>
        <pt x="607" y="629" on="1"/>
        <pt x="459" y="400" on="0"/>
        <pt x="415" y="210" on="1"/>
        <pt x="821" y="210" on="1"/>
        <pt x="821" y="0" on="1"/>
      </contour>
    </TTGlyph>
    <TTGlyph name="u" xMin="122" yMin="-19" xMax="883" yMax="1500">
      <contour>
        <pt x="389" y="-19" on="1"/>
        <pt x="122" y="-19" on="0"/>
        <pt x="122" y="340" on="1"/>
        <pt x="122" y="1500" on="1"/>
        <pt x="388" y="1500" on="1"/>
        <pt x="388" y="381" on="1"/>
        <pt x="388" y="288" on="0"/>
        <pt x="434" y="199" on="0"/>
        <pt x="497" y="199" on="1"/>
        <pt x="618" y="199" on="0"/>
        <pt x="618" y="379" on="1"/>
        <pt x="619" y="1500" on="1"/>
        <pt x="883" y="1500" on="1"/>
        <pt x="883" y="0" on="1"/>
        <pt x="618" y="0" on="1"/>
        <pt x="618" y="156" on="1"/>
        <pt x="555" y="-19" on="0"/>
      </contour>
    </TTGlyph>
    <TTGlyph name="uacute" xMin="122" yMin="-19" xMax="883" yMax="1986">
      <component glyphName="u" x="0" y="0" flags="0x1004"/>
      <component glyphName="acute" x="210" y="-125" flags="0x1004"/>
    </TTGlyph>
    <TTGlyph name="ubreve" xMin="122" yMin="-19" xMax="883" yMax="1892">
      <component glyphName="breve" x="9" y="0" flags="0x1004"/>
      <component glyphName="u" x="0" y="0" flags="0x1004"/>
    </TTGlyph>
    <TTGlyph name="ucircumflex" xMin="122" yMin="-19" xMax="883" yMax="1945">
      <component glyphName="u" x="0" y="0" flags="0x1004"/>
      <component glyphName="circumflex" x="32" y="0" flags="0x1004"/>
    </TTGlyph>
    <TTGlyph name="udieresis" xMin="122" yMin="-19" xMax="900" yMax="1849">
      <component glyphName="u" x="0" y="0" flags="0x1004"/>
      <component glyphName="dieresis" x="29" y="720" flags="0x1004"/>
    </TTGlyph>
    <TTGlyph name="ugrave" xMin="122" yMin="-19" xMax="883" yMax="1987">
      <component glyphName="grave" x="208" y="720" flags="0x1004"/>
      <component glyphName="u" x="0" y="0" flags="0x1004"/>
    </TTGlyph>
    <TTGlyph name="uhungarumlaut" xMin="122" yMin="-19" xMax="947" yMax="2161">
      <component glyphName="hungarumlaut" x="-144" y="720" flags="0x1004"/>
      <component glyphName="u" x="0" y="0" flags="0x1004"/>
    </TTGlyph>
    <TTGlyph name="umacron" xMin="122" yMin="-19" xMax="883" yMax="1797">
      <component glyphName="macron" x="169" y="720" flags="0x1004"/>
      <component glyphName="u" x="0" y="0" flags="0x1004"/>
    </TTGlyph>
    <TTGlyph name="underscore" xMin="48" yMin="-211" xMax="699" yMax="-28">
      <contour>
        <pt x="48" y="-211" on="1"/>
        <pt x="48" y="-28" on="1"/>
        <pt x="699" y="-28" on="1"/>
        <pt x="699" y="-211" on="1"/>
      </contour>
    </TTGlyph>
    <TTGlyph name="uni00AD" xMin="90" yMin="509" xMax="606" yMax="741">
      <contour>
        <pt x="90" y="509" on="1"/>
        <pt x="90" y="741" on="1"/>
        <pt x="606" y="741" on="1"/>
        <pt x="606" y="509" on="1"/>
      </contour>
    </TTGlyph>
    <TTGlyph name="uni00B2" xMin="182" yMin="565" xMax="691" yMax="1780">
      <contour>
        <pt x="439" y="1621" on="1"/>
        <pt x="403" y="1621" on="0"/>
        <pt x="365" y="1546" on="0"/>
        <pt x="365" y="1448" on="1"/>
        <pt x="365" y="1294" on="1"/>
        <pt x="183" y="1294" on="1"/>
        <pt x="182" y="1368" on="1"/>
        <pt x="182" y="1537" on="0"/>
        <pt x="204" y="1609" on="1"/>
        <pt x="226" y="1680" on="0"/>
        <pt x="255" y="1712" on="1"/>
        <pt x="317" y="1780" on="0"/>
        <pt x="447" y="1780" on="1"/>
        <pt x="532" y="1780" on="0"/>
        <pt x="588" y="1734" on="1"/>
        <pt x="691" y="1649" on="0"/>
        <pt x="691" y="1282" on="0"/>
        <pt x="604" y="1128" on="1"/>
        <pt x="566" y="1060" on="0"/>
        <pt x="526" y="998" on="1"/>
        <pt x="419" y="835" on="0"/>
        <pt x="387" y="716" on="1"/>
        <pt x="678" y="716" on="1"/>
        <pt x="678" y="565" on="1"/>
        <pt x="185" y="565" on="1"/>
        <pt x="185" y="627" on="1"/>
        <pt x="185" y="741" on="0"/>
        <pt x="380" y="1132" on="0"/>
        <pt x="456" y="1226" on="1"/>
        <pt x="511" y="1314" on="0"/>
        <pt x="511" y="1621" on="0"/>
      </contour>
    </TTGlyph>
    <TTGlyph name="uni00B3" xMin="158" yMin="602" xMax="715" yMax="1778">
      <contour>
        <pt x="352" y="1469" on="1"/>
        <pt x="351" y="1441" on="1"/>
        <pt x="164" y="1441" on="1"/>
        <pt x="163" y="1474" on="1"/>
        <pt x="164" y="1632" on="0"/>
        <pt x="290" y="1778" on="0"/>
        <pt x="576" y="1778" on="0"/>
        <pt x="712" y="1627" on="0"/>
        <pt x="712" y="1474" on="1"/>
        <pt x="712" y="1273" on="0"/>
        <pt x="592" y="1233" on="1"/>
        <pt x="662" y="1203" on="0"/>
        <pt x="715" y="1063" on="0"/>
        <pt x="715" y="945" on="1"/>
        <pt x="715" y="773" on="0"/>
        <pt x="576" y="602" on="0"/>
        <pt x="281" y="602" on="0"/>
        <pt x="158" y="760" on="0"/>
        <pt x="158" y="927" on="1"/>
        <pt x="158" y="1005" on="1"/>
        <pt x="344" y="1005" on="1"/>
        <pt x="344" y="926" on="1"/>
        <pt x="344" y="830" on="0"/>
        <pt x="378" y="756" on="0"/>
        <pt x="486" y="756" on="0"/>
        <pt x="519" y="842" on="0"/>
        <pt x="519" y="1057" on="0"/>
        <pt x="467" y="1157" on="0"/>
        <pt x="395" y="1157" on="1"/>
        <pt x="366" y="1157" on="1"/>
        <pt x="366" y="1297" on="1"/>
        <pt x="392" y="1297" on="1"/>
        <pt x="463" y="1300" on="0"/>
        <pt x="519" y="1374" on="0"/>
        <pt x="519" y="1558" on="0"/>
        <pt x="476" y="1625" on="0"/>
        <pt x="387" y="1625" on="0"/>
        <pt x="352" y="1555" on="0"/>
      </contour>
    </TTGlyph>
    <TTGlyph name="uni00B9" xMin="76" yMin="564" xMax="444" yMax="1759">
      <contour>
        <pt x="238" y="564" on="1"/>
        <pt x="238" y="1528" on="1"/>
        <pt x="172" y="1479" on="0"/>
        <pt x="76" y="1479" on="1"/>
        <pt x="76" y="1609" on="1"/>
        <pt x="141" y="1614" on="0"/>
        <pt x="281" y="1700" on="0"/>
        <pt x="295" y="1759" on="1"/>
        <pt x="444" y="1759" on="1"/>
        <pt x="444" y="564" on="1"/>
      </contour>
    </TTGlyph>
    <TTGlyph name="uni01C4" xMin="131" yMin="0" xMax="1794" yMax="2206">
      <component glyphName="caron" x="970" y="260" flags="0x1004"/>
      <component glyphName="Z" x="1005" y="0" flags="0x1004"/>
      <component glyphName="D" x="0" y="0" flags="0x1004"/>
    </TTGlyph>
    <TTGlyph name="uni01C5" xMin="131" yMin="0" xMax="1755" yMax="1946">
      <component glyphName="caron" x="931" y="0" flags="0x1004"/>
      <component glyphName="z" x="1005" y="0" flags="0x1004"/>
      <component glyphName="D" x="0" y="0" flags="0x1004"/>
    </TTGlyph>
    <TTGlyph name="uni01C6" xMin="110" yMin="-15" xMax="1748" yMax="1946">
      <component glyphName="caron" x="924" y="0" flags="0x1004"/>
      <component glyphName="z" x="998" y="0" flags="0x1004"/>
      <component glyphName="d" x="0" y="0" flags="0x1004"/>
    </TTGlyph>
    <TTGlyph name="uni01C7" xMin="132" yMin="-20" xMax="1555" yMax="1760">
      <component glyphName="J" x="761" y="0" flags="0x1004"/>
      <component glyphName="L" x="0" y="0" flags="0x1004"/>
    </TTGlyph>
    <TTGlyph name="uni01C8" xMin="132" yMin="-197" xMax="1195" yMax="1868">
      <component glyphName="j" x="761" y="0" flags="0x1004"/>
      <component glyphName="L" x="0" y="0" flags="0x1004"/>
    </TTGlyph>
    <TTGlyph name="uni01C9" xMin="135" yMin="-197" xMax="968" yMax="1868">
      <component glyphName="j" x="534" y="0" flags="0x1004"/>
      <component glyphName="l" x="0" y="0" flags="0x1004"/>
    </TTGlyph>
    <TTGlyph name="uni01CA" xMin="132" yMin="-20" xMax="1863" yMax="1760">
      <component glyphName="J" x="1069" y="0" flags="0x1004"/>
      <component glyphName="N" x="0" y="0" flags="0x1004"/>
    </TTGlyph>
    <TTGlyph name="uni01CB" xMin="132" yMin="-197" xMax="1503" yMax="1868">
      <component glyphName="j" x="1069" y="0" flags="0x1004"/>
      <component glyphName="N" x="0" y="0" flags="0x1004"/>
    </TTGlyph>
    <TTGlyph name="uni01CC" xMin="132" yMin="-197" xMax="1454" yMax="1868">
      <component glyphName="j" x="1020" y="0" flags="0x1004"/>
      <component glyphName="n" x="0" y="0" flags="0x1004"/>
    </TTGlyph>
    <TTGlyph name="uni01F1" xMin="131" yMin="0" xMax="1749" yMax="1760">
      <component glyphName="Z" x="1005" y="0" flags="0x1004"/>
      <component glyphName="D" x="0" y="0" flags="0x1004"/>
    </TTGlyph>
    <TTGlyph name="uni01F2" xMin="131" yMin="0" xMax="1674" yMax="1760">
      <component glyphName="z" x="1005" y="0" flags="0x1004"/>
      <component glyphName="D" x="0" y="0" flags="0x1004"/>
    </TTGlyph>
    <TTGlyph name="uni01F3" xMin="110" yMin="-15" xMax="1667" yMax="1775">
      <component glyphName="z" x="998" y="0" flags="0x1004"/>
      <component glyphName="d" x="0" y="0" flags="0x1004"/>
    </TTGlyph>
    <TTGlyph name="uni01F4" xMin="110" yMin="-18" xMax="880" yMax="2246">
      <component glyphName="G" x="0" y="0" flags="0x1004"/>
      <component glyphName="acute" x="199" y="135" flags="0x1004"/>
    </TTGlyph>
    <TTGlyph name="uni01F5" xMin="100" yMin="-225" xMax="865" yMax="1986">
      <component glyphName="g" x="0" y="0" flags="0x1004"/>
      <component glyphName="acute" x="214" y="-125" flags="0x1004"/>
    </TTGlyph>
    <TTGlyph name="uni0200" xMin="52" yMin="0" xMax="924" yMax="2369">
      <component glyphName="uni030F" x="70" y="260" flags="0x1004"/>
      <component glyphName="A" x="0" y="0" flags="0x1004"/>
    </TTGlyph>
    <TTGlyph name="uni0201" xMin="101" yMin="-15" xMax="862" yMax="2109">
      <component glyphName="uni030F" x="98" y="0" flags="0x1004"/>
      <component glyphName="a" x="0" y="0" flags="0x1004"/>
    </TTGlyph>
    <TTGlyph name="uni0202" xMin="52" yMin="0" xMax="924" yMax="2183">
      <component glyphName="uni0311" x="-28" y="260" flags="0x1004"/>
      <component glyphName="A" x="0" y="0" flags="0x1004"/>
    </TTGlyph>
    <TTGlyph name="uni0203" xMin="107" yMin="-15" xMax="862" yMax="1923">
      <component glyphName="uni0311" x="0" y="0" flags="0x1004"/>
      <component glyphName="a" x="0" y="0" flags="0x1004"/>
    </TTGlyph>
</ttFont>
